<svg width="15" height="15" viewBox="0 0 15 15" fill="none" xmlns="http://www.w3.org/2000/svg">
<g clip-path="url(#clip0_4058_11413)">
<path d="M9.5264 10.7213C9.36796 10.6765 9.29744 10.6616 9.22867 10.6335C8.70632 10.4454 8.24144 10.5245 7.83575 10.9181C7.61724 11.1307 7.3935 11.158 7.16889 10.9278C6.74231 10.4885 6.23998 10.4516 5.69849 10.6563C5.44689 10.7512 5.278 10.6791 5.17614 10.4393C4.92803 9.85943 4.48491 9.57565 3.86245 9.56686C3.60998 9.56686 3.49768 9.44035 3.49419 9.18907C3.48462 8.5644 3.1982 8.12072 2.61927 7.8712C2.37289 7.76665 2.31892 7.5883 2.4112 7.34405C2.61666 6.79846 2.56703 6.29767 2.13523 5.86892C1.92977 5.66421 1.90801 5.44984 2.12652 5.23371C2.55571 4.80935 2.62362 4.3112 2.41642 3.76121C2.32937 3.52399 2.35026 3.33334 2.60882 3.22703C3.21126 2.97839 3.46198 2.50835 3.51335 1.87577C3.52379 1.75189 3.72577 1.55333 3.85113 1.54455C4.48578 1.4971 4.94457 1.22826 5.19268 0.629066C5.29019 0.391849 5.4643 0.349676 5.6863 0.435777C6.24869 0.653665 6.75537 0.586896 7.19414 0.147606C7.38827 -0.0465604 7.59025 -0.0606201 7.79135 0.139696C8.22664 0.572836 8.73331 0.666846 9.29745 0.438416C9.54643 0.338257 9.71706 0.414691 9.81979 0.654543C10.0679 1.23441 10.511 1.51907 11.1335 1.52698C11.3868 1.52698 11.5 1.65437 11.5026 1.90389C11.509 2.53295 11.7992 2.97224 12.3732 3.22176C12.6196 3.32719 12.6735 3.50202 12.5804 3.74891C12.3758 4.2945 12.4254 4.79529 12.8572 5.22492C13.0618 5.42875 13.0862 5.64313 12.8668 5.85926C12.4211 6.29855 12.3741 6.81339 12.5882 7.37481C12.6753 7.60675 12.6117 7.77104 12.3845 7.86593C11.7838 8.11633 11.5287 8.58373 11.48 9.21807C11.4704 9.34195 11.2676 9.54051 11.1422 9.54929C10.5075 9.59674 10.0575 9.8691 9.79193 10.4604C9.74492 10.5851 9.59779 10.6563 9.5264 10.7213ZM3.49593 5.54824C3.49593 7.72887 5.29976 9.55369 7.47533 9.57126C9.6509 9.58883 11.5052 7.74908 11.5052 5.55263C11.5052 3.37199 9.69965 1.5463 7.52495 1.53049C5.35026 1.51468 3.49593 3.34915 3.49593 5.54824Z" fill="#3679AE"/>
<path d="M15.0006 13.075L12.3889 12.5592C12.1591 13.35 11.9345 14.1187 11.6785 14.9991C10.8645 13.639 10.1037 12.3633 9.30273 11.0296C9.73802 11.1465 9.95305 10.9312 10.101 10.629C10.3213 10.18 10.6399 9.90329 11.1701 9.90593C11.6054 9.90593 11.8117 9.65289 11.8518 9.22678C11.8759 8.97481 11.9524 8.73082 12.0764 8.51074L15.0006 13.075Z" fill="#3679AE"/>
<path d="M2.6127 12.5576L0.000976562 13.0777C1.00475 11.5086 1.96412 10.0115 2.98966 8.40894C3.07672 8.82011 3.14897 9.09599 3.18728 9.37537C3.22994 9.67936 3.37097 9.85508 3.68699 9.86826C4.30423 9.89198 4.71514 10.1951 4.99895 10.7468C5.0921 10.9287 5.37242 11.0104 5.60835 11.1703L3.32222 15L2.6127 12.5576Z" fill="#3679AE"/>
<path d="M4.54126 5.53515C4.54818 4.7429 4.86668 3.98588 5.42667 3.43062C5.70396 3.15568 6.03218 2.93855 6.39261 2.79163C6.75304 2.64471 7.13862 2.57087 7.52733 2.57434C7.91603 2.5778 8.30026 2.65849 8.65806 2.8118C9.01587 2.96512 9.34025 3.18806 9.61268 3.46789C9.88511 3.74772 10.1003 4.07897 10.2458 4.44272C10.3914 4.80646 10.4646 5.19558 10.4612 5.58786C10.4533 7.23169 9.13528 8.52672 7.47596 8.52144C7.08802 8.52323 6.70361 8.44702 6.34516 8.29727C5.98671 8.14752 5.6614 7.92722 5.38822 7.64924C5.11504 7.37125 4.89945 7.04114 4.75403 6.67817C4.60861 6.3152 4.53628 5.92664 4.54126 5.53515Z" fill="#3679AE"/>
</g>
<defs>
<clipPath id="clip0_4058_11413">
<rect width="15" height="15" fill="white"/>
</clipPath>
</defs>
</svg>
