<svg width="25" height="15" viewBox="0 0 25 15" fill="none" xmlns="http://www.w3.org/2000/svg">
<g clip-path="url(#clip0_4106_7260)">
<path d="M6.17726 12.5886C4.51888 12.5886 2.9425 12.5886 1.36611 12.5886C0.300199 12.5886 0.00132247 12.2796 0 11.2032C0 7.95143 0 4.70006 0 1.44914C0 0.394319 0.387484 0.00195312 1.42562 0.00195312C5.80918 0.00195312 10.1927 0.00195312 14.5763 0.00195312C15.4597 0.00195312 15.8458 0.366101 15.8736 1.2543H1.31586V10.0382H11.9512V12.5604H9.80216C9.87754 13.3868 10.2677 13.7698 11.1246 14.0479C11.3785 14.1312 11.569 14.4161 11.7859 14.6096C11.5214 14.744 11.2489 14.9751 10.9778 14.9791C8.96239 15.0114 6.94562 14.9979 4.93017 14.9952C4.58765 14.9952 4.12611 15.0705 4.13669 14.5733C4.13669 14.3892 4.54004 14.1339 4.79793 14.0452C5.48958 13.8141 6.02386 13.4795 6.17726 12.5886Z" fill="white"/>
<path d="M21.5179 4.70896H20.5816C20.5604 4.28031 20.5406 3.89064 20.5194 3.4593H13.714V13.3384H18.9338C19.029 13.9189 19.1097 14.4133 19.1983 14.967C17.3468 14.967 15.4636 14.9979 13.587 14.9334C13.3014 14.924 12.984 14.5074 12.7697 14.2131C12.6481 14.0438 12.6891 13.7415 12.6877 13.4983C12.6877 10.1596 12.6877 6.82085 12.6877 3.48214C12.6877 2.25532 12.9522 1.97986 14.1425 1.97852C16.1579 1.97852 18.1733 1.97852 20.1888 1.97852C21.1661 1.97852 21.4927 2.30504 21.5113 3.2873C21.5258 3.73208 21.5179 4.1755 21.5179 4.70896ZM17.1273 13.8974L17.081 13.7966L16.433 14.1392C16.6657 14.2306 16.8932 14.3368 17.1312 14.408C17.2563 14.4442 17.3892 14.4404 17.5121 14.3972C17.6306 14.3293 17.7382 14.2432 17.8308 14.1419C17.7372 14.0473 17.6297 13.968 17.5121 13.9068C17.3851 13.8833 17.2553 13.8801 17.1273 13.8974Z" fill="white"/>
<path d="M19.7392 10.217C19.7392 9.03584 19.7392 7.8547 19.7392 6.67357C19.7392 5.85927 20.0989 5.49781 20.9043 5.49109C21.8909 5.48214 22.8779 5.48214 23.8653 5.49109C24.6311 5.5005 24.9908 5.86196 24.9934 6.64266C24.9996 9.04972 24.9996 11.4563 24.9934 13.8625C24.9934 14.6015 24.6258 14.9603 23.8944 14.967C22.8647 14.9769 21.834 14.9769 20.8025 14.967C20.1148 14.959 19.7445 14.5921 19.7445 13.8921C19.73 12.6679 19.7392 11.4424 19.7392 10.217ZM20.5473 13.5158H24.2131V6.96113H20.5473V13.5158ZM22.1594 14.5438C22.3842 14.5438 22.4807 14.5693 22.5561 14.5438C22.7137 14.4701 22.8673 14.388 23.0163 14.2979C22.8722 14.2092 22.7373 14.0721 22.5825 14.0439C22.3487 14.0056 22.1102 14.0056 21.8763 14.0439C21.7785 14.0587 21.6952 14.1863 21.6118 14.2616C21.6925 14.3503 21.7586 14.4793 21.8592 14.5155C21.9569 14.5445 22.0593 14.5541 22.1607 14.5438H22.1594Z" fill="white"/>
</g>
<defs>
<clipPath id="clip0_4106_7260">
<rect width="25" height="15" fill="white"/>
</clipPath>
</defs>
</svg>
