<svg width="20" height="19" viewBox="0 0 20 19" fill="none" xmlns="http://www.w3.org/2000/svg">
<path d="M4.00635 2.50879H5.28635V4.62111L4.00635 5.89855V2.50879Z" fill="white"/>
<path d="M19.0465 9.92C18.9582 9.92 18.8539 9.90848 18.7963 9.85056L9.99562 1.04992C9.93322 0.98752 9.8513 0.95616 9.76938 0.95616C9.68746 0.95616 9.60555 0.98752 9.54314 1.04992L0.739624 9.85376C0.681704 9.91168 0.574824 9.92 0.486504 9.92C0.309544 9.92 0.166504 9.77696 0.166504 9.6C0.166504 9.51168 0.171624 9.40096 0.229544 9.34304L9.4577 0.1312C9.4577 0.1312 9.57706 0 9.76938 0C9.9617 0 10.0836 0.12736 10.0836 0.12736L19.3015 9.34496C19.3595 9.40288 19.3665 9.51168 19.3665 9.6C19.3665 9.77664 19.2235 9.92 19.0465 9.92Z" fill="white"/>
<path fill-rule="evenodd" clip-rule="evenodd" d="M16.8064 17.971C17.1597 17.971 17.4464 17.6843 17.4464 17.331V8.17712L9.76931 0.5L2.08643 8.18256V17.331C2.08643 17.6843 2.37315 17.971 2.72643 17.971H16.8064ZM7.69316 9.77871H11.7892V17.9707H7.69316V9.77871ZM6.24725 9.91953H3.78965V14.5881H6.24725V9.91953ZM13.2866 9.91951H15.7442V14.5881H13.2866V9.91951Z" fill="white"/>
<rect y="17.334" width="18.9246" height="1.55313" rx="0.776563" fill="white"/>
</svg>
