<svg width="25" height="31" viewBox="0 0 25 31" fill="none" xmlns="http://www.w3.org/2000/svg">
  <g clip-path="url(#clip0_4058_11646)">
    <path d="M12.9476 -0.00303637C13.4841 0.133467 13.9844 0.336377 14.3625 0.775401C14.7579 1.22503 14.9715 1.81062 14.9605 2.41436C14.9709 2.63349 14.9691 2.85305 14.9551 3.07197C14.9243 3.34314 15.0275 3.45566 15.2817 3.52114C16.3639 3.80289 17.377 4.3104 18.2571 5.01161C19.6684 6.11839 20.6192 7.56551 21.2253 9.26073C21.7238 10.6544 21.9011 12.1006 21.9011 13.5753C21.9011 16.0176 21.9011 18.4603 21.9011 20.9032C21.8968 21.0011 21.9138 21.0987 21.9508 21.1891C21.9879 21.2796 22.0441 21.3605 22.1155 21.4261C23.0202 22.3355 23.9188 23.2523 24.8114 24.1765C24.9103 24.2904 24.9686 24.435 24.977 24.5869C24.9987 25.013 24.9851 25.441 24.9851 25.8901H0.330278C0.330278 25.3967 0.322137 24.9014 0.337517 24.4071C0.337517 24.3268 0.427985 24.2401 0.497644 24.1728C1.39507 23.2505 2.29159 22.3355 3.19716 21.4261C3.26823 21.3602 3.32427 21.2793 3.36131 21.1889C3.39836 21.0986 3.41551 21.001 3.41156 20.9032C3.40433 18.4609 3.40433 16.0183 3.41156 13.5753C3.41156 12.0996 3.58165 10.6516 4.08916 9.26166C5.144 6.37019 7.05194 4.38443 10.003 3.53037C10.2843 3.4492 10.3648 3.33022 10.3585 3.04246C10.3395 2.44756 10.3105 1.84345 10.6027 1.29005C10.7619 0.968677 10.9916 0.689059 11.2741 0.472945C11.5565 0.256831 11.884 0.110044 12.2311 0.044C12.2773 0.0312974 12.3223 0.0149538 12.3659 -0.00488281L12.9476 -0.00303637Z" 
          fill="#3679AE" stroke="white" stroke-width="1"/>
    <path d="M9.57422 27.5015H15.7259C15.7097 28.5898 15.2673 29.4448 14.4205 30.0434C13.3539 30.7969 12.2131 30.855 11.0868 30.1716C10.1179 29.5868 9.62488 28.6949 9.57422 27.5015Z" 
          fill="#3679AE" stroke="white" stroke-width="1"/>
  </g>
  <defs>
    <clipPath id="clip0_4058_11646">
      <rect width="24.6566" height="30.6542" fill="white" transform="translate(0.328125 -0.00292969)"/>
    </clipPath>
  </defs>
</svg>
