<svg width="16" height="17" viewBox="0 0 16 17" fill="none" xmlns="http://www.w3.org/2000/svg">
<g clip-path="url(#clip0_4106_7122)">
<path d="M8.3067 11.6386V9.80297H6.85422V11.6371H4.55965C4.55522 11.5483 4.54831 11.468 4.54782 11.3876C4.54782 10.3276 4.54338 9.26753 4.55374 8.20749C4.5613 8.08199 4.6096 7.96238 4.69129 7.8668C4.87322 7.65578 5.09459 7.47829 5.27307 7.2648C5.3622 7.15568 5.41617 7.02212 5.42788 6.88171C5.44859 6.51439 5.43478 6.1456 5.43478 5.76202H6.29611C6.30301 5.8976 6.30942 6.02481 6.31633 6.15645L7.51785 4.92188C7.62828 5.01752 7.67907 5.05648 7.72344 5.10085C8.63522 6.01396 9.54536 6.92822 10.4539 7.84363C10.5273 7.91808 10.6018 8.03345 10.6018 8.13009C10.6116 9.24781 10.6077 10.365 10.6062 11.4828C10.6026 11.5344 10.5958 11.5858 10.586 11.6366L8.3067 11.6386Z" fill="white"/>
<path d="M3.20379 5.05754C3.20392 5.26753 3.16263 5.47547 3.08227 5.66947C3.00192 5.86347 2.88408 6.03971 2.73551 6.1881C2.58694 6.33649 2.41056 6.45411 2.21647 6.53423C2.02237 6.61434 1.81438 6.65538 1.6044 6.65499C1.39231 6.65468 1.18238 6.61238 0.986714 6.53053C0.791052 6.44868 0.61353 6.3289 0.464385 6.1781C0.315241 6.02731 0.197426 5.84847 0.117735 5.65192C0.0380447 5.45537 -0.00194496 5.24498 7.27161e-05 5.03289C0.00694289 4.60903 0.180521 4.20495 0.483206 3.90816C0.785892 3.61138 1.19331 3.44579 1.61722 3.44728C1.82724 3.44843 2.03496 3.49105 2.22848 3.57268C2.42199 3.6543 2.59748 3.77333 2.74489 3.92294C2.89229 4.07255 3.00871 4.24978 3.08746 4.44449C3.16621 4.63919 3.20575 4.84753 3.20379 5.05754ZM1.60982 5.89571C1.83353 5.89275 2.04718 5.80227 2.20496 5.64365C2.36274 5.48504 2.45211 5.27091 2.45389 5.04719C2.45066 4.82315 2.35945 4.60938 2.19996 4.45201C2.04047 4.29464 1.8255 4.2063 1.60144 4.20606C1.49055 4.20684 1.3809 4.22946 1.27876 4.27262C1.17662 4.31579 1.08398 4.37866 1.00614 4.45764C0.928307 4.53663 0.866796 4.63017 0.825125 4.73294C0.783455 4.8357 0.762442 4.94567 0.763286 5.05656C0.763349 5.16743 0.785331 5.2772 0.827969 5.37955C0.870607 5.4819 0.933058 5.57481 1.01173 5.65293C1.0904 5.73106 1.18375 5.79286 1.28639 5.83478C1.38903 5.87669 1.49895 5.89791 1.60982 5.89719V5.89571Z" fill="white"/>
<path d="M11.9548 5.02872C11.9711 4.14125 12.6973 3.43127 13.5725 3.44754C13.9964 3.45364 14.4008 3.62666 14.6979 3.92905C14.995 4.23144 15.1609 4.6388 15.1595 5.06274C15.1512 5.95416 14.4067 6.67942 13.5251 6.65526C13.3152 6.6516 13.1081 6.60662 12.9156 6.5229C12.723 6.43917 12.5489 6.31833 12.4031 6.16729C12.2572 6.01624 12.1426 5.83795 12.0657 5.64259C11.9888 5.44723 11.9511 5.23864 11.9548 5.02872ZM13.5478 5.89746C13.715 5.89891 13.8789 5.85076 14.0188 5.75909C14.1586 5.66741 14.2681 5.53633 14.3335 5.38242C14.3988 5.22851 14.4171 5.05868 14.3859 4.89439C14.3548 4.73011 14.2756 4.57875 14.1585 4.45945C14.0413 4.34015 13.8914 4.25826 13.7277 4.22415C13.564 4.19003 13.3939 4.20522 13.2388 4.26778C13.0837 4.33035 12.9507 4.43748 12.8565 4.57565C12.7623 4.71381 12.7112 4.8768 12.7097 5.044C12.7081 5.15506 12.7285 5.26533 12.7698 5.36846C12.8111 5.47158 12.8723 5.56552 12.95 5.64486C13.0278 5.7242 13.1204 5.78736 13.2227 5.83072C13.325 5.87407 13.4348 5.89675 13.5459 5.89746H13.5478Z" fill="white"/>
<path d="M11.9551 11.9411C11.9566 11.6236 12.0523 11.3138 12.2301 11.0508C12.4079 10.7878 12.6598 10.5835 12.9538 10.4639C13.2479 10.3443 13.5708 10.3146 13.8817 10.3788C14.1926 10.4429 14.4775 10.5979 14.7002 10.8241C14.9229 11.0504 15.0734 11.3376 15.1326 11.6495C15.1919 11.9614 15.1572 12.2838 15.0329 12.576C14.9086 12.8681 14.7004 13.1167 14.4347 13.2904C14.169 13.464 13.8576 13.5549 13.5402 13.5514C13.1168 13.5471 12.7123 13.3752 12.4152 13.0735C12.1182 12.7717 11.9527 12.3645 11.9551 11.9411ZM13.554 12.7965C13.7212 12.7964 13.8845 12.7468 14.0235 12.6539C14.1624 12.561 14.2707 12.429 14.3347 12.2745C14.3987 12.1201 14.4154 11.9502 14.3829 11.7862C14.3503 11.6223 14.2699 11.4717 14.1518 11.3534C14.0336 11.2351 13.8831 11.1545 13.7192 11.1218C13.5553 11.089 13.3853 11.1056 13.2308 11.1694C13.0763 11.2332 12.9442 11.3413 12.8511 11.4802C12.7581 11.619 12.7083 11.7823 12.708 11.9495C12.7077 12.0606 12.7294 12.1706 12.7717 12.2734C12.814 12.3761 12.8762 12.4694 12.9546 12.5481C13.033 12.6268 13.1262 12.6892 13.2288 12.7319C13.3314 12.7745 13.4414 12.7964 13.5525 12.7965H13.554Z" fill="white"/>
<path d="M7.59024 17.0006C7.27294 17.0025 6.96223 16.9101 6.69747 16.7352C6.4327 16.5604 6.22581 16.3108 6.10298 16.0182C5.98016 15.7257 5.94693 15.4032 6.00752 15.0918C6.0681 14.7803 6.21977 14.4938 6.44331 14.2686C6.66684 14.0434 6.95219 13.8896 7.2632 13.8267C7.57422 13.7638 7.8969 13.7947 8.19037 13.9153C8.48384 14.036 8.73489 14.241 8.91173 14.5045C9.08857 14.768 9.18323 15.078 9.18372 15.3953C9.18373 15.819 9.01623 16.2256 8.71773 16.5263C8.41923 16.827 8.01394 16.9975 7.59024 17.0006ZM7.57594 14.5576C7.35526 14.5638 7.14574 14.656 6.99214 14.8146C6.83855 14.9732 6.75307 15.1855 6.75397 15.4063C6.75488 15.6271 6.84208 15.8387 6.99697 15.9961C7.15185 16.1534 7.36212 16.2439 7.58285 16.2483C7.807 16.2461 8.02122 16.1555 8.17899 15.9962C8.33676 15.837 8.42532 15.6219 8.42544 15.3978C8.42531 15.2866 8.40319 15.1766 8.36035 15.0741C8.31751 14.9716 8.2548 14.8785 8.17583 14.8003C8.09687 14.7221 8.0032 14.6603 7.90024 14.6185C7.79729 14.5767 7.68707 14.5557 7.57594 14.5566V14.5576Z" fill="white"/>
<path d="M7.57798 0C7.89565 2.53366e-06 8.20618 0.0942889 8.47023 0.270917C8.73428 0.447544 8.93997 0.698566 9.06124 0.992187C9.18251 1.28581 9.21392 1.60882 9.15147 1.9203C9.08903 2.23178 8.93555 2.51773 8.71047 2.74191C8.48539 2.9661 8.19884 3.11844 7.88711 3.17963C7.57539 3.24083 7.25251 3.20813 6.95938 3.08568C6.66626 2.96323 6.41606 2.75654 6.2405 2.49178C6.06493 2.22702 5.97189 1.91611 5.97316 1.59844C5.97589 1.17424 6.14604 0.768284 6.4466 0.468925C6.74715 0.169566 7.15378 0.00103127 7.57798 0ZM8.42501 1.60879C8.42647 1.4415 8.37827 1.27753 8.28651 1.13765C8.19475 0.997757 8.06356 0.888232 7.90954 0.822929C7.75552 0.757626 7.58558 0.739482 7.42124 0.770792C7.2569 0.802101 7.10555 0.881458 6.98632 0.998819C6.8671 1.11618 6.78537 1.26627 6.75147 1.4301C6.71758 1.59393 6.73304 1.76413 6.79591 1.91916C6.85878 2.0742 6.96622 2.2071 7.10464 2.30105C7.24307 2.395 7.40625 2.44578 7.57354 2.44696C7.79731 2.44776 8.01233 2.36013 8.1718 2.20315C8.33127 2.04617 8.42228 1.83255 8.42501 1.60879Z" fill="white"/>
<path d="M3.2028 11.9377C3.20599 12.1475 3.16762 12.3558 3.0899 12.5506C3.01217 12.7454 2.89664 12.9229 2.74996 13.0728C2.60328 13.2228 2.42836 13.3422 2.23529 13.4242C2.04223 13.5061 1.83484 13.5491 1.62509 13.5505C1.20082 13.5559 0.791722 13.3928 0.487472 13.0971C0.183223 12.8013 0.00865273 12.397 0.00203087 11.9727C-5.01643e-05 11.7609 0.0396651 11.5507 0.118904 11.3543C0.198143 11.1578 0.315349 10.9789 0.463815 10.8277C0.612281 10.6766 0.789092 10.5562 0.984129 10.4735C1.17917 10.3908 1.3886 10.3474 1.60044 10.3457C1.81023 10.3449 2.01813 10.3854 2.21224 10.465C2.40635 10.5446 2.58287 10.6616 2.73169 10.8095C2.88052 10.9574 2.99873 11.1331 3.07957 11.3267C3.1604 11.5203 3.20228 11.7279 3.2028 11.9377ZM1.59748 12.7971C1.82156 12.7975 2.03683 12.7099 2.19692 12.5532C2.35702 12.3964 2.44912 12.183 2.45339 11.9589C2.4538 11.7351 2.3661 11.5202 2.20924 11.3606C2.05239 11.2009 1.839 11.1095 1.61523 11.106C1.50405 11.1042 1.39363 11.1246 1.29039 11.1659C1.18716 11.2073 1.09319 11.2687 1.01394 11.3467C0.934698 11.4247 0.871766 11.5177 0.828815 11.6203C0.785864 11.7229 0.763751 11.833 0.763765 11.9442C0.761397 12.1678 0.847862 12.3832 1.00418 12.5431C1.16049 12.703 1.37387 12.7944 1.59748 12.7971Z" fill="white"/>
<path d="M0.501752 6.81445L1.20679 7.09006C1.0076 8.01891 1.0076 8.97943 1.20679 9.90828L0.504217 10.1844C0.234456 9.07737 0.233611 7.92186 0.501752 6.81445Z" fill="white"/>
<path d="M14.6562 6.81445C14.9196 7.92316 14.9196 9.07814 14.6562 10.1868L13.9487 9.90927C14.1494 8.98124 14.1494 8.02104 13.9487 7.09302L14.6562 6.81445Z" fill="white"/>
<path d="M5.61367 14.7222C5.57472 14.9746 5.53922 15.2073 5.49879 15.4711C4.40791 15.1472 3.409 14.5701 2.5835 13.7869L3.17513 13.3066C3.87698 13.948 4.70867 14.4308 5.61367 14.7222Z" fill="white"/>
<path d="M11.9805 13.3086L12.5722 13.7849C11.748 14.5692 10.75 15.1477 9.65982 15.473C9.62037 15.2196 9.58389 14.9869 9.54297 14.7246C10.447 14.4314 11.278 13.9486 11.9805 13.3086Z" fill="white"/>
<path d="M11.982 3.69568C11.2798 3.05461 10.4482 2.57159 9.54346 2.27917C9.58142 2.03265 9.61692 1.79994 9.65784 1.5332C10.7686 1.85861 11.7286 2.42413 12.5746 3.21348L11.982 3.69568Z" fill="white"/>
<path d="M5.49634 1.5332L5.61319 2.27769C4.71016 2.57199 3.88032 3.05558 3.17909 3.69617L2.58252 3.21694C3.40711 2.43334 4.40567 1.85633 5.49634 1.5332Z" fill="white"/>
</g>
<defs>
<clipPath id="clip0_4106_7122">
<rect width="15.1593" height="17" fill="white"/>
</clipPath>
</defs>
</svg>
