<svg width="16" height="16" viewBox="0 0 16 16" fill="none" xmlns="http://www.w3.org/2000/svg">
<g clip-path="url(#clip0_4106_7137)">
<path d="M12.0117 11.1437C11.6834 11.1221 11.3502 11.1291 11.0276 11.0742C10.158 10.9255 9.29491 10.7386 8.42531 10.5903C7.49887 10.4316 6.57024 10.4122 5.65211 10.6638C5.57516 10.6849 5.52663 10.6792 5.48029 10.5983C4.73179 9.28666 3.97936 7.97727 3.22168 6.65731C3.27764 6.59793 3.33317 6.53943 3.38869 6.48138C4.13457 5.68615 4.58095 4.72202 4.92809 3.7038C5.17337 2.98378 5.41951 2.26421 5.6849 1.55167C5.7824 1.28821 5.93673 1.04761 6.08451 0.761719C6.1597 1.12283 6.2078 1.43071 6.28912 1.72936C6.58685 2.82896 7.0516 3.86258 7.56226 4.87421C8.39776 6.53108 9.36312 8.10614 10.5117 9.56376C10.9554 10.1276 11.4298 10.6634 12.024 11.0777L12.0117 11.1437Z" fill="white"/>
<path d="M9.70733 7.56515C10.538 6.92255 10.5865 5.94391 10.2254 5.28151C9.89751 4.67981 9.05589 4.10318 7.95457 4.54082C7.78275 4.16608 7.6048 3.7931 7.43823 3.41307C7.12038 2.68514 6.82614 1.94709 6.67924 1.16198C6.6409 0.957502 6.62623 0.749245 6.63552 0.54137C6.65082 0.205773 6.86898 0.064145 7.16016 0.229084C7.44262 0.391129 7.70402 0.587769 7.93839 0.814509C8.69607 1.54904 9.30772 2.4054 9.88658 3.2842C10.9293 4.86762 11.8518 6.52097 12.5291 8.29836C12.738 8.84772 12.8788 9.42567 13.0222 9.99746C13.0686 10.1813 13.0485 10.3933 13.0157 10.5829C12.9781 10.8028 12.8172 10.893 12.613 10.8028C12.4094 10.714 12.2184 10.5986 12.0446 10.4597C11.2913 9.85627 10.2154 8.40304 9.70733 7.56515Z" fill="white"/>
<path d="M2.82107 6.98633L5.03508 10.8424C5.02372 10.8639 5.02109 10.878 5.01322 10.8824C4.40988 11.2343 3.81921 11.6095 3.19926 11.9288C2.16745 12.4601 0.899113 12.0607 0.310634 11.0579C-0.281781 10.0463 -0.0102748 8.72941 0.961635 8.0846C1.55711 7.69007 2.19062 7.35491 2.82107 6.98633Z" fill="white"/>
<path d="M3.02979 12.6015L4.95743 11.5234C4.99415 11.6593 5.02782 11.7957 5.0676 11.9298C5.31456 12.7676 5.74075 13.5409 6.31626 14.1955C6.62799 14.5508 6.69664 14.9599 6.48721 15.3865C6.28348 15.8026 5.92715 16.0023 5.46721 16.0023C5.22398 16.0015 4.99028 15.907 4.81402 15.7384C3.90443 14.9063 3.28039 13.8056 3.03153 12.5944C3.02935 12.5826 3.03372 12.5716 3.02979 12.6015Z" fill="white"/>
<path d="M15.0437 2.79953C15.017 2.8334 14.9768 2.92576 14.9064 2.96711C14.236 3.36531 13.5623 3.75808 12.8852 4.14544C12.7378 4.22988 12.5909 4.18546 12.5184 4.05219C12.4502 3.92684 12.4895 3.78829 12.6338 3.70384C13.3018 3.31209 13.9713 2.92298 14.6423 2.53651C14.8404 2.42303 15.0441 2.53343 15.0437 2.79953Z" fill="white"/>
<path d="M14.574 5.79492C14.9439 5.79492 15.3137 5.79492 15.6836 5.79492C15.8799 5.79492 15.9897 5.87277 15.9993 6.02584C16.0115 6.18902 15.9118 6.29326 15.7107 6.30337C14.9497 6.34091 14.1885 6.37522 13.4272 6.4063C13.2523 6.41377 13.1426 6.31833 13.1356 6.16571C13.1286 6.00692 13.2344 5.9018 13.4163 5.8952C13.8023 5.87761 14.1884 5.86178 14.5744 5.8455L14.574 5.79492Z" fill="white"/>
<path d="M11.1594 2.56505C11.068 2.49423 10.9666 2.45509 10.9461 2.38911C10.9169 2.2936 10.9247 2.19053 10.9679 2.10058C11.1695 1.75662 11.3898 1.42367 11.6036 1.08895C11.7973 0.78502 11.9897 0.477133 12.1842 0.174084C12.2953 0.00122787 12.4295 -0.0431958 12.5646 0.0421329C12.6997 0.127461 12.7181 0.273928 12.6083 0.444585C12.2052 1.08235 11.803 1.72012 11.3938 2.35392C11.3448 2.43441 11.2512 2.48544 11.1594 2.56505Z" fill="white"/>
</g>
<defs>
<clipPath id="clip0_4106_7137">
<rect width="16" height="16" fill="white"/>
</clipPath>
</defs>
</svg>
