<svg width="14" height="14" viewBox="0 0 14 14" fill="none" xmlns="http://www.w3.org/2000/svg">
<path d="M7.14204 0C6.82819 0.0278381 6.51332 0.0453652 6.20151 0.0855759C1.40893 0.700077 -1.26594 6.13367 1.1462 10.3604C1.23872 10.5228 1.23412 10.6507 1.16614 10.8151C0.782429 11.7431 0.405708 12.6729 0.0359736 13.6046C-0.00491877 13.7077 -0.0197424 13.8876 0.0390404 13.9505C0.0978231 14.0134 0.275194 14.0093 0.381514 13.9753C1.35271 13.6598 2.3239 13.3376 3.291 13.002C3.38824 12.9644 3.49265 12.9495 3.5964 12.9584C3.70016 12.9673 3.80056 12.9998 3.89008 13.0535C7.39148 14.913 11.6668 13.4809 13.3413 9.89594C15.481 5.32017 12.1503 0.0149501 7.14204 0ZM7.45589 10.1351H6.67484V9.34639H7.45589V10.1351ZM8.59269 6.71002C8.36022 6.97257 8.11165 7.22016 7.84845 7.45134C7.56681 7.7091 7.39966 8.01429 7.41448 8.39938C7.42368 8.64219 7.32094 8.71643 7.09706 8.6891C6.97163 8.68118 6.84586 8.68032 6.72033 8.68653C6.65082 8.0679 6.79803 7.55857 7.21155 7.13996C7.42215 6.92705 7.64757 6.72755 7.8597 6.51825C8.24869 6.13109 8.33456 5.7527 8.13572 5.33512C7.93126 4.90879 7.42419 4.6335 6.95035 4.69382C6.4392 4.75877 6.08855 5.07221 5.96332 5.6331C5.9122 5.86147 5.81917 5.90942 5.61727 5.86611C5.47823 5.83621 5.33511 5.82539 5.19761 5.80631C5.17818 4.94797 5.84728 4.21593 6.74027 4.1221C7.34752 4.0587 7.93484 4.11643 8.42452 4.54844C9.08647 5.13304 9.1657 6.03881 8.5932 6.71002H8.59269Z" fill="#3679AE"/>
</svg>
