<svg width="17" height="15" viewBox="0 0 17 15" fill="none" xmlns="http://www.w3.org/2000/svg">
<g clip-path="url(#clip0_4106_7146)">
<path d="M14.7132 5.88111C14.592 4.89962 14.3221 3.97376 13.838 3.10942C12.6843 1.0485 10.3428 -0.167778 7.98006 0.0187734C5.57974 0.208278 3.39403 1.68691 2.52746 4.28582C2.44222 4.54227 2.3717 4.80413 2.31132 5.06747C2.25095 5.3308 2.21492 5.58479 2.16622 5.85502C1.74967 5.91458 1.35799 6.04108 1.01045 6.28128C0.598173 6.56521 0.288935 6.96828 0.126905 7.43291C-0.0351238 7.89755 -0.0416527 8.39998 0.108253 8.86843C0.258158 9.33687 0.556828 9.74738 0.961596 10.0413C1.36636 10.3352 1.85653 10.4975 2.36206 10.505C2.46353 10.505 2.565 10.505 2.66647 10.505C3.12056 10.505 3.36105 10.2732 3.36156 9.83707C3.36156 8.88512 3.37171 7.93317 3.35902 6.9822C3.34684 6.04698 3.46607 5.13392 3.82325 4.25826C4.59647 2.36321 6.41485 1.16466 8.49097 1.18287C10.6077 1.20108 12.4337 2.48922 13.1445 4.46302C13.3975 5.16564 13.5261 5.90471 13.525 6.64897C13.525 7.57631 13.5478 8.50464 13.5184 9.43099C13.4803 10.6384 12.9953 11.646 11.9654 12.3671C11.475 12.7148 10.8843 12.9042 10.2769 12.9085C9.84613 12.9139 9.41436 12.9085 8.98361 12.9144C8.84295 12.9137 8.70635 12.9601 8.59702 13.046C8.4877 13.1319 8.4124 13.2518 8.38391 13.3855C8.35486 13.5191 8.37499 13.6583 8.4408 13.779C8.50661 13.8997 8.61395 13.9942 8.74414 14.046C8.78974 14.0675 8.83918 14.0802 8.88975 14.0835C9.65079 14.0835 10.4149 14.1627 11.1612 13.9688C12.9268 13.51 14.0557 12.4198 14.5453 10.7147C14.5793 10.5966 14.6234 10.5592 14.7482 10.5572C16.3297 10.5326 17.1912 9.1839 16.9674 7.81602C16.7777 6.65537 16.0034 6.00022 14.7858 5.89883C14.7612 5.8945 14.737 5.88858 14.7132 5.88111Z" fill="white"/>
<path d="M10.8786 7.55274C10.7063 7.5526 10.5408 7.61834 10.4181 7.73572C10.2954 7.8531 10.2254 8.01266 10.2231 8.17983C10.2299 8.34698 10.3031 8.50509 10.4274 8.62106C10.5516 8.73703 10.7173 8.80187 10.8898 8.80199C11.0589 8.79699 11.2197 8.72984 11.3397 8.61415C11.4597 8.49846 11.5299 8.34286 11.5361 8.17884C11.5336 8.01151 11.4631 7.8519 11.34 7.73467C11.2169 7.61745 11.0511 7.55207 10.8786 7.55274Z" fill="white"/>
<path d="M8.44053 7.54297C8.35517 7.54393 8.27084 7.56128 8.19243 7.59402C8.11402 7.62677 8.04307 7.67426 7.98368 7.73375C7.92429 7.79325 7.87764 7.86357 7.84641 7.94065C7.81519 8.01773 7.80001 8.10005 7.80176 8.18285C7.80304 8.34695 7.87022 8.5041 7.98902 8.62091C8.10782 8.73773 8.26888 8.80501 8.43799 8.80846C8.61041 8.80794 8.77556 8.74103 8.89715 8.62242C9.01873 8.50382 9.0868 8.34324 9.0864 8.17596C9.0872 8.09316 9.07109 8.01102 9.039 7.93428C9.00691 7.85755 8.95947 7.78774 8.89942 7.72889C8.83937 7.67004 8.76791 7.62332 8.68914 7.5914C8.61038 7.55949 8.52588 7.54303 8.44053 7.54297Z" fill="white"/>
<path d="M5.3657 8.17009C5.36442 8.25306 5.38004 8.33546 5.41166 8.41256C5.44327 8.48966 5.49026 8.55995 5.54994 8.61939C5.60961 8.67884 5.68079 8.72628 5.7594 8.75898C5.838 8.79168 5.92249 8.80901 6.00801 8.80998C6.0935 8.80889 6.17793 8.79147 6.25647 8.75872C6.33502 8.72597 6.40615 8.67853 6.46579 8.61911C6.52544 8.55969 6.57243 8.48945 6.6041 8.41241C6.63576 8.33536 6.65147 8.25303 6.65033 8.17009C6.6505 8.00593 6.58425 7.84827 6.46585 7.731C6.34744 7.61373 6.18632 7.54623 6.01715 7.543C5.93178 7.54215 5.84709 7.55776 5.76799 7.58891C5.68889 7.62007 5.61696 7.66615 5.55635 7.72448C5.49575 7.78281 5.4477 7.85224 5.41497 7.92874C5.38224 8.00523 5.36549 8.08727 5.3657 8.17009Z" fill="white"/>
</g>
<defs>
<clipPath id="clip0_4106_7146">
<rect width="17.0001" height="14.0977" fill="white" transform="matrix(-1 0 0 1 17 0)"/>
</clipPath>
</defs>
</svg>
