<svg width="13" height="13" viewBox="0 0 13 13" fill="none" xmlns="http://www.w3.org/2000/svg">
<g clip-path="url(#clip0_4106_7047)">
<path d="M13.0002 6.49046C13.0063 10.0679 10.0881 12.995 6.51 13.0028C2.93191 13.0107 0.00674879 10.0961 -0.00193379 6.51434C-0.0106164 2.93254 2.90673 0.00978364 6.487 0.00196879C10.0673 -0.00584606 12.9942 2.9117 13.0002 6.49046ZM10.4124 6.50957C10.4124 4.34833 8.67371 2.59042 6.53301 2.58868C4.34153 2.58651 2.59199 4.31794 2.59112 6.4896C2.59025 8.66126 4.33415 10.4113 6.49134 10.4113C8.66068 10.4113 10.4124 8.66777 10.4124 6.50957Z" fill="white"/>
<path d="M8.22827 8.92204C7.14295 9.75432 5.42119 9.70352 4.33066 8.55257C3.24837 7.4103 3.31132 5.72837 4.08234 4.77539L8.22827 8.92204Z" fill="white"/>
<path d="M8.91405 8.23325L4.77637 4.09356C5.60686 3.36591 7.3017 3.19876 8.49729 4.27503C9.71285 5.36998 9.76538 7.14612 8.91405 8.23325Z" fill="white"/>
</g>
<defs>
<clipPath id="clip0_4106_7047">
<rect width="13" height="13" fill="white"/>
</clipPath>
</defs>
</svg>
