<svg width="13" height="14" viewBox="0 0 13 14" fill="none" xmlns="http://www.w3.org/2000/svg">
<g clip-path="url(#clip0_4106_7097)">
<path d="M5.4897 1.77548C5.0391 1.77548 4.58899 1.77548 4.13839 1.77548C3.60037 1.77313 3.19973 1.39225 3.20118 0.887857C3.20118 0.393795 3.59797 0.00868836 4.12831 0.00493123C5.02918 -0.00164374 5.92989 -0.00164374 6.83043 0.00493123C7.37086 0.00821872 7.7715 0.396142 7.76717 0.897249C7.76285 1.39836 7.3651 1.77595 6.82275 1.77783C6.3784 1.77689 5.93405 1.77548 5.4897 1.77548Z" fill="white"/>
<path d="M10.9548 2.22575C10.9505 1.47714 10.3812 0.91404 9.6179 0.889149C9.30949 0.879286 9.00013 0.889149 8.69173 0.889149C8.68596 0.938931 8.6826 0.961943 8.68116 0.983077C8.62447 1.92518 7.94186 2.6179 6.9739 2.65171C6.03235 2.68412 5.08841 2.68318 4.14639 2.66204C3.29083 2.64232 2.63944 2.17925 2.39493 1.46305C2.33296 1.28271 2.31134 1.08734 2.27147 0.903239C1.91359 0.903239 1.54226 0.859562 1.18581 0.912631C0.459482 1.02018 0.00264208 1.59643 0.0021617 2.35302C-0.000720568 5.25258 -0.000720568 8.1523 0.0021617 11.0522C-0.000744577 11.1928 0.0154084 11.3332 0.0501995 11.4697C0.2289 12.1 0.756836 12.4766 1.46059 12.479C2.52943 12.4822 3.59827 12.479 4.66712 12.479H5.19553C5.19226 12.4523 5.18631 12.426 5.17776 12.4005C4.93216 11.8963 4.78551 11.3515 4.74542 10.7943C4.73725 10.6769 4.66135 10.6882 4.58257 10.6882C4.14398 10.6882 3.70588 10.6882 3.26729 10.6882C3.18999 10.69 3.11305 10.6774 3.04056 10.6511C2.9481 10.6138 2.87171 10.5464 2.82441 10.4602C2.77711 10.3741 2.76182 10.2746 2.78115 10.1786C2.82535 9.96168 2.9978 9.81703 3.24424 9.81139C3.55024 9.80388 3.85672 9.81139 4.16272 9.81139H4.77568C4.87125 9.18632 5.09335 8.58616 5.429 8.04601C5.36895 8.04225 5.33965 8.03897 5.30986 8.03897C4.65511 8.03897 4.00083 8.04178 3.34608 8.03521C3.22701 8.03618 3.10916 8.01182 3.00068 7.96382C2.91273 7.9175 2.8439 7.84283 2.80589 7.7525C2.76788 7.66218 2.76304 7.56177 2.7922 7.46835C2.85321 7.25889 3.02086 7.13538 3.26393 7.13491C4.09835 7.13491 4.93325 7.12457 5.76766 7.13913C6.05589 7.1443 6.30665 7.11236 6.51033 6.88694C6.59536 6.79301 6.71833 6.72914 6.8293 6.65963C7.77372 6.06835 8.80366 5.82367 9.91813 5.96221C10.2606 6.00495 10.5974 6.0923 10.9433 6.1604C10.9491 6.12369 10.9527 6.08668 10.9543 6.04956C10.9567 4.77308 10.962 3.49895 10.9548 2.22575ZM8.18061 5.13329C8.07925 5.29579 7.9236 5.34792 7.73626 5.34698C6.99215 5.34698 6.24708 5.34698 5.50297 5.34698C4.75887 5.34698 4.0138 5.34933 3.27018 5.34698C2.91133 5.34698 2.68892 5.05205 2.80421 4.7449C2.87627 4.55423 3.0492 4.45044 3.30765 4.45044C4.21428 4.45044 5.12075 4.45044 6.02707 4.45044C6.60352 4.45044 7.17998 4.44621 7.75643 4.45044C8.1513 4.45373 8.37564 4.82098 8.18061 5.13329Z" fill="white"/>
<path d="M9.34641 6.84376C8.62203 6.84246 7.91353 7.05131 7.31062 7.44387C6.70772 7.83643 6.2375 8.39505 5.9595 9.04901C5.6815 9.70298 5.60821 10.4229 5.74893 11.1176C5.88964 11.8123 6.23802 12.4506 6.74997 12.9516C7.26192 13.4526 7.91441 13.7939 8.62485 13.9322C9.33529 14.0705 10.0717 13.9996 10.7409 13.7285C11.4101 13.4574 11.982 12.9983 12.3842 12.4093C12.7864 11.8202 13.0007 11.1278 13.0002 10.4196C12.9999 9.47196 12.615 8.56314 11.93 7.8927C11.2449 7.22226 10.3157 6.845 9.34641 6.84376ZM10.899 11.6858C10.8413 11.8459 10.7136 11.9675 10.5406 11.9643C10.409 11.9643 10.2438 11.9234 10.1515 11.8398C9.76482 11.4894 9.3906 11.1241 9.03272 10.7455C8.94241 10.6516 8.89533 10.4858 8.88861 10.3501C8.88188 10.2144 8.87804 10.0866 8.87756 9.95466C8.87756 9.73487 8.88188 9.5146 8.88188 9.29716C8.88188 9.12715 8.88188 8.95714 8.88188 8.78713C8.88188 8.61712 8.88188 8.44711 8.88188 8.2771C8.88188 7.94225 9.05722 7.73748 9.33632 7.73607C9.61542 7.73467 9.79364 7.94459 9.79364 8.27475C9.79364 8.88529 9.79028 9.49582 9.79796 10.104C9.80256 10.1878 9.83648 10.2676 9.89404 10.3299C10.1885 10.6305 10.494 10.9207 10.7933 11.2166C10.8566 11.2757 10.9005 11.3519 10.9193 11.4354C10.9381 11.519 10.931 11.6061 10.899 11.6858Z" fill="white"/>
</g>
<defs>
<clipPath id="clip0_4106_7097">
<rect width="13" height="14" fill="white"/>
</clipPath>
</defs>
</svg>
