<svg width="18" height="18" viewBox="0 0 18 18" fill="none" xmlns="http://www.w3.org/2000/svg">
<g clip-path="url(#clip0_7206_10077)">
<path d="M15.8594 3.82812H13.344L12.0312 1.64062H5.46875L4.15625 3.82812H1.64062C1.09375 3.82812 0 4.375 0 5.4518V14.2188C0 15.1246 0.820313 15.8594 1.5266 15.8594H15.8936C16.6113 15.8594 17.5 15.0905 17.5 14.236V5.46875C17.5 4.92188 16.9531 3.82812 15.8594 3.82812ZM16.4062 14.236C16.4062 14.4517 16.0565 14.7536 15.8936 14.7659H1.5299C1.4033 14.7555 1.09377 14.5089 1.09377 14.2188V5.4518C1.09377 5.10535 1.55916 4.93062 1.64064 4.92188H4.7756L6.0881 2.73438H11.4483L12.4245 4.39115L12.7252 4.92188H15.8594C16.2449 4.92188 16.4008 5.42555 16.4062 5.46875V14.236ZM8.75002 5.46875C6.6358 5.46875 4.92189 7.18266 4.92189 9.29688C4.92189 11.4111 6.6358 13.125 8.75002 13.125C10.8642 13.125 12.5781 11.4111 12.5781 9.29688C12.5781 7.18266 10.8642 5.46875 8.75002 5.46875ZM8.75002 12.0312C7.24228 12.0312 6.01564 10.8046 6.01564 9.29688C6.01564 7.78914 7.24228 6.5625 8.75002 6.5625C10.2578 6.5625 11.4844 7.78914 11.4844 9.29688C11.4844 10.8046 10.2578 12.0312 8.75002 12.0312Z" fill="white"/>
</g>
<defs>
<clipPath id="clip0_7206_10077">
<rect width="17.5" height="17.5" fill="white"/>
</clipPath>
</defs>
</svg>
