<svg width="16" height="17" viewBox="0 0 16 17" fill="none" xmlns="http://www.w3.org/2000/svg">
<g clip-path="url(#clip0_4106_7273)">
<path d="M6.03953 0H11.0946C11.5576 0 11.8871 0.210612 12.0358 0.609168C12.0599 0.683829 12.071 0.7621 12.0687 0.840555C12.0687 1.6553 12.0687 2.47067 12.0687 3.28667C12.0687 3.75889 11.664 4.12628 11.1492 4.12722H0.932706C0.398118 4.12722 0 3.757 0 3.26967V0.814111C0 0.4505 0.326589 0.0906666 0.718118 0.0264443C0.813274 0.0102637 0.909606 0.00204934 1.00612 0.00188785L6.03953 0ZM9.99247 2.27233L10.6353 2.60856C10.6745 2.63545 10.7223 2.6465 10.7693 2.63949C10.8162 2.63249 10.8588 2.60794 10.8885 2.57078C10.9384 2.49617 10.9045 2.40739 10.8019 2.34883C10.7228 2.30444 10.64 2.26478 10.56 2.22228L10.1591 2.00978L10.2532 1.96067L10.8104 1.66978C10.8772 1.63389 10.9327 1.58006 10.9045 1.51206C10.8787 1.45559 10.8331 1.41056 10.7765 1.3855C10.7258 1.37777 10.6741 1.38849 10.6306 1.41572C10.4216 1.52055 10.2165 1.63011 9.99247 1.74722V1.63578C9.99247 1.44689 9.99247 1.25139 9.99247 1.05872C9.99126 1.01403 9.97283 0.971555 9.94107 0.940208C9.9093 0.908861 9.86667 0.891082 9.82212 0.89061C9.80086 0.891094 9.77991 0.895827 9.76049 0.904529C9.74108 0.913231 9.72359 0.92573 9.70904 0.941294C9.6945 0.956858 9.68319 0.975174 9.67577 0.995174C9.66836 1.01517 9.665 1.03646 9.66588 1.05778C9.66588 1.20417 9.66588 1.3515 9.66588 1.49789V1.74722C9.61506 1.72361 9.584 1.71039 9.55388 1.69433L9.02306 1.41761C8.90259 1.35528 8.81882 1.37133 8.75859 1.46672C8.70777 1.547 8.73882 1.61878 8.85271 1.67922C9.01082 1.76233 9.16988 1.84356 9.32329 1.92572C9.37412 1.95217 9.42212 1.98239 9.48141 2.02017C9.26024 2.13633 9.05506 2.24211 8.85177 2.34978C8.72659 2.41589 8.69835 2.48105 8.75765 2.56983C8.81694 2.65861 8.89788 2.67278 9.01553 2.61139L9.39671 2.41211C9.47859 2.36961 9.56141 2.32995 9.66118 2.27989V2.39606C9.66118 2.58494 9.66118 2.76817 9.66118 2.95422C9.66005 2.97815 9.66381 3.00205 9.67222 3.02446C9.68064 3.04688 9.69354 3.06733 9.71012 3.08456C9.75808 3.1155 9.8156 3.12792 9.872 3.1195C9.90599 3.11394 9.9367 3.09585 9.95811 3.06878C9.97951 3.04171 9.99009 3.00759 9.98777 2.97311C9.98871 2.74172 9.98965 2.51789 9.98965 2.27233H9.99247ZM4.608 1.74722L4.49129 1.68867L3.92094 1.39589C3.90333 1.38573 3.88386 1.37921 3.8637 1.3767C3.84353 1.3742 3.82307 1.37576 3.80352 1.38131C3.78397 1.38685 3.76571 1.39626 3.74984 1.40898C3.73396 1.4217 3.72078 1.43748 3.71106 1.45539C3.69985 1.47014 3.69203 1.4872 3.68816 1.50534C3.6843 1.52348 3.68449 1.54226 3.68872 1.56032C3.69295 1.57838 3.70111 1.59527 3.71263 1.60979C3.72414 1.62431 3.73871 1.63608 3.75529 1.64428C3.82024 1.68489 3.88894 1.71983 3.95671 1.75572L4.44047 2.01072C4.21365 2.12972 4.00565 2.23644 3.80047 2.346C3.69506 2.40267 3.66024 2.4905 3.70635 2.56511C3.75247 2.63972 3.856 2.65956 3.968 2.60572L4.53271 2.31011C4.55563 2.29948 4.57921 2.29033 4.60329 2.28272C4.60329 2.516 4.60329 2.73794 4.60329 2.95894C4.60239 2.98115 4.60603 3.0033 4.614 3.02404C4.62196 3.04477 4.63408 3.06365 4.64961 3.07949C4.66514 3.09534 4.68374 3.10782 4.70426 3.11616C4.72479 3.12451 4.7468 3.12854 4.76894 3.128C4.81173 3.12654 4.85228 3.10851 4.88211 3.0777C4.91194 3.04688 4.92872 3.00568 4.92894 2.96272C4.92894 2.80217 4.92894 2.64256 4.92894 2.48295V2.278C4.98447 2.3035 5.02306 2.31767 5.05318 2.33467L5.57365 2.60761C5.68282 2.66428 5.77412 2.65011 5.82682 2.57078C5.87953 2.49144 5.85788 2.40833 5.74024 2.346C5.56424 2.25156 5.38635 2.16183 5.21035 2.07022C5.17835 2.05322 5.14918 2.03339 5.10871 2.00883C5.14824 1.98617 5.17177 1.97106 5.19624 1.95783C5.38447 1.86339 5.57271 1.76328 5.76094 1.66033C5.86071 1.6065 5.87765 1.53567 5.82494 1.45444C5.80114 1.417 5.7636 1.39046 5.72045 1.38056C5.6773 1.37067 5.63201 1.37821 5.59435 1.40156C5.53412 1.43083 5.47577 1.46294 5.41741 1.496L4.93553 1.74722V1.63011C4.93553 1.44783 4.93553 1.26461 4.93553 1.08233C4.93553 0.963333 4.87247 0.893444 4.77271 0.893444C4.67294 0.893444 4.60894 0.968055 4.608 1.08233V1.74722ZM7.62918 2.01261L7.74306 1.95122C7.92565 1.85678 8.10918 1.76233 8.28988 1.66789C8.384 1.615 8.41224 1.53094 8.36424 1.46011C8.33684 1.42375 8.29726 1.39857 8.25281 1.38919C8.20835 1.37982 8.16202 1.3869 8.12235 1.40911C8.03765 1.45161 7.95577 1.49789 7.87106 1.54133L7.46165 1.74722V1.61972C7.46165 1.43744 7.46165 1.25517 7.46165 1.07195C7.46319 1.04884 7.46001 1.02567 7.4523 1.00385C7.4446 0.982023 7.43254 0.962005 7.41685 0.945027C7.40116 0.928048 7.38219 0.914465 7.36108 0.905108C7.33998 0.895751 7.31719 0.890816 7.29412 0.89061C7.2485 0.895435 7.2062 0.916812 7.17518 0.950725C7.14416 0.984637 7.12654 1.02875 7.12565 1.07478C7.12565 1.21833 7.12565 1.35811 7.12565 1.5045V1.74722L6.49318 1.41572C6.45293 1.38734 6.40321 1.3759 6.35466 1.38384C6.30611 1.39179 6.26259 1.41848 6.23341 1.45822C6.18071 1.53283 6.21365 1.61594 6.32753 1.67639C6.40941 1.72078 6.49506 1.76139 6.57882 1.80578L6.96377 2.01072C6.92047 2.03622 6.89506 2.05228 6.86965 2.06644C6.68706 2.16089 6.50259 2.25533 6.32188 2.3545C6.22024 2.40928 6.18918 2.49522 6.23529 2.567C6.26283 2.60616 6.30456 2.63294 6.35153 2.64159C6.39851 2.65024 6.44699 2.64008 6.48659 2.61328C6.56847 2.57267 6.64753 2.52828 6.72847 2.48672C6.85647 2.41967 6.98541 2.3545 7.1313 2.27894V2.40833C7.1313 2.59061 7.1313 2.77289 7.1313 2.95611C7.13066 2.97924 7.13468 3.00226 7.14313 3.02378C7.15157 3.04531 7.16425 3.06491 7.18043 3.0814C7.1966 3.09789 7.21592 3.11094 7.23723 3.11976C7.25855 3.12858 7.28142 3.13299 7.30447 3.13272C7.32675 3.13277 7.34881 3.12822 7.36927 3.11937C7.38973 3.11052 7.40816 3.09754 7.42343 3.08125C7.43869 3.06496 7.45046 3.0457 7.458 3.02467C7.46555 3.00363 7.46871 2.98126 7.46729 2.95894C7.46729 2.81539 7.46729 2.67561 7.46729 2.52828V2.28178C7.51812 2.30539 7.54918 2.31767 7.57929 2.33372C7.76753 2.42817 7.95012 2.52922 8.13741 2.62461C8.17407 2.64646 8.21758 2.65363 8.25928 2.6447C8.30097 2.63578 8.33778 2.6114 8.36235 2.57644C8.41506 2.50561 8.39812 2.43194 8.31153 2.37244C8.27328 2.34818 8.23368 2.32611 8.19294 2.30633L7.62918 2.01261ZM2.08565 2.27328V2.38944C2.08565 2.57833 2.08565 2.76722 2.08565 2.95611C2.08489 2.97822 2.08852 3.00026 2.09632 3.02095C2.10412 3.04165 2.11594 3.06058 2.13108 3.07666C2.14623 3.09274 2.1644 3.10563 2.18455 3.11461C2.2047 3.12358 2.22643 3.12846 2.24847 3.12894C2.27058 3.1291 2.29249 3.12473 2.31286 3.1161C2.33323 3.10748 2.35164 3.09479 2.36697 3.07879C2.38229 3.0628 2.39421 3.04384 2.40199 3.02307C2.40977 3.00231 2.41326 2.98016 2.41224 2.958C2.41224 2.7795 2.41224 2.60006 2.41224 2.42061V2.27233C2.64094 2.39228 2.84706 2.50183 3.05506 2.60667C3.09674 2.63226 3.14595 2.6426 3.19435 2.63594C3.24887 2.61615 3.29414 2.57678 3.32141 2.52544C3.35341 2.44989 3.30541 2.38944 3.22729 2.34883C3.01365 2.24022 2.80188 2.12878 2.57788 2.01261L2.672 1.95972C2.85271 1.86528 3.03341 1.77083 3.21129 1.67639C3.25271 1.65467 3.30541 1.61878 3.31294 1.58194C3.32121 1.52338 3.30672 1.46386 3.27247 1.41572C3.24593 1.38891 3.21058 1.37269 3.17301 1.37009C3.13544 1.36748 3.0982 1.37866 3.06824 1.40156C2.85647 1.51394 2.64377 1.62444 2.41788 1.74344C2.41788 1.69622 2.41788 1.66505 2.41224 1.63389C2.41224 1.43839 2.41224 1.24289 2.41224 1.04739C2.41087 1.00597 2.39406 0.966584 2.36512 0.937023C2.33619 0.907461 2.29724 0.889886 2.256 0.887777C2.21312 0.885978 2.17126 0.901241 2.13954 0.930247C2.10781 0.959252 2.08878 0.999656 2.08659 1.04267C2.08659 1.18339 2.08659 1.326 2.08659 1.46389V1.74722C2.03671 1.72456 2.00471 1.71228 1.97553 1.69622C1.79859 1.60178 1.62353 1.50733 1.44565 1.4195C1.4045 1.39339 1.35561 1.38238 1.30729 1.38833C1.25176 1.411 1.17459 1.46294 1.17271 1.5045C1.17493 1.53726 1.18456 1.56909 1.20087 1.59756C1.21718 1.62604 1.23973 1.65041 1.26682 1.66883C1.44565 1.7765 1.63671 1.86717 1.82212 1.96444C1.84753 1.97861 1.87012 1.99656 1.904 2.01828L1.28094 2.34411C1.16424 2.4055 1.13224 2.48294 1.18682 2.567C1.24141 2.65105 1.33365 2.66144 1.44847 2.60478L1.67059 2.48672C1.80141 2.41778 1.93412 2.35072 2.08565 2.27233V2.27328Z" fill="white"/>
<path d="M7.84678 13.1465L8.41713 13.8077L9.19172 14.7087C9.21133 14.7369 9.23636 14.761 9.26534 14.7794C9.29433 14.7978 9.32668 14.8102 9.36051 14.8159C9.39435 14.8217 9.42898 14.8206 9.46238 14.8127C9.49577 14.8048 9.52727 14.7903 9.55502 14.77C9.67266 14.6888 9.68396 14.5566 9.57949 14.4338L7.37996 11.8791C6.90937 11.3304 6.43219 10.7826 5.96349 10.232C5.68113 9.90332 5.85619 9.48777 6.30137 9.42166C6.3974 9.40679 6.49566 9.41805 6.58588 9.45426C6.6761 9.49047 6.75499 9.55032 6.81431 9.62755C6.96019 9.80133 7.1089 9.97227 7.25666 10.1442L9.75172 13.037C9.77149 13.0606 9.79031 13.0842 9.81196 13.1059C9.85417 13.1542 9.91283 13.1848 9.97641 13.1918C10.04 13.1988 10.1039 13.1816 10.1555 13.1437C10.1823 13.1294 10.2053 13.1089 10.2228 13.084C10.2402 13.0591 10.2516 13.0304 10.256 13.0003C10.2604 12.9701 10.2577 12.9394 10.2481 12.9105C10.2385 12.8816 10.2222 12.8554 10.2007 12.8339C9.99925 12.5931 9.79313 12.3551 9.58796 12.1162C9.38278 11.8772 9.15784 11.6194 8.94513 11.37C8.7569 11.1443 8.7729 10.8515 8.9856 10.6806C9.10104 10.5889 9.24696 10.5448 9.39366 10.5573C9.54035 10.5697 9.67681 10.6378 9.77525 10.7477C10.1762 11.2186 10.5768 11.6908 10.9771 12.1643C11.0107 12.2073 11.0496 12.2457 11.0929 12.2786C11.1396 12.3117 11.1961 12.3277 11.2531 12.3241C11.3101 12.3205 11.3642 12.2975 11.4063 12.2588C11.4461 12.2254 11.4715 12.178 11.4775 12.1263C11.4835 12.0747 11.4694 12.0227 11.4383 11.9811C11.3263 11.8375 11.2068 11.6978 11.0891 11.5599C10.852 11.2765 10.6091 10.9998 10.3795 10.7099C10.1687 10.4473 10.2854 10.0941 10.611 9.96849C10.7228 9.92861 10.8439 9.9235 10.9586 9.95383C11.0733 9.98416 11.1762 10.0485 11.2538 10.1385C11.4242 10.3359 11.5898 10.537 11.7574 10.7363C11.9249 10.9356 12.0877 11.1292 12.2552 11.3247C12.372 11.4598 12.4962 11.4815 12.6251 11.3946C12.7541 11.3077 12.7531 11.184 12.644 11.0499C12.4134 10.7665 12.1837 10.4832 11.9494 10.1999C11.828 10.0535 11.7273 9.90805 11.7611 9.71066C11.7813 9.60778 11.8332 9.5139 11.9096 9.44235C11.986 9.3708 12.0829 9.32523 12.1865 9.3121C12.2892 9.29343 12.395 9.30278 12.4929 9.33916C12.5907 9.37555 12.677 9.43763 12.7428 9.51894C12.9818 9.80227 13.2237 10.078 13.4647 10.3567C13.971 10.9441 14.4755 11.5325 14.9837 12.118C15.204 12.373 15.4195 12.6299 15.4985 12.9539C15.5404 13.1079 15.5628 13.2665 15.5654 13.4261C15.5597 13.6461 15.6394 13.8597 15.7875 14.022C15.8317 14.073 15.8741 14.1259 15.9164 14.1788C16.0491 14.3441 16.0322 14.5065 15.8552 14.634C15.412 14.9533 14.9649 15.2687 14.5188 15.586L12.7014 16.878C12.4491 17.0565 12.2816 17.0452 12.0971 16.811C11.876 16.5277 11.555 16.402 11.2171 16.283C10.5348 16.0441 9.8336 15.8458 9.20301 15.4954C8.71066 15.2337 8.25495 14.9079 7.84772 14.5264C7.65949 14.3479 7.51643 14.1486 7.49196 13.8955C7.46278 13.597 7.60678 13.3647 7.84678 13.1465Z" fill="white"/>
<path d="M8.51098 6.01547C8.51098 5.7548 8.52322 5.49319 8.51098 5.23347C8.49687 5.00586 8.68887 4.80847 8.97216 4.80752C9.55569 4.80374 10.1395 4.80374 10.7237 4.80752C11.0164 4.80752 11.1943 4.9813 11.1943 5.24952V6.81447C11.1943 7.07513 11.0126 7.23852 10.7237 7.23852C10.1467 7.23852 9.56981 7.23191 8.99287 7.23852C8.72557 7.24419 8.49592 7.06285 8.51287 6.80313C8.52981 6.54341 8.51192 6.28085 8.51098 6.01547Z" fill="white"/>
<path d="M4.70198 6.02686C4.70198 5.76242 4.71422 5.49703 4.70198 5.23447C4.68693 5.00592 4.88269 4.80853 5.16316 4.80664C5.74355 4.80664 6.32426 4.80664 6.90528 4.80664C7.20551 4.80664 7.38245 4.97758 7.38245 5.25147C7.38245 5.76997 7.38245 6.29036 7.38245 6.80697C7.38245 7.07803 7.20457 7.23764 6.90716 7.23764C6.33022 7.23764 5.75234 7.23197 5.1754 7.23764C4.91281 7.23764 4.68693 7.0667 4.70481 6.80414C4.72269 6.54158 4.70198 6.28753 4.70198 6.02686Z" fill="white"/>
<path d="M0.892155 9.49909C0.892155 9.22803 0.902508 8.95698 0.892155 8.68687C0.882743 8.48192 1.08039 8.28264 1.33168 8.28548C1.89074 8.29114 2.4498 8.28548 3.00886 8.28548C3.11822 8.28269 3.22729 8.29801 3.33168 8.33081C3.40187 8.35309 3.46295 8.39765 3.50573 8.45778C3.5485 8.51791 3.57066 8.59035 3.56886 8.6642C3.57451 9.21512 3.57451 9.76637 3.56886 10.3179C3.56886 10.5455 3.38063 10.7118 3.11521 10.7136C2.5229 10.7181 1.93121 10.7181 1.34016 10.7136C1.07192 10.7136 0.879919 10.5304 0.892155 10.2877C0.90439 10.028 0.892155 9.76353 0.892155 9.49909Z" fill="white"/>
<path d="M0.892374 12.9687V12.1565C0.892374 11.9232 1.06837 11.7617 1.32155 11.7617H3.12861C3.36955 11.7617 3.56249 11.9166 3.56532 12.1395C3.57159 12.6973 3.57159 13.2552 3.56532 13.8131C3.56532 14.0341 3.36484 14.1908 3.1192 14.1908C2.53096 14.1908 1.94273 14.1842 1.35449 14.1908C1.11826 14.1908 0.870727 14.0284 0.88861 13.763C0.906492 13.4976 0.892374 13.2322 0.892374 12.9687Z" fill="white"/>
<path d="M0.892395 6.02163C0.892395 5.75719 0.902748 5.49274 0.892395 5.22924C0.88016 5.00446 1.06369 4.81086 1.33569 4.80897C1.93051 4.80424 2.52534 4.80236 3.12393 4.80897C3.40157 4.80897 3.57287 4.98369 3.57287 5.23775C3.57287 5.766 3.57287 6.29426 3.57287 6.82252C3.57287 7.06808 3.39028 7.23713 3.12298 7.23808C2.52816 7.23808 1.9324 7.23808 1.33475 7.23808C1.0844 7.23808 0.880161 7.04919 0.890514 6.83008C0.904631 6.56469 0.892395 6.29269 0.892395 6.02163Z" fill="white"/>
<path d="M6.02242 14.1847H5.15183C4.89113 14.1847 4.72077 14.0449 4.70007 13.8069C4.69065 13.7068 4.69254 13.6058 4.69254 13.5047C4.69254 13.0391 4.69254 12.5725 4.70383 12.1069C4.71339 12.0083 4.76053 11.9172 4.83541 11.8526C4.91028 11.7881 5.00712 11.755 5.10571 11.7603C5.59324 11.7603 6.07983 11.7603 6.56736 11.7603C6.61718 11.7624 6.66446 11.7829 6.70007 11.8179C6.90995 12.0522 7.11418 12.2902 7.31936 12.53C7.36301 12.6019 7.3861 12.6844 7.3861 12.7685C7.3861 12.8527 7.36301 12.9352 7.31936 13.007C7.08124 13.2903 6.95513 13.601 6.99748 13.9618C6.99907 13.978 7.00158 13.9941 7.00501 14.01C7.04171 14.1819 7.04171 14.1819 6.85254 14.1819H6.02524L6.02242 14.1847Z" fill="white"/>
<path d="M9.79212 10.1948C9.30741 10.0116 8.8933 10.107 8.52436 10.4593C8.51871 10.3951 8.51212 10.3507 8.51212 10.3072C8.51212 9.7755 8.52153 9.24378 8.50647 8.713C8.50083 8.49295 8.68718 8.27856 8.98553 8.28328C9.53706 8.29272 10.0895 8.28328 10.6411 8.28989C10.7502 8.28791 10.8588 8.30518 10.962 8.34089C11.0277 8.36487 11.0846 8.40852 11.1248 8.46595C11.165 8.52337 11.1867 8.59181 11.1869 8.662C11.1945 8.94533 11.1869 9.22867 11.1869 9.512C11.1854 9.52071 11.1822 9.52904 11.1775 9.53656C10.5046 9.38356 10.0453 9.60645 9.79212 10.1948Z" fill="white"/>
<path d="M7.36183 9.53719C7.29406 9.45975 7.231 9.38608 7.16606 9.3143C7.05001 9.18 6.90131 9.07811 6.73441 9.01853C6.56751 8.95895 6.38809 8.94371 6.21359 8.9743C5.80606 9.03474 5.51618 9.24913 5.38441 9.61558C5.32928 9.75949 5.31522 9.91597 5.34382 10.0675C5.37242 10.2189 5.44253 10.3594 5.5463 10.4731C5.60841 10.5477 5.67147 10.6214 5.7543 10.7196C5.66771 10.7196 5.60935 10.7196 5.551 10.7196C5.37218 10.713 5.19241 10.7196 5.01547 10.696C4.93329 10.6868 4.85697 10.6488 4.79998 10.5887C4.74299 10.5286 4.70898 10.4502 4.70394 10.3674C4.6983 9.78684 4.6983 9.20632 4.70394 8.6258C4.71456 8.54019 4.75405 8.4608 4.81587 8.40083C4.87768 8.34087 4.95808 8.30394 5.04371 8.29619C5.12945 8.28861 5.21554 8.28577 5.30159 8.28769H6.91477C7.17641 8.28769 7.36841 8.4388 7.37594 8.67208C7.38535 8.9488 7.37594 9.22647 7.37594 9.50413C7.37783 9.51075 7.3703 9.51925 7.36183 9.53719Z" fill="white"/>
</g>
<defs>
<clipPath id="clip0_4106_7273">
<rect width="16" height="17" fill="white"/>
</clipPath>
</defs>
</svg>
