<svg width="28" height="24" viewBox="0 0 28 24" fill="black" xmlns="http://www.w3.org/2000/svg">
<path d="M25.8462 0H2.15385C1.58261 0 1.03477 0.229869 0.630847 0.63904C0.226922 1.04821 0 1.60316 0 2.18182V21.8182C0 22.3968 0.226922 22.9518 0.630847 23.361C1.03477 23.7701 1.58261 24 2.15385 24H25.8462C26.4174 24 26.9652 23.7701 27.3692 23.361C27.7731 22.9518 28 22.3968 28 21.8182V2.18182C28 1.60316 27.7731 1.04821 27.3692 0.63904C26.9652 0.229869 26.4174 0 25.8462 0ZM24.4542 6.22636L11.5312 19.3173C11.4311 19.4187 11.3124 19.4992 11.1816 19.5541C11.0509 19.609 10.9108 19.6372 10.7692 19.6372C10.6277 19.6372 10.4876 19.609 10.3568 19.5541C10.2261 19.4992 10.1073 19.4187 10.0073 19.3173L4.62269 13.8627C4.42062 13.658 4.30709 13.3804 4.30709 13.0909C4.30709 12.8014 4.42062 12.5238 4.62269 12.3191C4.82477 12.1144 5.09884 11.9994 5.38462 11.9994C5.67039 11.9994 5.94446 12.1144 6.14654 12.3191L10.7692 17.0032L22.9304 4.68273C23.1325 4.47803 23.4065 4.36303 23.6923 4.36303C23.9781 4.36303 24.2522 4.47803 24.4542 4.68273C24.6563 4.88743 24.7698 5.16506 24.7698 5.45455C24.7698 5.74403 24.6563 6.02167 24.4542 6.22636Z" />
</svg>
