<svg width="10" height="10" viewBox="0 0 5 5" fill="none" xmlns="http://www.w3.org/2000/svg">
<g clip-path="url(#clip0_465_9847)">
<path d="M3.77306 4.99953C3.51284 4.75754 3.24033 4.52789 2.99595 4.26966C2.81038 4.07377 2.61084 4.00148 2.35083 4.02139C2.07102 4.04304 1.78786 4.02637 1.50742 4.02637H1.38086C1.55267 3.84347 1.71635 3.68849 1.85667 3.51338C1.9749 3.36576 2.10688 3.32053 2.28787 3.32745C2.65901 3.34152 3.03078 3.332 3.40233 3.33156C3.77389 3.33113 4.01201 3.08654 4.01305 2.69737C4.0143 2.22117 4.01305 1.74498 4.01305 1.27009V1.15234C4.25534 1.18568 4.4628 1.39217 4.52369 1.65018C4.52961 1.67011 4.53657 1.68969 4.54454 1.70884V3.46208C4.48574 3.58568 4.44299 3.72182 4.36397 3.83005C4.24449 3.99304 4.06372 4.05213 3.85917 4.05559C3.87585 4.31425 3.88816 4.56511 3.91088 4.8149C3.91776 4.88979 3.90859 4.94823 3.85646 4.99888L3.77306 4.99953Z" fill="#3679AE"/>
<path d="M3.08674 0C3.25354 0.04329 3.40909 0.108224 3.52127 0.253679C3.62329 0.3827 3.67769 0.545229 3.67473 0.712121C3.67244 1.22403 3.67473 1.73615 3.67348 2.24892C3.67202 2.66017 3.38157 2.96017 2.98123 2.9632C2.62677 2.96558 2.27231 2.96147 1.91785 2.96645C1.86448 2.96893 1.8133 2.98919 1.77189 3.02424C1.46643 3.29091 1.16493 3.56255 0.862177 3.83268C0.811718 3.8777 0.758966 3.92835 0.687448 3.8842C0.619475 3.84221 0.629691 3.77273 0.63553 3.7013C0.654921 3.46126 0.668265 3.22078 0.68432 2.97078C0.623181 2.96255 0.562546 2.9507 0.502711 2.93528C0.247498 2.85455 0.0798583 2.68485 0.0189742 2.40974C0.0138986 2.39287 0.00755434 2.37644 0 2.36061V0.607359C0.0540033 0.489394 0.0957049 0.362771 0.164721 0.254978C0.261468 0.104545 0.42035 0.0441558 0.58382 0.00129865L3.08674 0ZM0.872185 3.5171C1.15138 3.26753 1.40742 3.04091 1.66055 2.81125C1.68905 2.78299 1.72268 2.76089 1.75947 2.74621C1.79626 2.73153 1.8355 2.72458 1.8749 2.72576C2.24646 2.7303 2.61822 2.72922 2.98978 2.72706C3.25626 2.72532 3.45288 2.53052 3.4558 2.25325C3.46101 1.73766 3.46184 1.22186 3.4558 0.706276C3.45225 0.424891 3.25709 0.237879 2.98853 0.237879H0.695163C0.412427 0.237879 0.229983 0.429437 0.229983 0.725324C0.229983 1.22316 0.240409 1.721 0.226022 2.21883C0.223166 2.28687 0.234004 2.35478 0.257842 2.41823C0.28168 2.48167 0.317997 2.53927 0.364473 2.58733C0.41095 2.6354 0.466568 2.67288 0.527777 2.69738C0.588987 2.72188 0.654445 2.73288 0.719975 2.72965C0.905129 2.71905 0.931401 2.76407 0.911176 2.9619C0.893036 3.13658 0.885738 3.31212 0.872185 3.5171Z" fill="#3679AE"/>
<path d="M1.8434 1.19101C1.57943 1.19101 1.31546 1.18993 1.05107 1.19101C0.969545 1.19101 0.899278 1.17478 0.898444 1.075C0.89761 0.975213 0.973924 0.957248 1.0517 0.957031C1.58325 0.957031 2.11467 0.957031 2.64594 0.957031C2.72497 0.957031 2.79794 0.974348 2.79794 1.07651C2.79794 1.17868 2.72559 1.19145 2.64532 1.19101C2.37822 1.19015 2.11091 1.19101 1.8434 1.19101Z" fill="#3679AE"/>
<path d="M1.60408 1.7738C1.41643 1.7738 1.22877 1.77272 1.04112 1.7738C0.961257 1.7738 0.90079 1.74913 0.898497 1.65714C0.896203 1.56514 0.961049 1.5409 1.03194 1.54047C1.41073 1.53859 1.78945 1.53859 2.1681 1.54047C2.24587 1.54047 2.31051 1.57294 2.30592 1.66471C2.30154 1.74696 2.24337 1.77553 2.16685 1.77467C1.9794 1.77207 1.79174 1.7738 1.60408 1.7738Z" fill="#3679AE"/>
</g>
<defs>
<clipPath id="clip0_465_9847">
<rect width="4.54545" height="5" fill="white"/>
</clipPath>
</defs>
</svg>
