<svg width="17" height="12" viewBox="0 0 17 12" fill="none" xmlns="http://www.w3.org/2000/svg">
<g clip-path="url(#clip0_4058_2488)">
<path d="M16.0595 5.91916C15.995 7.9978 15.2631 9.77683 13.9206 11.32C13.6748 11.6025 13.4146 11.8483 12.9888 11.8397C12.6032 11.8318 12.315 11.6799 12.1359 11.353C12.0497 11.201 12.0086 11.0277 12.0172 10.8532C12.0259 10.6787 12.0839 10.5102 12.1846 10.3674C12.3141 10.1815 12.4548 10.0036 12.6061 9.83489C14.5277 7.54122 14.5263 4.2885 12.6025 2.01275C12.472 1.85793 12.3365 1.70454 12.2211 1.53825C11.9115 1.09242 11.9789 0.562004 12.3781 0.219387C12.5639 0.0659809 12.8006 -0.0118241 13.0412 0.00145879C13.2817 0.0147417 13.5084 0.118138 13.6762 0.291064C14.6204 1.21325 15.3018 2.37041 15.6502 3.64341C15.8538 4.38455 15.9283 5.15938 16.0595 5.91916Z" fill="#35B520"/>
<path d="M0.0042663 6.17703C-0.00433496 3.78014 0.781964 1.97817 2.18039 0.422062C2.6212 -0.0682103 3.20537 -0.132002 3.634 0.239286C4.06263 0.610574 4.08413 1.19546 3.64404 1.69935C2.83767 2.62327 2.2406 3.64467 2.04133 4.87537C1.74817 6.68163 2.16964 8.30011 3.29282 9.73867C3.44692 9.93578 3.61967 10.12 3.76302 10.3243C4.06478 10.7543 4.00887 11.2969 3.64475 11.6209C3.28063 11.9449 2.68213 11.9291 2.31012 11.5707C1.66503 10.9529 1.18336 10.2175 0.79845 9.41612C0.265171 8.30441 -0.0401736 7.14109 0.0042663 6.17703Z" fill="#35B520"/>
<path d="M3.35401 5.91737C3.35903 4.56769 3.86149 3.43304 4.84275 2.51342C4.99494 2.35895 5.19544 2.26127 5.41088 2.23662C5.62632 2.21197 5.84371 2.26185 6.02685 2.37795C6.21197 2.48189 6.35369 2.64876 6.42629 2.84826C6.49888 3.04777 6.49754 3.26669 6.42251 3.46529C6.32503 3.73336 6.11 3.96703 5.92579 4.19353C5.18895 5.11673 5.08 6.28436 5.6699 7.30361C5.81326 7.54874 6.01109 7.76234 6.19601 7.97952C6.55082 8.39453 6.5587 8.983 6.2039 9.33781C5.83763 9.70694 5.26636 9.73132 4.85278 9.35214C3.85002 8.43181 3.35186 7.28211 3.35401 5.91737Z" fill="#35B520"/>
<path d="M12.6489 5.84465C12.6252 7.20222 12.193 8.31464 11.2798 9.20631C11.0548 9.40851 10.7782 9.54446 10.4806 9.5991C10.1151 9.67078 9.80185 9.47725 9.63054 9.13535C9.45923 8.79345 9.46425 8.4408 9.6886 8.11897C9.81762 7.93332 9.97531 7.76918 10.1187 7.58999C10.5025 7.10294 10.7065 6.49834 10.6962 5.87829C10.6859 5.25825 10.4619 4.66076 10.062 4.18675C9.8169 3.88786 9.49866 3.63771 9.52303 3.17897C9.54453 2.77686 9.71441 2.49087 10.0685 2.32673C10.4226 2.16259 10.7745 2.19986 11.072 2.45575C11.94 3.20262 12.4381 4.15593 12.5994 5.28628C12.6267 5.49916 12.6396 5.7142 12.6489 5.84465Z" fill="#35B520"/>
<path d="M8.03862 4.75533C8.69303 4.77397 9.18115 5.30581 9.16108 5.97958C9.14101 6.63829 8.61132 7.11638 7.9311 7.08914C7.62558 7.06945 7.33999 6.93063 7.13578 6.70253C6.93156 6.47443 6.82504 6.17529 6.83913 5.86946C6.85322 5.56362 6.98679 5.27554 7.21111 5.06718C7.43543 4.85883 7.73258 4.74685 8.03862 4.75533Z" fill="#35B520"/>
</g>
<defs>
<clipPath id="clip0_4058_2488">
<rect width="16.06" height="11.8497" fill="white"/>
</clipPath>
</defs>
</svg>
