<svg width="20" height="17" viewBox="0 0 20 17" fill="none" xmlns="http://www.w3.org/2000/svg">
<g clip-path="url(#clip0_4106_7177)">
<path d="M7.15715 13.6557C7.28045 12.9864 7.66324 12.562 7.15715 12.0495C7.03815 11.9285 7.12418 11.4071 7.28188 11.2278C7.41235 11.0784 7.8912 11.0455 8.02597 11.1755C8.20231 11.3428 8.33851 11.8717 8.23242 11.9883C7.755 12.5127 8.02167 12.9759 8.22238 13.6139C8.90195 12.5919 9.55715 11.6835 10.1263 10.7198C10.4432 10.1834 10.7586 10.1057 11.2862 10.3328C11.8597 10.5778 12.4647 10.7273 13.0496 10.9305C14.0776 11.2965 14.7514 11.9763 14.9134 13.1507C15.0166 13.8873 15.2088 14.609 15.3364 15.3411C15.507 16.3152 15.0353 16.9443 14.0891 16.9846C13.4453 17.0115 12.7987 16.9846 12.1564 16.9846H1.70912C0.206613 16.9846 -0.209159 16.4452 0.0990848 14.9018C0.220949 14.2952 0.331346 13.6841 0.443174 13.0745C0.622386 12.0929 1.14855 11.3906 2.04604 11.0455C2.94353 10.7004 3.84819 10.418 4.79156 10.0938L7.15715 13.6557Z" fill="white"/>
<path d="M4.27539 5.33678C4.27539 3.57223 5.43811 2.34856 7.16858 2.0572C9.00084 1.75838 10.8962 2.96413 11.0223 4.72718C11.1557 6.52011 10.7844 8.25179 9.46392 9.58005C8.33847 10.7126 7.04098 10.7111 5.90407 9.5935C5.19199 8.91653 4.71507 8.01287 4.54779 7.02363C4.44026 6.39461 4.34277 5.75812 4.27539 5.33678Z" fill="white"/>
<path d="M15.4008 7.34819H11.5858L11.4783 7.13752C11.6374 7.02546 11.7951 6.81927 11.9571 6.81628C13.2474 6.78938 14.5378 6.80134 15.9012 6.80134V8.47176L16.0991 8.59726C16.4137 8.29541 16.7101 7.97356 16.9865 7.63356C17.4582 6.98362 18.0302 6.66388 18.8231 6.79835C19.3965 6.89547 19.6188 6.6579 19.6001 6.01842C19.5571 4.47799 19.55 2.93308 19.6001 1.38668C19.6231 0.647093 19.3636 0.469295 18.6912 0.47826C16.0188 0.514119 13.3449 0.491706 10.6725 0.491706C9.62164 0.491706 9.62164 0.491704 9.48544 1.54954C8.99655 1.45989 9.00945 1.42553 9.01662 0.55147C9.01662 0.0479544 9.25748 -0.00732483 9.64314 -0.00583072C12.5306 0.00163984 15.4181 -0.00583072 18.3069 -0.00583072H20.0044V7.27348C19.8829 7.30977 19.7567 7.3264 19.6302 7.32278C18.2983 7.02396 17.4353 7.73815 16.6711 8.74069C16.2826 9.25019 15.8209 9.69842 15.3908 10.175L15.1958 10.0764C15.2632 9.21134 15.3292 8.34028 15.4008 7.34819Z" fill="white"/>
<path d="M13.9941 4.616C13.5712 4.96412 13.3088 5.33914 13.1052 5.30777C12.8386 5.26742 12.6163 4.90585 12.3755 4.68173C12.5834 4.44417 12.7769 4.03628 13.002 4.01686C13.2558 3.99295 13.5382 4.32166 13.9941 4.616Z" fill="white"/>
<path d="M16.3056 4.62146C15.8869 4.96959 15.6289 5.34012 15.4281 5.30875C15.277 5.26678 15.1379 5.18721 15.0228 5.07687C14.9077 4.96652 14.82 4.8287 14.7672 4.67525C14.7299 4.49296 15.1084 4.04025 15.3235 4.02232C15.5758 4.0029 15.8525 4.32563 16.3056 4.62146Z" fill="white"/>
<path d="M18.6263 4.71073C18.1704 5.01702 17.8837 5.35768 17.693 5.30837C17.5459 5.2532 17.4138 5.16194 17.3078 5.04231C17.2017 4.92269 17.1248 4.77821 17.0837 4.62109C17.0579 4.4403 17.4736 4.02344 17.6901 4.02344C17.9468 4.02195 18.1962 4.36708 18.6263 4.71073Z" fill="white"/>
</g>
<defs>
<clipPath id="clip0_4106_7177">
<rect width="20" height="17" fill="white"/>
</clipPath>
</defs>
</svg>
