<svg width="11" height="11" viewBox="0 0 11 11" fill="none" xmlns="http://www.w3.org/2000/svg">
<path d="M5.70592 10.814H5.09352C5.06053 10.8066 5.02774 10.7968 4.9941 10.7928C4.7648 10.7609 4.53232 10.7444 4.3064 10.6959C3.04037 10.4237 1.98544 9.79183 1.18795 8.77096C0.0592038 7.32427 -0.269522 5.69524 0.220393 3.93062C0.643463 2.40756 1.59537 1.28897 3.00144 0.57419C4.08027 0.0265259 5.22595 -0.123876 6.41372 0.0995054C7.55325 0.313156 8.52631 0.846224 9.32465 1.68792C10.1092 2.51545 10.5853 3.4945 10.7529 4.62509C10.776 4.78014 10.7952 4.93562 10.8164 5.09046V5.70391C10.8094 5.73776 10.8007 5.77118 10.7952 5.80524C10.761 6.0485 10.7426 6.29515 10.6912 6.53461C10.4338 7.73331 9.83762 8.73077 8.90264 9.52699C8.13917 10.1848 7.20267 10.6093 6.20472 10.7499C6.0393 10.7738 5.87219 10.7926 5.70592 10.814ZM5.41379 10.0084C7.16551 9.93334 8.53985 9.19763 9.39065 7.66929C10.3313 5.98039 10.2283 4.28282 9.10846 2.70498C8.22001 1.4527 6.95249 0.856166 5.41315 0.811744L5.41379 10.0084Z" fill="white"/>
</svg>
