<svg width="16" height="14" viewBox="0 0 16 14" fill="none" xmlns="http://www.w3.org/2000/svg">
<g clip-path="url(#clip0_4106_7021)">
<path d="M10.7575 12.9981H3.85205V0H12.0127V4.30429C11.9746 4.29575 11.9385 4.28523 11.9019 4.27976C11.6815 4.24712 11.5011 4.33452 11.3613 4.54984C11.2538 4.71544 11.2515 4.71785 11.0807 4.64491C10.8657 4.55313 10.6528 4.56693 10.4885 4.75596C10.3586 4.90557 10.224 4.95311 10.058 4.96406C9.95775 4.97415 9.86044 5.01076 9.7727 5.07139C9.67565 5.13711 9.58143 5.15244 9.47407 5.15178C8.80764 5.14675 8.14087 5.14916 7.47462 5.14916H7.36388V5.36229H9.41007C9.39982 5.38181 9.38822 5.4002 9.37541 5.41727C9.19089 5.60017 9.00745 5.78461 8.81991 5.96314C8.78469 5.99353 8.74275 6.0099 8.69974 6.01001C8.28805 6.01352 7.87618 6.0122 7.46449 6.0122H7.36388V6.22928H8.51932L8.53016 6.26038C8.39951 6.38086 8.27863 6.52324 8.13642 6.61699C7.88916 6.77953 7.62927 6.91315 7.3733 7.05509C7.33896 7.07224 7.30121 7.07613 7.26504 7.06626C7.04622 7.00427 6.82686 6.94447 6.61106 6.86912C6.4701 6.8194 6.3318 6.82706 6.19031 6.84458C5.81345 6.89124 5.43643 6.93483 5.0594 6.97996C5.03878 6.98237 5.01833 6.9874 4.99807 6.99222C4.85231 7.02683 4.79027 7.21127 4.88537 7.34818C5.21245 7.82336 5.54302 8.29527 5.87709 8.76388C5.91069 8.81098 5.97166 8.83704 6.02392 8.85435C6.60567 9.04667 7.18819 9.23615 7.77148 9.42278C7.83512 9.44293 7.86161 9.47951 7.87938 9.55421C7.97306 9.94849 8.06994 10.3428 8.22868 10.7084C8.41177 11.13 8.66526 11.4665 9.0014 11.7101C9.5569 12.1127 10.1101 12.5206 10.6643 12.9267C10.6889 12.9457 10.7131 12.9641 10.7575 12.9981ZM10.7374 3.41211H7.36388V3.61867H10.7374V3.41211ZM10.7374 4.28523H7.36477V4.49048H10.7374V4.28523ZM8.34813 1.89761C8.40857 2.07416 8.46794 2.25072 8.52963 2.42617C8.59344 2.60754 8.59433 2.60711 8.76392 2.57118V1.41724H8.59487V2.09059C8.52287 1.88534 8.45177 1.68623 8.38404 1.48536C8.36627 1.43082 8.34245 1.403 8.29214 1.41001C8.25343 1.41302 8.21462 1.41339 8.17588 1.41111V2.57688H8.34813V1.89761ZM9.45025 1.73048C9.46322 1.53815 9.36314 1.40191 9.20423 1.39073C9.03127 1.37825 8.91021 1.50026 8.90488 1.68798C8.90026 1.85052 8.97598 1.95084 9.075 2.03495C9.13543 2.08665 9.19943 2.13572 9.25098 2.19858C9.29151 2.24743 9.29062 2.31687 9.23605 2.35695C9.18627 2.39353 9.13277 2.39069 9.09597 2.3241C9.08584 2.30027 9.07802 2.27505 9.07268 2.24896H8.89261C8.88248 2.46429 8.98558 2.59813 9.16512 2.60864C9.34466 2.61915 9.47371 2.47896 9.47531 2.27832C9.47638 2.13331 9.41754 2.03035 9.32386 1.95193C9.25791 1.89695 9.18663 1.84898 9.12975 1.78239C9.1093 1.7583 9.10753 1.66761 9.12672 1.64439C9.16565 1.59708 9.21987 1.60672 9.25329 1.67309C9.26123 1.69146 9.26783 1.71067 9.27302 1.73048H9.45025ZM10.1497 2.24809C10.1568 2.29365 10.1604 2.32585 10.1675 2.35761C10.2031 2.52869 10.3254 2.62682 10.4786 2.60667C10.6467 2.58476 10.7433 2.46889 10.7465 2.28204C10.7491 2.11775 10.6743 2.01217 10.5687 1.92893C10.5092 1.88228 10.4464 1.83781 10.3972 1.77735C10.3783 1.75435 10.3936 1.68973 10.3933 1.64352C10.4338 1.64614 10.5033 1.63344 10.5102 1.65359C10.562 1.80276 10.6524 1.71295 10.7267 1.73617C10.7195 1.5134 10.6302 1.39972 10.4697 1.39117C10.3092 1.38263 10.1931 1.48755 10.178 1.66411C10.1652 1.81284 10.2212 1.92368 10.317 2.00779C10.3819 2.06474 10.4523 2.11403 10.5099 2.1804C10.5337 2.208 10.5406 2.27306 10.5353 2.31731C10.5324 2.34096 10.4846 2.37579 10.4612 2.37163C10.4256 2.3655 10.3927 2.3322 10.3623 2.3046C10.3506 2.29387 10.3486 2.26671 10.3428 2.24853L10.1497 2.24809ZM9.77288 2.093H10.0374V1.88381H9.77644V1.63213H10.0569V1.41658H9.58748V2.57315H10.0765V2.35411H9.77341L9.77288 2.093ZM6.00241 2.10023V1.87812H5.74626V1.63169H6.0241V1.41855H5.55073V2.57622H6.04134V2.35564H5.74306V2.09913L6.00241 2.10023ZM7.53879 2.57447H8.02834V2.3517H7.73273V2.09234H7.9903V1.87965H7.73184V1.63344H8.01359V1.41855H7.53933L7.53879 2.57447ZM6.73016 2.58805L6.73923 2.56264C6.68181 2.40755 6.62848 2.24962 6.56538 2.09804C6.54784 2.06118 6.53872 2.01917 6.53897 1.97645C6.53922 1.93372 6.54883 1.89188 6.5668 1.85533C6.62635 1.71558 6.67506 1.56882 6.73318 1.41198C6.69768 1.41511 6.66204 1.41511 6.62653 1.41198C6.54849 1.39555 6.50672 1.43389 6.48716 1.52742C6.47419 1.59029 6.44859 1.64921 6.42033 1.73508C6.36024 1.54757 6.34247 1.32349 6.11671 1.43192C6.17289 1.58284 6.23475 1.7353 6.28541 1.89301C6.30159 1.94837 6.30159 2.00895 6.28541 2.06431C6.23012 2.23516 6.16418 2.40054 6.09627 2.58433C6.1416 2.58433 6.17395 2.57841 6.20453 2.58542C6.28381 2.60316 6.32309 2.56067 6.34496 2.46976C6.36273 2.39529 6.39206 2.32475 6.42193 2.23604C6.45748 2.34666 6.48379 2.44041 6.51952 2.52759C6.57249 2.65048 6.66315 2.54906 6.7307 2.58695L6.73016 2.58805ZM7.02898 2.20274C7.07786 2.20274 7.11021 2.20428 7.14239 2.20274C7.31055 2.19354 7.41045 2.06781 7.4268 1.8457C7.44245 1.64023 7.35712 1.46587 7.20549 1.43301C7.0887 1.40782 6.96747 1.41395 6.84731 1.40629V2.576H7.02862L7.02898 2.20274ZM6.53836 6.02162H5.49864V6.22819H6.53889L6.53836 6.02162ZM6.53996 5.15923H5.49989V5.36097H6.54049L6.53996 5.15923ZM5.49829 4.49048H6.53872V4.28501H5.49829V4.49048ZM5.49829 3.61736H6.53836V3.41276H5.49829V3.61736Z" fill="white"/>
<path d="M10.5278 5.01107C10.6396 4.83583 10.8136 4.77581 11.0003 4.84613C11.692 5.10753 12.3837 5.36878 13.0753 5.62988C13.1405 5.65442 13.2157 5.70786 13.2584 5.58936C13.2857 5.51313 13.2456 5.46516 13.1258 5.41982L11.517 4.81042C11.495 4.8021 11.4731 4.79181 11.4504 4.78195C11.5705 4.52851 11.7348 4.44461 11.9541 4.52172C12.4737 4.70397 12.9949 4.87986 13.5115 5.07438C13.6676 5.13308 13.8148 5.2356 13.9586 5.33417C14.1024 5.43274 14.1783 5.60557 14.2192 5.78869C14.3171 6.22679 14.4161 6.66642 14.4846 7.11218C14.5873 7.78115 14.6645 8.45626 14.7512 9.12873C14.7533 9.16351 14.7533 9.19844 14.7512 9.23322C14.5107 9.17232 14.2739 9.1134 14.0377 9.05272C13.0224 8.79176 12.0075 8.52964 10.993 8.26634C10.9537 8.25092 10.9209 8.2172 10.9015 8.17237C10.8581 8.0692 10.8321 7.95486 10.7873 7.853C10.7633 7.79719 10.725 7.75269 10.6784 7.72639C10.4387 7.61278 10.1971 7.50566 9.95328 7.40505C9.90404 7.38647 9.8513 7.38747 9.80254 7.40789C9.29948 7.63045 8.80104 7.86789 8.29532 8.08125C7.96202 8.22144 7.6376 8.19077 7.37381 7.8622C7.19 7.63285 7.23267 7.37701 7.47086 7.24185C8.24649 6.80186 9.02271 6.36274 9.79952 5.9245C9.84117 5.90302 9.88753 5.89977 9.93089 5.9153C10.6305 6.20488 11.329 6.49884 12.0285 6.79149C12.0588 6.8042 12.096 6.82654 12.1211 6.81493C12.1513 6.80091 12.1941 6.75272 12.1922 6.72424C12.1886 6.68043 12.1577 6.61976 12.1266 6.6053C11.9108 6.50651 11.6921 6.41714 11.474 6.3258C10.9708 6.11485 10.467 5.90632 9.96466 5.69253C9.93088 5.67572 9.89457 5.66802 9.85818 5.66994C9.82178 5.67187 9.78614 5.68338 9.75366 5.7037C9.48169 5.86382 9.20687 6.01606 8.93294 6.17115C8.92747 6.17473 8.92136 6.17661 8.91516 6.17661C8.90897 6.17661 8.90286 6.17473 8.89739 6.17115C9.18376 5.89033 9.46302 5.59768 9.75881 5.33263C9.98101 5.13374 10.2388 5.11687 10.496 5.23253C11.1427 5.52211 11.7885 5.81374 12.4336 6.10741C12.4558 6.11748 12.481 6.14223 12.4992 6.13588C12.5397 6.12164 12.5912 6.10281 12.6097 6.06491C12.6213 6.04103 12.5904 5.96152 12.5616 5.93786C12.5141 5.89822 12.4529 5.88332 12.3977 5.85835L10.601 5.04787C10.5765 5.03561 10.5529 5.02334 10.5278 5.01107Z" fill="white"/>
<path d="M8.19779 8.43555C8.62744 8.44387 8.95274 8.73805 9.08304 9.2515C9.15005 9.51589 9.22738 9.76977 9.40869 9.95114C9.45756 10.0041 9.51001 10.0518 9.56548 10.0937C9.9194 10.3389 10.2813 10.5656 10.6877 10.6414C10.9908 10.6987 11.2693 10.6195 11.5043 10.3566C11.5294 10.3286 11.5843 10.3218 11.6211 10.3312C12.0753 10.4462 12.5287 10.5662 12.9824 10.6849C13.6124 10.8497 14.2424 11.014 14.8725 11.178C14.9246 11.1914 14.9568 11.2118 14.966 11.2821C15.0081 11.6019 15.0549 11.9208 15.0967 12.2408C15.1204 12.419 15.0936 12.6019 15.0208 12.7586C14.9479 12.9152 14.8335 13.0362 14.6967 13.101C14.079 13.3919 13.4586 13.6743 12.8393 13.9606C12.6912 14.0292 12.5449 14.0005 12.4075 13.9273C12.2895 13.8644 12.1791 13.7783 12.0678 13.6971C11.101 12.9913 10.1398 12.2733 9.16623 11.5819C8.65641 11.2207 8.3592 10.6793 8.18144 10.014C8.07176 9.60263 7.96972 9.18819 7.86591 8.77463C7.82538 8.61232 7.886 8.49272 8.02181 8.46293C8.08011 8.45022 8.13913 8.44453 8.19779 8.43555Z" fill="white"/>
<path d="M0 4.13786C0.343432 2.82708 0.683309 1.53119 1.02425 0.228516L2.86958 0.962764C3.11116 1.05893 3.35202 1.15772 3.5952 1.25015C3.64977 1.27096 3.67252 1.299 3.66986 1.37107C3.66541 1.49067 3.66861 1.61071 3.66861 1.74783C3.51538 1.68759 3.37335 1.63217 3.2315 1.57588C2.81554 1.41072 2.39982 1.24512 1.98433 1.07908C1.9383 1.06068 1.90719 1.05148 1.87217 1.11215C1.68374 1.43854 1.42599 1.5761 1.10282 1.52462C1.09429 1.52331 1.08505 1.52462 1.0662 1.52462C0.932529 2.03391 0.798498 2.54495 0.663045 3.06168C0.701797 3.09147 0.740193 3.11754 0.775745 3.1493C1.00488 3.34907 1.12629 3.62354 1.11687 3.96832C1.11331 4.09471 1.14371 4.14684 1.23721 4.16174C1.25447 4.1661 1.27151 4.17173 1.28823 4.1786C1.30778 4.10807 1.3268 4.04104 1.34493 3.97358C1.40946 3.73481 1.54047 3.64917 1.73743 3.71838L1.77831 3.73306C2.0094 2.50486 2.95526 1.94235 3.66346 2.14672V5.59475L0 4.13786Z" fill="white"/>
<path d="M1.85646 5.10626C1.61791 5.25609 1.40015 5.39365 1.18097 5.52924C1.13867 5.55553 1.10987 5.57765 1.12018 5.65103C1.17724 6.04313 1.06845 6.35943 0.820475 6.60783C0.809454 6.61901 0.798966 6.63105 0.78599 6.64529L1.38326 8.08619C1.75318 7.95016 2.05395 8.06801 2.30139 8.43075C2.3277 8.41564 2.35632 8.40008 2.38441 8.38278C2.41249 8.36547 2.43525 8.34926 2.44698 8.34138C2.41143 8.18804 2.3581 8.05026 2.3485 7.90723C2.33712 7.7425 2.44254 7.65138 2.55861 7.58851C2.21482 6.8547 2.19456 6.1233 2.53337 5.37613C2.66207 5.42761 2.78455 5.47733 2.90667 5.52574C3.13728 5.61686 3.36789 5.70748 3.59851 5.79758C3.6401 5.81401 3.66961 5.83109 3.66837 5.89987C3.66606 6.60433 3.66748 7.30901 3.66499 8.01346C3.66396 8.0316 3.65964 8.04923 3.65235 8.06503C3.64506 8.08084 3.63498 8.09443 3.62286 8.10481C2.93695 8.5394 2.25008 8.97194 1.56227 9.40245C1.55068 9.4073 1.53879 9.41097 1.52672 9.4134C1.02531 8.20294 0.522431 6.98905 0.0180664 5.77173C0.0341336 5.75661 0.0509335 5.74271 0.0683725 5.73011C0.478998 5.47207 0.889091 5.21294 1.30149 4.95928C1.34496 4.93475 1.39389 4.92903 1.44032 4.94307C1.57347 4.98666 1.70394 5.04493 1.85646 5.10626Z" fill="white"/>
<path d="M8.44629 8.25561C8.56877 8.19406 8.66707 8.14609 8.79203 8.17829C10.1914 8.53913 11.5913 8.89538 12.992 9.24702C13.9583 9.49163 14.9248 9.73535 15.8914 9.97821C15.9257 9.98697 15.9597 9.99836 15.9998 10.0106C15.9465 10.3348 15.8948 10.6542 15.8413 10.9814L14.7418 10.6884L11.0007 9.69147C10.4464 9.54405 9.89201 9.39795 9.33847 9.24746C9.30487 9.23826 9.25847 9.20102 9.24959 9.1651C9.13244 8.67224 8.85407 8.39537 8.44629 8.25561Z" fill="white"/>
<path d="M6.66453 7.33594L7.08422 7.45028C7.07746 8.03295 7.40241 8.22396 7.76504 8.36218C7.7382 8.44388 7.69571 8.52975 7.6838 8.62153C7.67189 8.71331 7.69216 8.80706 7.69909 8.91396L6.25781 8.47104C6.57138 8.18781 6.69457 7.80996 6.66453 7.33594Z" fill="white"/>
<path d="M5.38232 7.38719C5.56008 7.36528 5.72007 7.34469 5.88112 7.32542C6.04217 7.30614 6.19842 7.28927 6.35698 7.2689C6.45599 7.2562 6.4791 7.27679 6.48781 7.39573C6.51874 7.81674 6.34934 8.1935 6.05283 8.34443L5.38232 7.38719Z" fill="white"/>
<path d="M1.6923 7.37193C1.59828 7.3702 1.5086 7.32287 1.44272 7.24021C1.37683 7.15754 1.34004 7.0462 1.34033 6.93033C1.3407 6.87208 1.35042 6.81449 1.36893 6.76089C1.38744 6.70728 1.41438 6.65872 1.44818 6.618C1.48199 6.57728 1.522 6.5452 1.56591 6.52362C1.60982 6.50203 1.65676 6.49137 1.70403 6.49224C1.75136 6.49261 1.79817 6.50449 1.84176 6.5272C1.88536 6.54991 1.92489 6.583 1.95808 6.62458C1.99128 6.66616 2.01748 6.7154 2.0352 6.76948C2.05292 6.82357 2.0618 6.88143 2.06133 6.93975C2.06041 6.9981 2.0501 7.05564 2.03101 7.10903C2.01191 7.16243 1.9844 7.21063 1.95007 7.25083C1.91575 7.29103 1.87529 7.32244 1.83104 7.34322C1.78679 7.36401 1.73963 7.37377 1.6923 7.37193Z" fill="white"/>
<path d="M1.54703 2.92772C1.50331 2.92812 1.45995 2.91785 1.41946 2.8975C1.37897 2.87714 1.34215 2.84711 1.31113 2.80913C1.28011 2.77115 1.2555 2.72597 1.23872 2.67621C1.22194 2.62645 1.21333 2.57308 1.21338 2.51919C1.21459 2.41054 1.25046 2.30684 1.31323 2.23051C1.376 2.15419 1.46063 2.11138 1.54881 2.11133C1.63696 2.11207 1.72133 2.15552 1.7837 2.23229C1.84606 2.30906 1.88141 2.41298 1.88211 2.5216C1.882 2.57547 1.87321 2.62877 1.85627 2.67843C1.83932 2.72808 1.81454 2.7731 1.78338 2.81087C1.75221 2.84864 1.71528 2.87842 1.67471 2.89847C1.63414 2.91853 1.59074 2.92847 1.54703 2.92772Z" fill="white"/>
<path d="M11.3277 10.2538C11.0989 10.4438 10.8696 10.4762 10.6344 10.4089C10.2572 10.3007 9.90896 10.1023 9.58384 9.84401C9.57677 9.8384 9.57084 9.83089 9.56646 9.82206C9.56209 9.81322 9.5594 9.80327 9.55859 9.79297L11.3277 10.2538Z" fill="white"/>
<path d="M9.37256 7.8323C9.53023 7.76111 9.68702 7.68729 9.84593 7.62092C9.87544 7.60844 9.91562 7.61851 9.94708 7.63187C10.1337 7.71161 10.3195 7.79507 10.5054 7.87787C10.6386 7.93701 10.6741 7.99396 10.699 8.19286L9.37256 7.85289V7.8323Z" fill="white"/>
<path d="M7.0352 1.60938C7.10364 1.64464 7.17883 1.65472 7.20301 1.70335C7.21604 1.73626 7.22282 1.77241 7.22282 1.80904C7.22282 1.84567 7.21604 1.88181 7.20301 1.91473C7.17883 1.96379 7.10382 1.97497 7.03467 2.01133L7.0352 1.60938Z" fill="white"/>
</g>
<defs>
<clipPath id="clip0_4106_7021">
<rect width="16" height="14" fill="white"/>
</clipPath>
</defs>
</svg>
