<svg width="10" height="13" viewBox="0 0 10 13" fill="none" xmlns="http://www.w3.org/2000/svg">
<g clip-path="url(#clip0_4058_3443)">
<path d="M0.897461 4.34473C0.93385 5.0586 0.96995 5.76768 1.0059 6.47691C1.04457 7.25603 1.08323 8.03523 1.12189 8.81454C1.1532 9.45128 1.1822 10.0883 1.21424 10.7252C1.22091 10.8576 1.22352 10.9921 1.24947 11.1214C1.37705 11.7566 1.90114 12.1798 2.54992 12.1798C4.01187 12.1798 5.47373 12.1798 6.9355 12.1798C7.00546 12.1796 7.07536 12.1754 7.14484 12.1671C7.74114 12.0976 8.23696 11.5758 8.26973 10.976C8.31134 10.2115 8.34743 9.44664 8.38571 8.68203C8.4147 8.1054 8.44341 7.52883 8.47183 6.9523C8.51049 6.17067 8.54915 5.3891 8.58781 4.60757C8.59216 4.51928 8.58781 4.4307 8.58781 4.34487L0.897461 4.34473Z" fill="white"/>
<path d="M2.57173 1.30823H2.48474C1.99907 1.30823 1.51339 1.30722 1.02801 1.30823C0.820979 1.30823 0.626129 1.35927 0.454185 1.47815C0.165244 1.67778 0.0314297 1.96382 0.00475384 2.30641C-0.0409142 2.8911 0.328199 3.48609 1.07512 3.48435C3.52525 3.47884 5.97436 3.48232 8.4239 3.48232C8.4529 3.48232 8.4819 3.48348 8.51089 3.48232C8.89407 3.45811 9.18823 3.28936 9.36872 2.94431C9.47644 2.73829 9.51066 2.5172 9.49254 2.28524C9.4473 1.70185 9.02542 1.30823 8.44072 1.30823C7.96481 1.30823 7.48889 1.30823 7.01298 1.30823H6.92106C6.91599 1.24662 6.91425 1.18906 6.90657 1.13238C6.86103 0.81883 6.70408 0.532175 6.46447 0.324882C6.22486 0.11759 5.9186 0.00352883 5.60177 0.00357839C5.02678 0.00357839 4.4518 -0.00338048 3.87653 0.00546317C3.34142 0.0135819 2.95012 0.268018 2.7041 0.742385C2.61406 0.915634 2.57753 1.10439 2.57173 1.30823Z" fill="white"/>
<path d="M0.897461 4.34473H8.58839C8.58839 4.43055 8.59216 4.5187 8.58839 4.60743C8.5506 5.38905 8.51194 6.17063 8.47241 6.95215C8.44341 7.52868 8.4147 8.10526 8.38629 8.68188C8.34801 9.4465 8.31191 10.2114 8.27031 10.9759C8.23754 11.5756 7.74172 12.0974 7.14542 12.167C7.07594 12.1753 7.00604 12.1795 6.93608 12.1796C5.47431 12.1804 4.01245 12.1804 2.5505 12.1796C1.90172 12.1796 1.37763 11.756 1.25005 11.1213C1.2241 10.992 1.22105 10.8574 1.21482 10.7251C1.18278 10.0882 1.15378 9.45113 1.12247 8.81439C1.08439 8.03518 1.04572 7.25598 1.00648 6.47677C0.97024 5.76768 0.93385 5.0586 0.897461 4.34473ZM2.57413 8.25913V9.1C2.57413 9.69412 2.57437 10.2882 2.57485 10.8824C2.57485 11.0779 2.68344 11.2286 2.86061 11.2816C3.14346 11.3663 3.44632 11.1993 3.44559 10.8557C3.44182 9.14088 3.44124 7.42618 3.44385 5.71158C3.44385 5.68258 3.44545 5.65359 3.44313 5.62459C3.43182 5.48628 3.37426 5.3732 3.25132 5.30303C3.0975 5.21532 2.93846 5.21198 2.78203 5.2952C2.62893 5.37653 2.57355 5.51267 2.57369 5.68026C2.57476 6.53921 2.5749 7.39859 2.57413 8.2584V8.25913ZM5.18373 8.26609C5.18373 7.39902 5.18373 6.53201 5.18373 5.66504C5.18373 5.50281 5.12197 5.37508 4.97656 5.2939C4.71835 5.14892 4.31096 5.27766 4.31212 5.68244C4.31676 7.4068 4.31415 9.13117 4.3143 10.8555C4.3143 10.8748 4.3143 10.8942 4.31517 10.9135C4.32575 11.0904 4.43492 11.2325 4.60309 11.2819C4.88435 11.3648 5.18808 11.1984 5.18576 10.8525C5.17967 9.98973 5.18358 9.12754 5.18358 8.26536L5.18373 8.26609ZM6.92346 8.27435C6.92346 7.40448 6.92346 6.53505 6.92346 5.66605C6.92346 5.50078 6.85996 5.3716 6.71078 5.291C6.45185 5.15109 6.0507 5.2807 6.05171 5.68142C6.05621 7.40825 6.05374 9.13494 6.05389 10.8618C6.05389 10.8786 6.05389 10.8955 6.05461 10.9125C6.06476 11.0892 6.17393 11.2315 6.34167 11.2816C6.62379 11.3653 6.92752 11.1986 6.9252 10.8535C6.91955 9.99306 6.92332 9.13334 6.92332 8.27362L6.92346 8.27435Z" fill="#D22323"/>
<path d="M2.57117 1.30788C2.57697 1.10491 2.6135 0.91644 2.70368 0.742467C2.95014 0.268099 3.34158 0.0136632 3.87611 0.00554442C4.45095 -0.00329923 5.02593 0.00336968 5.60135 0.00365963C5.91819 0.00361008 6.22444 0.117671 6.46405 0.324963C6.70367 0.532256 6.86061 0.818911 6.90615 1.13246C6.91441 1.18914 6.91615 1.2467 6.92065 1.30831H7.01256C7.48838 1.30831 7.96429 1.30831 8.4403 1.30831C9.02486 1.30788 9.44674 1.70149 9.49197 2.28416C9.5101 2.51612 9.47588 2.73722 9.36816 2.94323C9.18767 3.28828 8.89351 3.45703 8.51033 3.48124C8.48133 3.48313 8.45234 3.48124 8.42334 3.48124C5.97322 3.48124 3.52411 3.47776 1.07456 3.48327C0.327058 3.48501 -0.041766 2.89002 0.00375704 2.30547C0.030288 1.96289 0.164102 1.67685 0.453188 1.47721C0.624987 1.35906 0.820562 1.30875 1.02687 1.30788C1.5124 1.30629 1.99822 1.30788 2.4836 1.30788H2.57117ZM6.04324 1.30513C6.03701 1.06142 5.84926 0.873816 5.61077 0.872947C5.03328 0.871207 4.45588 0.871207 3.87858 0.872947C3.83761 0.873418 3.79688 0.879168 3.75738 0.890054C3.56891 0.941376 3.42842 1.14029 3.45292 1.3044L6.04324 1.30513Z" fill="#D22323"/>
</g>
<defs>
<clipPath id="clip0_4058_3443">
<rect width="9.49648" height="12.1807" fill="white"/>
</clipPath>
</defs>
</svg>
