<svg width="20" height="12" viewBox="0 0 20 12" fill="#3679AE" xmlns="http://www.w3.org/2000/svg">
<g clip-path="url(#clip0_4058_2481)">
<path d="M4.93097 10.0713C3.61715 10.0713 2.35596 10.0713 1.09372 10.0713C0.241001 10.0713 0.000976562 9.82404 0.000976562 8.96406C0.000976562 6.36261 0.000976562 3.76152 0.000976562 1.16078C0.000976562 0.316922 0.311536 0.00195312 1.1411 0.00195312C4.65024 0.00195312 8.15727 0.00195312 11.6622 0.00195312C12.3696 0.00195312 12.6781 0.290046 12.7023 1.00168H1.05161V8.0299H9.56198V10.0466H7.84391C7.90181 10.7066 8.21447 11.014 8.89665 11.2376C9.09983 11.3043 9.25353 11.5322 9.42934 11.6859C9.21879 11.7934 9.00087 11.9794 8.78506 11.9826C7.17226 12.0084 5.5584 11.9987 3.94244 11.9955C3.66873 11.9955 3.29922 12.0557 3.30238 11.659C3.30238 11.5118 3.62452 11.3086 3.83506 11.2355C4.38565 11.0474 4.82991 10.7947 4.93097 10.0713Z" />
<path d="M17.2153 3.76639H16.4668C16.4489 3.42348 16.4331 3.11173 16.4163 2.76666H10.9725V10.6699H15.1488C15.2235 11.1343 15.2888 11.5299 15.3593 11.9728C13.875 11.9728 12.3716 11.9975 10.8704 11.9459C10.642 11.9384 10.3883 11.6062 10.2167 11.3697C10.1198 11.2354 10.1514 10.9924 10.1514 10.7978C10.1514 8.12758 10.1514 5.45662 10.1514 2.78494C10.1514 1.80348 10.3672 1.58311 11.3178 1.58203C12.932 1.58203 14.5445 1.58203 16.1552 1.58203C16.9384 1.58203 17.1995 1.84325 17.2153 2.62906C17.2216 2.98488 17.2153 3.33963 17.2153 3.76639ZM13.7034 11.1171L13.6655 11.0365L13.1475 11.3106C13.3328 11.3837 13.5149 11.4686 13.7055 11.5256C13.8057 11.5543 13.912 11.5517 14.0108 11.5181C14.1054 11.4628 14.1916 11.3936 14.2666 11.3127C14.1909 11.2375 14.1047 11.1741 14.0108 11.1246C13.9093 11.1059 13.8056 11.1034 13.7034 11.1171Z" />
<path d="M15.7901 8.19048C15.7901 7.26385 15.7901 6.33722 15.7901 5.41059C15.7901 4.6581 16.0586 4.39473 16.8113 4.39258C17.5482 4.39258 18.2851 4.39258 19.022 4.39258C19.7095 4.39258 19.9927 4.671 19.9937 5.35146C19.9986 7.24128 19.9986 9.13109 19.9937 11.0209C19.9937 11.6852 19.7158 11.9712 19.0768 11.9755C18.2872 11.9805 17.4977 11.9805 16.7081 11.9755C16.0659 11.9755 15.7922 11.6895 15.7891 11.0252C15.7901 10.0803 15.7901 9.13539 15.7901 8.19048ZM16.4386 10.8134H19.3694V5.56968H16.4407L16.4386 10.8134ZM17.8356 11.1413L17.284 11.3918C17.4819 11.4724 17.6787 11.6068 17.8788 11.6164C18.0546 11.6164 18.2346 11.4735 18.4136 11.3939L17.8356 11.1413Z" />
<path d="M13.7033 11.1178C13.8055 11.1037 13.9092 11.1059 14.0107 11.1243C14.1046 11.1737 14.1908 11.2371 14.2665 11.3124C14.1915 11.3933 14.1054 11.4624 14.0107 11.5177C13.912 11.5514 13.8056 11.554 13.7054 11.5252C13.5149 11.4693 13.3327 11.3844 13.1475 11.3103L13.6654 11.0361L13.7033 11.1178Z" fill="white"/>
<path d="M17.8353 11.1406L18.4133 11.3932C18.2343 11.4728 18.0543 11.619 17.8785 11.6158C17.6785 11.6158 17.4816 11.4717 17.2837 11.3911L17.8353 11.1406Z" fill="white"/>
</g>
<defs>
<clipPath id="clip0_4058_2481">
<rect width="20" height="12" fill="white"/>
</clipPath>
</defs>
</svg>
