<svg width="12" height="15" viewBox="0 0 12 15" fill="none" xmlns="http://www.w3.org/2000/svg">
<g clip-path="url(#clip0_4106_7041)">
<path d="M11.6912 12.7642C11.0818 13.3124 10.4922 13.8835 9.89915 14.4512C9.67366 14.6664 9.44817 14.8816 9.15616 15H2.61865C2.19304 14.9449 1.91343 14.7238 1.82267 14.2682C1.72402 13.7715 1.68851 13.7481 1.18623 13.7405C0.397013 13.7252 0.00240578 13.3247 0.00240578 12.5091C-0.00210401 8.70079 -0.00210401 4.8925 0.00240578 1.0842C0.00240578 0.392284 0.18674 0.155388 0.815856 0.00117111H9.83094C10.4561 0.152455 10.6354 0.388178 10.645 1.06837C10.645 1.15574 10.645 1.24428 10.6489 1.33165C10.6557 1.575 10.7729 1.69579 11.0074 1.73508C11.6805 1.84707 11.9945 2.22411 11.9956 2.92717C12.0002 5.96927 11.9956 9.01196 12.0013 12.0546C12.0062 12.1899 11.9808 12.3244 11.927 12.4476C11.8731 12.5707 11.7924 12.6791 11.6912 12.7642ZM9.39687 13.4555L10.2255 12.6733C10.1331 12.6639 10.0993 12.658 10.0654 12.6569C9.34501 12.6328 9.34501 12.6328 9.39462 13.4555H9.39687ZM9.61278 1.58262C9.59643 0.937611 9.60939 0.937611 8.97746 0.937611C6.42491 0.937611 3.87237 0.93761 1.31983 0.932919C1.10505 0.932919 1.03797 0.981586 1.03797 1.21789C1.04511 4.93706 1.04511 8.65623 1.03797 12.3754C1.03797 12.6099 1.1011 12.6686 1.31983 12.6615C1.94613 12.6498 1.94613 12.6615 1.94613 12.0089V7.61698C1.94613 6.06466 1.94613 4.51253 1.94613 2.9606C1.94613 2.23994 2.29281 1.87639 2.97999 1.87581C5.09171 1.87581 7.20342 1.87229 9.31456 1.88108C9.5378 1.88167 9.61728 1.83652 9.61052 1.58262H9.61278ZM10.7233 2.80931C8.17941 2.81439 5.63532 2.81439 3.09105 2.80931C2.89374 2.80931 2.84132 2.86267 2.84189 3.06849C2.84978 4.85516 2.84639 6.64184 2.84639 8.42852C2.84639 10.2152 2.84978 12.0025 2.84189 13.7891C2.84189 13.9985 2.87965 14.0712 3.0995 14.0694C4.80796 14.0589 6.51662 14.0589 8.22545 14.0694C8.44305 14.0694 8.48927 14.0032 8.48476 13.7903C8.47123 13.1758 8.48476 12.5589 8.47574 11.945C8.47292 11.7644 8.52253 11.7134 8.69616 11.7157C9.37263 11.7263 10.0491 11.7157 10.7256 11.7239C10.9037 11.7239 10.9652 11.6829 10.9646 11.4847C10.9586 8.67245 10.9586 5.8604 10.9646 3.04855C10.9612 2.84743 10.8969 2.80872 10.7211 2.80872L10.7233 2.80931Z" fill="white"/>
<path d="M6.93044 9.8457C7.88877 9.8457 8.8471 9.83808 9.80036 9.85156C10.018 9.85156 10.0631 9.7853 10.0602 9.57304C10.0518 8.90809 10.0602 8.90809 9.41759 8.90809C7.61706 8.90809 5.81595 8.91278 4.01485 8.90222C3.78598 8.90222 3.7375 8.97318 3.74088 9.19541C3.75216 9.8457 3.74089 9.8457 4.36944 9.8457H6.93044Z" fill="white"/>
<path d="M6.89992 7.03113C5.92467 7.03113 4.94886 7.03641 3.97362 7.02703C3.78646 7.02703 3.7408 7.08567 3.74024 7.27272C3.74024 7.96874 3.73291 7.96874 4.40826 7.96874C6.20034 7.96874 7.99185 7.96464 9.78337 7.97461C10.0089 7.97461 10.0652 7.91011 10.0596 7.68142C10.0489 7.03114 10.0568 7.03113 9.43668 7.03113H6.89992Z" fill="white"/>
<path d="M6.89999 5.15477C5.92418 5.15477 4.94838 5.15946 3.97313 5.15008C3.78654 5.15008 3.74031 5.20871 3.73975 5.39577C3.73975 6.09238 3.73243 6.09238 4.40777 6.09238C6.19928 6.09238 7.9908 6.08769 9.78288 6.09766C10.0084 6.09766 10.0647 6.03433 10.0591 5.80447C10.049 5.15477 10.0568 5.15477 9.43675 5.15477H6.89999Z" fill="white"/>
<path d="M5.65974 12.6566C6.23135 12.6566 6.80354 12.6508 7.37515 12.6602C7.53694 12.6602 7.57696 12.6086 7.58034 12.445C7.595 11.719 7.60008 11.719 6.91346 11.719C5.93822 11.719 4.96297 11.7255 3.98829 11.7143C3.78873 11.7143 3.73913 11.773 3.74025 11.9747C3.74533 12.6566 3.74026 12.6566 4.39418 12.6566H5.65974Z" fill="white"/>
</g>
<defs>
<clipPath id="clip0_4106_7041">
<rect width="12" height="15" fill="white" transform="matrix(1 0 0 -1 0 15)"/>
</clipPath>
</defs>
</svg>
