<svg width="10" height="10" viewBox="0 0 4 4" fill="none" xmlns="http://www.w3.org/2000/svg">
<g clip-path="url(#clip0_465_9848)">
<path d="M4.00009 2.00034C4.00577 3.09289 3.10834 4.00524 1.98834 3.99931C0.896347 3.99363 -0.0101142 3.10012 8.52416e-05 1.97594C0.0100265 0.902752 0.897768 -0.0346432 2.06761 0.000983539C3.1268 0.0322214 4.00435 0.906624 4.00009 2.00034ZM3.29916 3.05881C3.82631 2.44399 3.85174 1.39791 3.10808 0.738301C2.44551 0.150074 1.48985 0.216809 0.945666 0.699577L3.29916 3.05881ZM0.701267 0.940186C0.165988 1.5683 0.157338 2.61387 0.897509 3.26483C1.57067 3.8568 2.52258 3.77302 3.0536 3.29878C2.26983 2.51284 1.48572 1.72664 0.701267 0.940186Z" fill="#3679AE"/>
</g>
<defs>
<clipPath id="clip0_465_9848">
<rect width="4" height="4" fill="white"/>
</clipPath>
</defs>
</svg>
