<svg width="13" height="15" viewBox="0 0 13 15" fill="none" xmlns="http://www.w3.org/2000/svg">
<g clip-path="url(#clip0_4106_7252)">
<path d="M9.62576 2.1186e-05C10.2603 -0.000457184 10.8808 0.181739 11.409 0.523654C11.9373 0.865569 12.3497 1.35191 12.5943 1.9214C12.8389 2.4909 12.9048 3.11807 12.7836 3.72391C12.6624 4.32975 12.3596 4.88716 11.9133 5.3259C11.4671 5.76465 10.8973 6.06511 10.2758 6.18944C9.65424 6.31376 9.0088 6.25639 8.42075 6.02454C7.8327 5.79269 7.32834 5.39675 6.97122 4.88658C6.61409 4.37642 6.42018 3.77486 6.4139 3.15769C6.4078 2.7442 6.48646 2.33367 6.64528 1.95008C6.8041 1.56648 7.0399 1.21751 7.33891 0.923547C7.63792 0.62958 7.99415 0.39651 8.38679 0.237945C8.77944 0.0793787 9.20063 -0.00150442 9.62576 2.1186e-05ZM8.14697 3.47114L9.59751 4.90269L11.0904 3.45912L10.7523 3.08384C10.4689 3.45482 10.2305 3.77085 9.99127 4.08086L9.84913 3.99499V1.26756L9.37238 1.29504V4.00958L9.23554 4.08515L8.45155 3.1637L8.14697 3.47114Z" fill="white"/>
<path d="M5.88761 1.21366C5.74724 1.85945 5.74723 1.86031 5.13541 1.86031C3.83319 1.86031 2.53008 1.87061 1.22786 1.85429C0.818208 1.84914 0.656643 1.9728 0.657526 2.39016C0.669298 6.20535 0.669298 10.0211 0.657526 13.8375C0.657526 14.2548 0.827919 14.3759 1.23492 14.375C4.26491 14.3647 7.2949 14.3699 10.3284 14.369C10.8802 14.369 10.9464 14.3055 10.9464 13.743C10.9464 11.6639 10.9623 9.58487 10.9349 7.50667C10.9288 7.04723 11.0833 6.82395 11.5688 6.75783C11.5777 6.87634 11.5944 6.99399 11.5944 7.11164C11.5944 9.37533 11.5944 11.639 11.5944 13.9027C11.5944 14.6353 11.2537 14.9925 10.5085 14.9942C7.37612 15.0011 4.24372 15.0011 1.11132 14.9942C0.355587 14.9934 0.00244141 14.637 0.00244141 13.9182C0.00244141 10.0452 0.00244141 6.17244 0.00244141 2.29999C0.00244141 1.58292 0.374128 1.21709 1.10249 1.21537C2.69429 1.21108 4.28874 1.21366 5.88761 1.21366Z" fill="white"/>
<path d="M2.56299 13.2122V11.8613H8.96022V13.2122H2.56299Z" fill="white"/>
<path d="M2.58252 7.86546V6.54297H9.00005V7.86546H2.58252Z" fill="white"/>
<path d="M2.58398 10.5282V9.20312H8.9971V10.5282H2.58398Z" fill="white"/>
<path d="M2.58936 3.875H5.7553V5.20351H2.58936V3.875Z" fill="white"/>
</g>
<defs>
<clipPath id="clip0_4106_7252">
<rect width="12.8571" height="15" fill="white"/>
</clipPath>
</defs>
</svg>
