<svg width="18" height="18" viewBox="0 0 18 18" fill="currentColor" xmlns="http://www.w3.org/2000/svg">
<g clip-path="url(#clip0_4058_13625)">
<path d="M12.6425 6.16953C11.5691 6.14789 10.5064 6.38558 9.5444 6.86242C9.44458 6.8947 9.33898 6.90504 9.2348 6.89273H3.71399C3.60574 6.89273 3.48017 6.86458 3.38924 6.90789C3.28099 6.9631 3.11861 7.08436 3.12294 7.16773C3.12943 7.26949 3.26908 7.40265 3.38166 7.44704C3.49424 7.49143 3.66528 7.46761 3.81467 7.46761H8.14471C8.2443 7.46761 8.34498 7.48061 8.46947 7.48927C8.06461 8.10637 7.56448 8.34889 6.83379 8.31749C5.41029 8.2547 3.98246 8.29692 2.55679 8.298C2.39513 8.28516 2.23247 8.29611 2.07399 8.33048C2.02146 8.3513 1.97485 8.38469 1.93823 8.42773C1.90162 8.47077 1.87612 8.52213 1.86398 8.57732C1.87434 8.63459 1.89861 8.68845 1.93466 8.73413C1.97072 8.77982 2.01745 8.81594 2.07074 8.83932C2.22861 8.87539 2.39118 8.88635 2.55246 8.8718H7.1921C7.01782 9.42395 6.80131 9.75307 6.14531 9.72167C4.90259 9.66213 3.65554 9.69353 2.41065 9.71626C2.22121 9.71626 2.03502 9.88082 1.84774 9.96852C2.04151 10.0768 2.23312 10.2619 2.42797 10.2662C3.77678 10.2922 5.12667 10.2792 6.48414 10.2792C6.35532 11.115 6.35532 11.114 5.59973 11.1129C4.57134 11.1129 3.54296 11.0977 2.51349 11.1259C2.28941 11.1324 1.87697 11.3023 1.8813 11.3824C1.8997 11.8155 2.28399 11.6802 2.54271 11.6834C3.57218 11.6964 4.59949 11.6834 5.63004 11.6834H6.17129V12.5171H4.39273C3.68909 12.5171 2.98546 12.5008 2.28183 12.53C2.13461 12.5355 1.9928 12.7065 1.84882 12.8018C1.99605 12.8981 2.1411 13.0735 2.29049 13.0768C3.373 13.1006 4.45551 13.0898 5.53802 13.0898C6.26439 13.0898 6.26439 13.0898 6.3131 13.9256H3.45527C3.1132 13.9256 2.76463 13.8909 2.42905 13.9386C2.22445 13.9678 2.03935 14.1237 1.84558 14.2233C2.03285 14.3142 2.21471 14.4691 2.40848 14.4864C2.85556 14.5254 3.30913 14.4983 3.76054 14.4983C4.46526 14.4983 5.16781 14.5416 5.87144 14.4853C6.47873 14.4366 6.76667 14.6693 6.83596 15.3298H6.25898C4.95996 15.3298 3.66095 15.3211 2.36193 15.3417C2.18873 15.3417 2.0177 15.4997 1.84558 15.5853C2.01661 15.6935 2.18657 15.8884 2.35977 15.8916C3.83956 15.9165 5.31936 15.9133 6.79807 15.9003C7.12282 15.9003 7.33932 15.9977 7.57639 16.2457C8.17177 16.8595 8.83644 17.4063 9.45996 17.9682C9.35937 17.9808 9.25821 17.9884 9.15686 17.9909C6.53935 17.9909 3.9222 17.9909 1.3054 17.9909C0.386353 17.9909 0.000976562 17.5979 0.000976562 16.6668C0.000976562 11.5423 0.000976562 6.41781 0.000976562 1.29331C0.000976562 0.401214 0.39826 -0.00585938 1.27834 -0.00585938C4.63629 -0.00585938 7.99208 -0.00585938 11.3457 -0.00585938C12.2463 -0.00585938 12.662 0.412041 12.6653 1.32146C12.6696 2.78303 12.6696 4.24459 12.6653 5.70616C12.6707 5.85448 12.6534 5.99414 12.6425 6.16953ZM6.26439 4.34852H9.61476C10.4483 4.34852 10.5349 4.25867 10.536 3.41204C10.536 3.26805 10.536 3.12406 10.536 2.97898C10.5252 2.58166 10.3119 2.38894 9.92111 2.38894H2.7354C2.3024 2.38894 2.12162 2.63578 2.08589 3.02878C2.07608 3.20909 2.07608 3.3898 2.08589 3.5701C2.10105 4.15798 2.28399 4.34744 2.86097 4.34961C3.99545 4.35069 5.12992 4.34744 6.26439 4.34852ZM6.35207 5.48421C5.79566 5.48421 5.23708 5.46473 4.68284 5.49613C4.52912 5.50479 4.38407 5.66394 4.23468 5.75271C4.37649 5.85448 4.51505 6.04069 4.65794 6.04394C5.77076 6.06848 6.88431 6.06848 7.99857 6.04394C8.14363 6.04394 8.28436 5.85123 8.43158 5.7473C8.27894 5.65961 8.12956 5.50479 7.97151 5.49504C7.43134 5.46689 6.89116 5.48421 6.35207 5.48421Z" fill="white"/>
<path d="M18.0003 12.3785C18.002 13.1178 17.8581 13.8502 17.5768 14.5339C17.2955 15.2176 16.8823 15.8391 16.3608 16.3631C15.8393 16.8871 15.2197 17.3032 14.5374 17.5877C13.8551 17.8722 13.1235 18.0195 12.3843 18.0212C11.645 18.0229 10.9127 17.879 10.2291 17.5976C9.54551 17.3163 8.92401 16.903 8.4001 16.3815C7.87619 15.8599 7.46012 15.2403 7.17566 14.5579C6.8912 13.8755 6.74391 13.1438 6.7422 12.4045C6.73876 10.9114 7.32851 9.47805 8.38173 8.41983C9.43495 7.36162 10.8653 6.76518 12.3583 6.76173C13.8512 6.75829 15.2843 7.34811 16.3424 8.40146C17.4005 9.4548 17.9969 10.8854 18.0003 12.3785ZM12.3637 13.3702C12.9915 14.0024 13.5393 14.6022 14.1455 15.136C14.3533 15.3189 14.7365 15.4608 14.9888 15.4045C15.5603 15.2745 15.6448 14.6401 15.1782 14.1659C14.598 13.578 13.9929 13.014 13.326 12.3698C13.9755 11.7527 14.5763 11.2146 15.1263 10.6235C15.3092 10.4276 15.4662 10.0822 15.4304 9.8321C15.346 9.26047 14.664 9.10998 14.2104 9.54845C13.6042 10.1342 13.0305 10.7545 12.3875 11.4182C11.7737 10.7881 11.2281 10.2175 10.6706 9.6578C10.243 9.22474 9.81437 9.18035 9.49503 9.50623C9.17569 9.8321 9.23739 10.2543 9.66715 10.6831C10.2268 11.2395 10.7951 11.7863 11.4132 12.3893C10.7843 12.9988 10.2095 13.5434 9.64874 14.101C9.23089 14.5178 9.18543 14.9747 9.5091 15.28C9.83277 15.5853 10.2149 15.5528 10.6414 15.1273C11.2021 14.5611 11.7542 13.9938 12.3637 13.3702Z" fill="white"/>
</g>
<defs>
<clipPath id="clip0_4058_13625">
<rect width="18" height="18" fill="white"/>
</clipPath>
</defs>
</svg>
