<svg width="21" height="13" viewBox="0 0 21 13" fill="none" xmlns="http://www.w3.org/2000/svg">
<g clip-path="url(#clip0_4106_7224)">
<path d="M9.93404 0.603825V0.0820312H10.8567C10.8567 0.2205 10.8629 0.34391 10.8547 0.467648C10.8479 0.576328 10.8874 0.618229 10.996 0.635906C12.4434 0.869305 13.4975 1.64774 14.1615 2.95222C14.4505 3.52018 14.5826 4.13068 14.5866 4.76737C14.5921 5.84173 14.5826 6.91675 14.5866 7.9911C14.5833 8.47761 14.6645 8.96098 14.8265 9.41965C15.1152 10.2135 15.5458 10.5605 16.3894 10.6662V11.2364H4.40137V10.6698C4.53215 10.6488 4.66293 10.6371 4.78913 10.6069C5.29329 10.4855 5.62286 10.1532 5.8442 9.70248C6.11427 9.15221 6.20385 8.56069 6.20385 7.95575C6.20843 6.86994 6.196 5.78445 6.20385 4.69896C6.2202 2.69002 7.7827 0.912843 9.76435 0.636888C9.81928 0.629359 9.87127 0.616264 9.93404 0.603825ZM11.4589 6.21524H11.4773C11.4773 5.98609 11.4844 5.75695 11.4773 5.5278C11.4544 4.92843 11.0735 4.55231 10.483 4.5379C9.90592 4.52448 9.48612 4.87802 9.45309 5.45251C9.4253 5.95854 9.4253 6.46571 9.45309 6.97174C9.48219 7.51678 9.85492 7.85951 10.3807 7.88079C10.9878 7.90534 11.372 7.62218 11.4527 7.04638C11.4907 6.77435 11.4589 6.4925 11.4589 6.21524ZM7.16868 6.91118C7.1662 6.95687 7.1662 7.00265 7.16868 7.04834C7.23996 7.64019 7.67219 7.96132 8.29242 7.88537C8.66253 7.8402 8.94632 7.66998 9.0686 7.30367C9.19546 6.92591 9.12974 6.57532 8.83744 6.29642C8.69326 6.15893 8.51572 6.05615 8.35159 5.94026C8.2182 5.84631 8.07369 5.76644 7.94977 5.66202C7.82586 5.55759 7.77681 5.42207 7.8458 5.26494C7.90825 5.12353 8.03478 5.09014 8.17275 5.09865C8.33884 5.10945 8.44118 5.19686 8.47453 5.36839C8.4827 5.40963 8.52978 5.47281 8.56215 5.4751C8.72857 5.4859 8.89564 5.48001 9.05977 5.48001C9.11895 4.99717 8.79559 4.60992 8.29471 4.53954C7.86346 4.47865 7.47144 4.66033 7.31025 4.99554C7.1337 5.36282 7.22655 5.79558 7.56103 6.0915C7.69181 6.2064 7.84286 6.29511 7.98606 6.39626C8.11881 6.49086 8.26038 6.57565 8.38167 6.68335C8.52978 6.81429 8.55986 6.99105 8.48728 7.1436C8.42549 7.27454 8.28065 7.34001 8.09788 7.32135C7.90727 7.30171 7.82063 7.22053 7.77093 7.01495C7.7621 6.97894 7.75033 6.94424 7.74052 6.91118H7.16868ZM11.7885 6.91314C11.7365 7.43036 12.087 7.82972 12.6317 7.88995C13.095 7.94069 13.5079 7.72923 13.6632 7.36194C13.8388 6.94588 13.7175 6.49316 13.3386 6.19331C13.2078 6.08888 13.0574 6.00737 12.9181 5.91211C12.7893 5.83122 12.6656 5.74245 12.5477 5.64631C12.4329 5.54548 12.3901 5.40931 12.4594 5.26102C12.5248 5.1232 12.6497 5.08883 12.788 5.09734C12.9482 5.10814 13.0496 5.19293 13.0823 5.35496C13.0917 5.3933 13.1035 5.43102 13.1176 5.4679H13.6829C13.6866 5.43772 13.6885 5.40732 13.6884 5.3769C13.6436 4.79356 13.1901 4.44723 12.5941 4.54052C12.1282 4.61385 11.8421 4.92188 11.8372 5.36118C11.834 5.64434 11.9353 5.88854 12.1514 6.07022C12.3087 6.20312 12.4885 6.30886 12.6546 6.43031C12.7893 6.53047 12.9309 6.62672 13.0469 6.74587C13.1578 6.86077 13.1666 7.01495 13.0872 7.15702C13.0002 7.31317 12.8488 7.33215 12.6889 7.31513C12.5291 7.29811 12.43 7.21169 12.3914 7.05554C12.38 7.00873 12.3688 6.96159 12.3568 6.91053L11.7885 6.91314Z" fill="white"/>
<path d="M20.8 5.15791C20.7653 6.76551 20.2442 8.06051 19.1885 9.13454C19.0577 9.2681 18.9043 9.31425 18.7271 9.25075C18.5617 9.19182 18.4531 9.0635 18.4656 8.89426C18.4769 8.76183 18.5301 8.63648 18.6176 8.53647C19.3369 7.78357 19.7799 6.89973 19.9198 5.86498C20.1928 3.85571 19.0992 1.889 17.2411 1.05557C17.0363 0.967713 16.8271 0.890359 16.6144 0.823808C16.3528 0.737061 16.222 0.526903 16.2913 0.286956C16.3567 0.0610859 16.5856 -0.0485759 16.8439 0.0204947C18.8154 0.544253 20.4348 2.37119 20.7235 4.40173C20.7647 4.68718 20.782 4.97655 20.8 5.15791Z" fill="white"/>
<path d="M0 5.59084C0.000980855 2.84275 1.60795 0.698941 3.91394 0.0295132C4.27129 -0.0742563 4.54724 0.124772 4.5103 0.462595C4.48741 0.66948 4.35205 0.770631 4.16307 0.825953C3.34175 1.06293 2.60301 1.52521 2.03037 2.16055C0.377956 3.97668 0.438115 6.73754 2.16115 8.52061C2.24465 8.61071 2.30187 8.72201 2.32659 8.84239C2.35928 9.01033 2.25008 9.16745 2.09772 9.23816C1.93425 9.31443 1.76031 9.28464 1.61776 9.14552C1.23196 8.76712 0.906748 8.33143 0.653576 7.8538C0.21775 7.041 0.00228866 6.17221 0 5.59084Z" fill="white"/>
<path d="M1.67822 5.08961C1.70078 3.71704 2.61788 2.48523 3.93419 2.0875C4.21798 2.00173 4.44031 2.09764 4.51845 2.33923C4.59659 2.58081 4.46777 2.78802 4.18725 2.8823C3.30088 3.17921 2.74376 3.78349 2.56786 4.7017C2.42008 5.47556 2.65188 6.15579 3.17991 6.7365C3.24088 6.79773 3.2896 6.87006 3.32344 6.94961C3.35568 7.03773 3.35592 7.1344 3.32411 7.22268C3.29231 7.31096 3.2305 7.38522 3.1495 7.43245C2.98178 7.53262 2.7758 7.50741 2.62638 7.35716C2.19278 6.92962 1.89588 6.38271 1.77337 5.78588C1.72498 5.55608 1.71092 5.32137 1.67822 5.08961Z" fill="white"/>
<path d="M19.0919 5.43735C19.085 5.97093 18.7836 6.7199 18.1784 7.3435C18.0228 7.50357 17.8161 7.53303 17.6438 7.43025C17.5652 7.38474 17.5046 7.31368 17.4719 7.22888C17.4393 7.14408 17.4366 7.05064 17.4643 6.9641C17.4907 6.88729 17.5334 6.81714 17.5895 6.75853C18.8199 5.43276 18.3088 3.44543 16.5897 2.87421C16.3216 2.78517 16.1974 2.57468 16.2745 2.33801C16.3517 2.10134 16.5714 2.00182 16.8428 2.08202C18.1712 2.47451 19.0932 3.71222 19.0919 5.43735Z" fill="white"/>
<path d="M8.72168 11.6543H12.0602C12.0422 12.2923 11.2683 12.9483 10.4849 12.9964C9.6633 13.0478 8.83579 12.4255 8.72168 11.6543Z" fill="white"/>
<path d="M11.4591 6.21615C11.4591 6.49341 11.4918 6.77526 11.4526 7.04729C11.3719 7.62309 10.9877 7.90625 10.3805 7.8817C9.8548 7.86042 9.48207 7.51769 9.45297 6.97265C9.42518 6.46663 9.42518 5.95945 9.45297 5.45343C9.48567 4.87762 9.9058 4.52539 10.4812 4.53947C11.0717 4.55387 11.4526 4.93 11.4755 5.52937C11.4843 5.75852 11.4755 5.98766 11.4755 6.2168L11.4591 6.21615ZM10.0418 6.20567H10.0258C10.0402 6.47639 10.0369 6.74973 10.0745 7.01717C10.1033 7.22406 10.2514 7.31735 10.4593 7.31833C10.7232 7.31833 10.8736 7.15171 10.8788 6.82731C10.8853 6.41943 10.8811 6.01156 10.8788 5.60335C10.8775 5.54902 10.8702 5.495 10.8569 5.4423C10.7994 5.185 10.6222 5.06977 10.3635 5.1192C10.1706 5.15619 10.0542 5.30416 10.0434 5.55294C10.0346 5.76997 10.0418 5.98799 10.0418 6.20567Z" fill="white"/>
<path d="M7.16893 6.91258H7.73815C7.74796 6.94532 7.75973 6.98034 7.76856 7.01635C7.81956 7.22193 7.90621 7.30311 8.09551 7.32275C8.27828 7.34141 8.42246 7.27529 8.48491 7.145C8.55749 6.99246 8.52741 6.81765 8.3793 6.68475C8.25801 6.57705 8.11774 6.49227 7.98369 6.39766C7.8418 6.29651 7.68944 6.2078 7.55866 6.0929C7.22419 5.79829 7.13133 5.36422 7.30788 4.99694C7.46907 4.66173 7.86109 4.48005 8.29234 4.54094C8.79323 4.61132 9.11658 4.99923 9.0574 5.48141C8.89393 5.48141 8.7262 5.48731 8.55978 5.4765C8.52709 5.47421 8.48033 5.41103 8.47216 5.36979C8.43946 5.19924 8.33647 5.11086 8.17038 5.10005C8.03306 5.09154 7.90653 5.12493 7.84343 5.26635C7.77444 5.42347 7.82741 5.56096 7.9474 5.66342C8.06739 5.76588 8.21583 5.84772 8.34923 5.94167C8.5127 6.05755 8.69089 6.16034 8.83508 6.29782C9.12737 6.57672 9.19309 6.92731 9.06623 7.30507C8.9433 7.67138 8.66016 7.8416 8.29005 7.88677C7.66884 7.96272 7.23759 7.64159 7.16632 7.04974C7.1647 7.00401 7.16557 6.95822 7.16893 6.91258Z" fill="white"/>
<path d="M11.7888 6.9144H12.3557C12.3678 6.96547 12.3789 7.01261 12.3904 7.05942C12.429 7.21556 12.5293 7.30198 12.6879 7.319C12.8465 7.33603 12.9992 7.31704 13.0861 7.1609C13.1656 7.01883 13.1567 6.86628 13.0459 6.74975C12.9302 6.62994 12.7886 6.53435 12.6536 6.43418C12.4875 6.3111 12.3077 6.20504 12.1504 6.0741C11.9353 5.89242 11.8329 5.64854 11.8362 5.36506C11.8411 4.92576 12.1272 4.61772 12.5931 4.5444C13.1891 4.4511 13.6426 4.79744 13.6874 5.38077C13.6875 5.41119 13.6856 5.44159 13.6818 5.47178H13.1169C13.1028 5.43489 13.091 5.39718 13.0816 5.35884C13.0489 5.19517 12.9485 5.11202 12.7873 5.10122C12.649 5.09172 12.5234 5.1261 12.4587 5.26489C12.3894 5.41318 12.4322 5.54936 12.547 5.65018C12.6649 5.74632 12.7886 5.83509 12.9174 5.91599C13.0567 6.01125 13.2061 6.09276 13.3379 6.19718C13.7168 6.49703 13.8381 6.95008 13.6625 7.36582C13.5082 7.73048 13.0953 7.94195 12.6313 7.89088C12.0873 7.83163 11.7368 7.43259 11.7888 6.9144Z" fill="white"/>
<path d="M10.0416 6.20512C10.0416 5.98743 10.0344 5.76942 10.0435 5.55238C10.0543 5.3036 10.1707 5.15564 10.3636 5.11865C10.6222 5.06922 10.7994 5.18412 10.857 5.44174C10.8703 5.49444 10.8776 5.54846 10.8789 5.6028C10.8809 6.011 10.8851 6.41888 10.8789 6.82675C10.8737 7.15181 10.7233 7.31974 10.4594 7.31778C10.2515 7.31778 10.1034 7.2235 10.0746 7.01662C10.037 6.74917 10.0403 6.47584 10.0259 6.20512H10.0416Z" fill="white"/>
</g>
<defs>
<clipPath id="clip0_4106_7224">
<rect width="20.8" height="13" fill="white"/>
</clipPath>
</defs>
</svg>
