<svg width="19" height="21" viewBox="0 0 19 21" fill="none" xmlns="http://www.w3.org/2000/svg">
<g clip-path="url(#clip0_4058_14463)">
<path d="M3.59868 20.8227C3.56312 20.8041 3.52603 20.7885 3.48782 20.7762C3.0782 20.6812 2.83569 20.4041 2.81531 20.0075C2.78107 19.3554 2.80594 18.6971 2.80594 18.0263H4.16114V18.916C4.16114 19.344 4.23247 19.4169 4.65024 19.4169H16.9131C17.2575 19.4169 17.3089 19.366 17.3089 19.0142C17.3089 15.0077 17.3089 11.0012 17.3089 6.99469C17.3089 6.64987 17.24 6.5814 16.8887 6.5814C15.3162 6.5814 13.7434 6.57732 12.1709 6.58507C11.9696 6.58507 11.906 6.53942 11.9072 6.32788C11.9166 4.79579 11.9125 3.26369 11.9121 1.73119C11.9121 1.43284 11.8877 1.40879 11.586 1.40879H4.5891C4.25081 1.40879 4.15992 1.50131 4.15992 1.84572C4.15992 2.71332 4.15992 3.58106 4.15992 4.44894V4.70123H2.79004V4.46361C2.79004 3.31097 2.79004 2.15847 2.79004 1.0061C2.79004 0.420814 3.12589 0.0580676 3.71525 0.0095655C3.78291 0.00426694 3.85097 0.0058968 3.91904 0.0058968C7.14545 0.0058968 10.3717 0.00480984 13.5979 0.00263607C13.6638 -0.00113472 13.7296 0.0107485 13.79 0.0373137C13.8505 0.0638788 13.9038 0.104371 13.9455 0.155479C15.4919 1.87302 17.0397 3.58908 18.5891 5.30363C18.6515 5.37333 18.6804 5.49723 18.6808 5.59587C18.6865 6.9311 18.6849 8.26675 18.6849 9.60239C18.6849 12.9579 18.6849 16.3136 18.6849 19.6696C18.6873 19.8184 18.6744 19.967 18.6466 20.1131C18.5703 20.4726 18.3445 20.6931 17.9855 20.7766C17.9478 20.7889 17.9113 20.8043 17.8762 20.8227H3.59868ZM16.5426 5.20337L16.5834 5.13612L13.3452 1.57753C13.3313 1.61082 13.3207 1.64535 13.3134 1.68065C13.3134 2.7102 13.3089 3.73934 13.3162 4.76889C13.3162 5.05705 13.4161 5.14753 13.7067 5.1887C13.794 5.19943 13.882 5.20406 13.97 5.20255C14.7485 5.20255 15.5271 5.20255 16.3058 5.20255L16.5426 5.20337Z" fill="#3679AE"/>
<path d="M10.8249 16.9366H0V5.88672H10.8249V16.9366ZM8.76666 14.58C8.69777 14.4659 8.6505 14.3799 8.59629 14.2984C7.88112 13.2207 7.16405 12.144 6.44508 11.0683C6.36886 10.9546 6.36926 10.8747 6.44508 10.7614C7.02588 9.88672 7.60057 9.00879 8.17689 8.12964C8.27878 7.97476 8.38068 7.81865 8.50295 7.62953C8.38068 7.6222 8.31017 7.61364 8.23802 7.61364C7.85857 7.61364 7.47789 7.63239 7.10006 7.60671C6.79641 7.58592 6.57754 7.65521 6.45078 7.95112C6.40391 8.06116 6.31791 8.15491 6.25025 8.25599L5.41512 9.504C5.35358 9.41678 5.3063 9.35197 5.26187 9.28554C4.92235 8.77932 4.5808 8.27433 4.24658 7.76404C4.21939 7.71426 4.17846 7.67336 4.12867 7.64619C4.07888 7.61902 4.02234 7.60673 3.96576 7.61079C3.49134 7.6169 3.01691 7.61079 2.5429 7.61405C2.48135 7.61405 2.42062 7.62668 2.32892 7.63687C2.39168 7.73917 2.43244 7.80887 2.47646 7.87571C3.10454 8.83312 3.73059 9.79134 4.36438 10.7451C4.44915 10.8722 4.44956 10.9587 4.36438 11.0862C3.63399 12.1701 2.90836 13.258 2.18749 14.3497C2.14469 14.4141 2.10597 14.4814 2.04565 14.5816C2.1614 14.5869 2.23314 14.5935 2.30487 14.5935C2.99613 14.5935 3.68725 14.5935 4.37823 14.5935C4.66965 14.5935 4.96108 14.5935 5.2525 14.5935C5.36417 14.5935 5.43346 14.5666 5.43142 14.4357C5.42735 14.1097 5.4359 13.7836 5.42327 13.46C5.42123 13.4107 5.33646 13.33 5.28225 13.3234C5.13144 13.3047 4.97697 13.3169 4.77481 13.3169L5.40411 12.3575C5.45384 12.4247 5.48767 12.4655 5.51661 12.5099C5.92989 13.1384 6.34603 13.7648 6.75158 14.3978C6.84165 14.5384 6.93825 14.6016 7.11025 14.5979C7.58467 14.5865 8.0591 14.5947 8.53352 14.5935C8.59955 14.5935 8.66476 14.5869 8.76829 14.58H8.76666Z" fill="#3679AE"/>
<path d="M16.9336 8.36112C16.9336 8.7687 16.936 9.17629 16.9295 9.57898C16.9295 9.61444 16.8741 9.66049 16.8337 9.68087C16.7934 9.70125 16.7408 9.68943 16.6935 9.68943C15.2845 9.68943 13.8755 9.68576 12.4665 9.69391C12.2603 9.69391 12.1926 9.63318 12.2032 9.42817C12.2187 9.12412 12.2093 8.8168 12.2065 8.51356C12.2065 8.40311 12.2289 8.33748 12.3634 8.33789C13.8606 8.34197 15.3576 8.34373 16.8545 8.34319C16.8813 8.34735 16.9077 8.35334 16.9336 8.36112Z" fill="#3679AE"/>
<path d="M16.9386 12.4608C16.8436 12.4657 16.7756 12.4726 16.7116 12.4726C15.2891 12.4726 13.8666 12.4694 12.4438 12.4775C12.251 12.4775 12.1992 12.4164 12.2062 12.235C12.218 11.9306 12.2151 11.6236 12.2062 11.3204C12.2021 11.1688 12.2624 11.1207 12.41 11.1211C13.8528 11.1244 15.2958 11.1244 16.7389 11.1211C16.884 11.1211 16.9447 11.1619 16.9427 11.3176C16.9304 11.6946 16.9386 12.072 16.9386 12.4608Z" fill="#3679AE"/>
<path d="M16.9355 15.2329C16.8417 15.2378 16.7757 15.2443 16.7097 15.2443C15.288 15.2443 13.8668 15.2414 12.4456 15.2488C12.2605 15.2488 12.1953 15.1995 12.2039 15.0112C12.2173 14.7071 12.2145 14.4018 12.2039 14.0974C12.1986 13.9343 12.263 13.8883 12.4178 13.8887C13.8595 13.8923 15.3011 13.8907 16.7427 13.8911C16.8393 13.8911 16.9371 13.8842 16.9359 14.0301C16.9334 14.4234 16.9355 14.8139 16.9355 15.2329Z" fill="#3679AE"/>
</g>
<defs>
<clipPath id="clip0_4058_14463">
<rect width="18.6843" height="20.82" fill="white"/>
</clipPath>
</defs>
</svg>
