<svg width="18" height="14" viewBox="0 0 18 14" fill="none" xmlns="http://www.w3.org/2000/svg">
<g clip-path="url(#clip0_4106_7192)">
<path d="M4.16406 0H12.9827V4.10322C12.977 4.10322 12.9708 4.11035 12.9659 4.10901C12.6518 4.02303 12.4053 4.13218 12.2252 4.42087C12.1842 4.48726 12.1433 4.49617 12.0745 4.47389C11.9538 4.42995 11.8285 4.403 11.7015 4.3937C11.5062 4.3888 11.3465 4.49617 11.215 4.65032C11.1936 4.67738 11.1665 4.69843 11.136 4.71169C11.1055 4.72495 11.0725 4.73003 11.0398 4.7265C10.84 4.72113 10.643 4.77701 10.471 4.88778C10.4327 4.90453 10.3922 4.91461 10.3511 4.91763C10.3351 4.91919 10.3191 4.91919 10.3032 4.91763H8.04578C8.01794 4.91763 7.98968 4.92074 7.95611 4.92297V5.12346H10.1787C10.1377 5.16444 10.116 5.18761 10.0931 5.20766C9.91335 5.36493 9.73564 5.52442 9.5522 5.6759C9.50475 5.7146 9.44766 5.7368 9.38841 5.73961C8.9466 5.74451 8.50479 5.74228 8.06298 5.74228H7.95447V5.95123H9.2062L9.21644 5.98019C9.07476 6.09513 8.94292 6.23057 8.78855 6.32012C8.52362 6.47382 8.2456 6.60035 7.96962 6.734C7.92962 6.75163 7.88565 6.75567 7.84351 6.74559C7.61257 6.68901 7.38081 6.6351 7.15397 6.56248C6.99018 6.51035 6.83295 6.51793 6.67039 6.53708C6.27239 6.58164 5.87398 6.62129 5.47598 6.66361C5.45019 6.66628 5.4248 6.67029 5.39982 6.67519C5.24218 6.70683 5.17339 6.8828 5.27699 7.01512C5.63185 7.46925 5.98973 7.91982 6.3506 8.36683C6.39531 8.41087 6.45026 8.44076 6.50947 8.45326C7.1395 8.63681 7.77035 8.81784 8.40201 8.99634C8.42947 9.00228 8.45472 9.01684 8.47466 9.03821C8.4946 9.05959 8.50835 9.08685 8.51421 9.11663C8.62067 9.45166 8.71607 9.79293 8.84669 10.1164C9.03464 10.5815 9.34378 10.937 9.74751 11.1954C10.3416 11.5728 10.9309 11.9581 11.5225 12.3404L11.6216 12.4063H4.16406V0ZM11.6044 3.26075H7.95815V3.45856H11.6044V3.26075ZM7.95488 4.28856H11.6044V4.09253H7.95488V4.28856ZM9.4699 2.46193V1.35705H9.28809V1.99681C9.22094 1.82841 9.15584 1.66356 9.09032 1.49872C9.02481 1.33388 9.02153 1.32898 8.83768 1.36462V2.46327H9.02276V1.81326C9.0895 1.98523 9.1628 2.15096 9.21767 2.32338C9.25534 2.44233 9.3143 2.49223 9.42649 2.46817C9.43796 2.4655 9.45188 2.4655 9.4699 2.46327V2.46193ZM10.2163 1.65688C10.2163 1.49338 10.157 1.39358 10.0427 1.34992C9.9072 1.29779 9.74915 1.33967 9.67422 1.4466C9.63925 1.49921 9.62066 1.56262 9.62118 1.62754C9.62169 1.69247 9.64128 1.75552 9.67708 1.80747C9.7317 1.87011 9.79191 1.92667 9.85684 1.97632C9.90657 2.0136 9.95391 2.05453 9.99851 2.09883C10.0091 2.10873 10.0173 2.12132 10.0223 2.13549C10.0274 2.14965 10.0291 2.16495 10.0274 2.18003C10.0257 2.1951 10.0206 2.20949 10.0126 2.22191C10.0045 2.23432 9.99379 2.24439 9.98132 2.2512C9.96968 2.26075 9.95632 2.26752 9.94212 2.27107C9.92791 2.27462 9.91318 2.27487 9.89888 2.2718C9.88458 2.26873 9.87104 2.26241 9.85914 2.25326C9.84724 2.2441 9.83725 2.23232 9.82981 2.21868C9.81859 2.19635 9.80966 2.17275 9.8032 2.14829H9.60379C9.60379 2.28194 9.64064 2.38976 9.7512 2.44723C9.81105 2.48196 9.87873 2.49746 9.94637 2.49194C10.014 2.48642 10.0788 2.4601 10.1332 2.41604C10.2311 2.33852 10.2561 2.22358 10.2327 2.09839C10.2123 1.98434 10.1418 1.90994 10.0562 1.8489C9.99055 1.8061 9.92724 1.75909 9.86667 1.70812C9.82367 1.66846 9.81098 1.6052 9.86462 1.56466C9.91826 1.52412 9.96494 1.53882 10.0047 1.60075C10.0256 1.62829 10.0544 1.64729 10.0865 1.65465C10.1296 1.66071 10.1731 1.66191 10.2163 1.65822V1.65688ZM11.593 1.65109C11.5958 1.52323 11.5569 1.42521 11.4558 1.36997C11.4007 1.3368 11.3381 1.32132 11.2753 1.32535C11.2124 1.32937 11.1519 1.35272 11.1008 1.39269C11.0099 1.46085 10.9865 1.56332 11.0021 1.67916C11.0177 1.79499 11.0926 1.87385 11.1786 1.93979C11.2458 1.98611 11.3096 2.0381 11.3694 2.09527C11.3801 2.10496 11.3885 2.11725 11.394 2.13115C11.3995 2.14506 11.4019 2.16017 11.4011 2.17528C11.4002 2.19038 11.396 2.20505 11.389 2.21809C11.3819 2.23112 11.3721 2.24217 11.3604 2.25031C11.3478 2.2594 11.3337 2.26568 11.3188 2.26876C11.304 2.27185 11.2887 2.27169 11.2739 2.26829C11.2591 2.26489 11.2451 2.25832 11.2327 2.24896C11.2202 2.2396 11.2097 2.22764 11.2015 2.21378C11.1923 2.19324 11.1847 2.17194 11.1786 2.15007H10.9784C10.9874 2.38575 11.1249 2.51317 11.3338 2.48644C11.5426 2.4597 11.6564 2.3011 11.6007 2.09616C11.5758 2.00706 11.4992 1.92553 11.4337 1.85469C11.3805 1.79722 11.3039 1.76559 11.2466 1.71168C11.2346 1.69684 11.2256 1.67938 11.2203 1.66048C11.215 1.64159 11.2135 1.62168 11.2158 1.60208C11.2223 1.58755 11.2322 1.57513 11.2445 1.56606C11.2568 1.55699 11.2711 1.55159 11.2859 1.5504C11.3199 1.56071 11.3512 1.57999 11.3768 1.60654C11.3878 1.61589 11.3907 1.63683 11.3964 1.65109H11.593ZM7.40047 1.35304V2.46149H7.59578V2.10507C7.64328 2.10507 7.67767 2.10507 7.71207 2.10507C7.90779 2.09572 8.02326 1.96072 8.02695 1.73752C8.03063 1.51432 7.91803 1.36908 7.72599 1.35393C7.62117 1.34635 7.51552 1.35304 7.40047 1.35304ZM6.59055 2.46683C6.62938 2.46337 6.66841 2.46337 6.70724 2.46683C6.79241 2.48332 6.83541 2.44411 6.85875 2.35634C6.8824 2.28057 6.90974 2.20621 6.94064 2.13358C6.97172 2.22904 7.00753 2.32258 7.04792 2.41382C7.10483 2.52564 7.19942 2.43832 7.2936 2.47307C7.21866 2.29486 7.15765 2.1367 7.08886 1.98523C7.07327 1.95575 7.06506 1.92234 7.06506 1.88833C7.06506 1.85432 7.07327 1.8209 7.08886 1.79143C7.15397 1.6502 7.2117 1.50451 7.27722 1.34814C7.23905 1.35117 7.20073 1.35117 7.16257 1.34814C7.07822 1.33254 7.03277 1.36863 7.01188 1.45863C6.99207 1.52411 6.96897 1.58836 6.94268 1.65109C6.86939 1.49293 6.86079 1.25458 6.61266 1.36863C6.67326 1.51253 6.7314 1.65911 6.79651 1.80167C6.81061 1.82887 6.81801 1.85956 6.81801 1.89078C6.81801 1.922 6.81061 1.95269 6.79651 1.97988C6.7269 2.13581 6.66302 2.29442 6.59055 2.46728V2.46683ZM6.51398 1.35794H5.99764V2.4606H6.5279V2.2512H6.20565V2.0026H6.48531V1.79499H6.20565V1.56288H6.51398V1.35794ZM10.3584 2.46149H10.8879V2.25254H10.5664V2.00082H10.8441V1.79722H10.5656V1.56288H10.8719V1.3566H10.3584V2.46149ZM8.67963 2.25298H8.35656V1.9977H8.63664V1.799H8.35534V1.56154H8.66039V1.35749H8.14774V2.46104H8.68004L8.67963 2.25298ZM7.0643 5.94633V5.74941H5.94236V5.94633H7.0643ZM5.94236 5.11856H7.06552V4.92431H5.94236V5.11856ZM7.06839 4.09386H5.94359V4.28633H7.06839V4.09386ZM5.94441 3.25985V3.45366H7.06389V3.25985H5.94441Z" fill="white"/>
<path d="M11.3668 4.78142C11.5232 4.60856 11.6944 4.55866 11.8926 4.62683C12.6381 4.87572 13.3838 5.12462 14.1299 5.37351C14.2007 5.39713 14.2814 5.44792 14.3285 5.33609C14.3588 5.26392 14.315 5.21714 14.1856 5.17392L12.4822 4.60544C12.4486 4.5943 12.4159 4.58094 12.3827 4.56846C12.4221 4.46459 12.4954 4.38026 12.5886 4.33173C12.6817 4.28319 12.7881 4.27389 12.8872 4.30561C13.4719 4.48382 14.0566 4.66202 14.638 4.85449C14.7916 4.90528 14.9345 4.99928 15.0774 5.08348C15.2025 5.15976 15.295 5.28649 15.3349 5.43633C15.4303 5.77136 15.5347 6.10461 15.5941 6.44989C15.726 7.21217 15.8324 7.97979 15.9487 8.74564C15.9512 8.76212 15.9508 8.7795 15.952 8.80356C15.9336 8.80536 15.9151 8.80536 15.8967 8.80356C14.5632 8.5015 13.2295 8.19958 11.8954 7.89782C11.8348 7.88445 11.7935 7.86218 11.7804 7.79535C11.7198 7.49151 11.5449 7.32845 11.2677 7.26073C11.0978 7.21929 10.9377 7.13019 10.7698 7.07406C10.7109 7.05422 10.6478 7.05422 10.5888 7.07406C10.05 7.28345 9.51399 7.5022 8.97554 7.71204C8.72986 7.80782 8.47764 7.81718 8.23564 7.70046C8.13968 7.65316 8.05219 7.58769 7.97727 7.5071C7.77254 7.28434 7.81758 7.04109 8.08046 6.90921C8.91303 6.49191 9.74561 6.07417 10.5782 5.65597C10.6048 5.64156 10.6339 5.63343 10.6636 5.63213C10.6933 5.63082 10.723 5.63637 10.7506 5.6484C11.4974 5.927 12.2448 6.20381 12.9928 6.47884C13.0079 6.48419 13.0235 6.48865 13.0382 6.49533C13.1029 6.52384 13.1554 6.50647 13.1771 6.43385C13.1988 6.36123 13.1631 6.32202 13.1029 6.30019L12.6116 6.11753C11.9957 5.88853 11.3766 5.66132 10.7624 5.43054C10.7272 5.4157 10.6894 5.40922 10.6516 5.41152C10.6138 5.41382 10.5769 5.42487 10.5434 5.44391C10.2604 5.59048 9.97464 5.73082 9.69006 5.87294C9.66765 5.88617 9.64215 5.89191 9.61676 5.88942C9.92386 5.62211 10.2236 5.345 10.5405 5.09328C10.7837 4.90037 11.0642 4.883 11.3467 4.99482C12.0437 5.27134 12.7397 5.5489 13.435 5.8275L13.4981 5.85334C13.5102 5.86045 13.5236 5.86455 13.5374 5.86532C13.5511 5.8661 13.5649 5.86353 13.5776 5.85782C13.5904 5.85211 13.6018 5.84338 13.611 5.83228C13.6203 5.82118 13.6272 5.80798 13.6311 5.79364C13.6557 5.72325 13.6189 5.68048 13.5615 5.65686C13.4543 5.61231 13.3458 5.57043 13.2377 5.52722L11.3668 4.78142Z" fill="white"/>
<path d="M8.85773 8.05273C9.31633 8.06031 9.68813 8.33341 9.80605 8.81011C9.92644 9.30018 10.2041 9.60358 10.6147 9.79916C10.9194 9.94396 11.2167 10.111 11.5516 10.1587C11.8865 10.2064 12.1809 10.136 12.434 9.88292C12.4529 9.87044 12.4739 9.86216 12.4957 9.85856C12.5176 9.85497 12.5399 9.85613 12.5613 9.86198C13.169 9.99876 13.7754 10.1395 14.3822 10.2794C14.9481 10.4098 15.5143 10.5401 16.0807 10.6702C16.1343 10.6826 16.1626 10.7031 16.1732 10.7659C16.2191 11.0716 16.2719 11.3759 16.3157 11.6819C16.3417 11.852 16.3129 12.0267 16.2343 12.1765C16.1557 12.3262 16.032 12.4418 15.8841 12.5039C15.2155 12.7819 14.544 13.0514 13.8737 13.325C13.7993 13.3532 13.7205 13.3651 13.6419 13.36C13.5632 13.355 13.4863 13.3331 13.4155 13.2956C13.2858 13.2301 13.1601 13.1557 13.0392 13.0728C12.0266 12.4201 11.0234 11.7496 9.99932 11.1192C9.41092 10.757 9.03995 10.2376 8.83972 9.55279C8.72507 9.16163 8.61329 8.77002 8.5015 8.37796C8.45728 8.22248 8.52197 8.10709 8.66774 8.07858C8.73039 8.0661 8.79427 8.0612 8.85773 8.05273Z" fill="white"/>
<path d="M3.96508 1.67014L3.48928 1.50441C3.04542 1.34848 2.60074 1.19255 2.1577 1.03439C2.09096 1.01033 2.05452 1.01657 2.00866 1.08429C1.81211 1.37387 1.54433 1.49773 1.2143 1.4603C1.19546 1.4603 1.17663 1.46031 1.15165 1.4563L0.71598 2.92339L0.797872 2.97729C1.07098 3.1653 1.21675 3.43573 1.20734 3.78725C1.20406 3.90887 1.23805 3.95699 1.33836 3.97214C1.35732 3.97638 1.37604 3.98173 1.39446 3.98817C1.41412 3.92357 1.43295 3.86209 1.45138 3.80106C1.52221 3.56538 1.66307 3.48296 1.88049 3.54934C1.89483 3.55424 1.90998 3.55736 1.92472 3.56137C2.15729 2.46628 3.10356 1.8537 3.95893 2.04661V5.34344L0.00146484 3.95342L1.10702 0.222656L2.35547 0.661491C2.86321 0.839698 3.37094 1.01791 3.87991 1.19611C3.94747 1.21928 3.97081 1.25269 3.96671 1.32977C3.96098 1.43357 3.96508 1.54451 3.96508 1.67014Z" fill="white"/>
<path d="M2.49132 8.05192L2.64733 7.96593C2.60638 7.81891 2.54947 7.68659 2.53923 7.55026C2.52776 7.39433 2.63955 7.30478 2.7714 7.24464C2.54597 6.86517 2.44497 6.41398 2.48477 5.96422C2.50862 5.66934 2.59784 5.38514 2.74478 5.136L3.52931 5.41C3.65215 5.45232 3.77213 5.49687 3.89456 5.53741C3.94328 5.55345 3.96744 5.57528 3.96703 5.63766C3.96498 6.30593 3.96703 6.97421 3.96376 7.64249C3.96223 7.66151 3.95685 7.67992 3.948 7.69641C3.93915 7.71289 3.92705 7.72704 3.91257 7.73783C3.17062 8.15364 2.42758 8.56664 1.68345 8.97681C1.67287 8.98096 1.66207 8.98438 1.6511 8.98706L0.0161133 5.50311L0.867798 5.02908C1.05288 4.92616 1.23632 4.8228 1.42344 4.72212C1.4502 4.70491 1.48149 4.69801 1.51229 4.70251C1.67076 4.75419 1.82717 4.81167 2.00611 4.87493C1.88327 4.94309 1.7809 5.00146 1.67854 5.05893C1.54219 5.13467 1.40379 5.20773 1.26907 5.28792C1.25446 5.29727 1.24204 5.31019 1.2328 5.32565C1.22357 5.34111 1.21776 5.3587 1.21584 5.37703C1.27767 5.77799 1.14746 6.09298 0.851829 6.34291C1.06693 6.80061 1.28204 7.2589 1.49714 7.71778C1.89678 7.58992 2.22517 7.70352 2.49132 8.05192Z" fill="white"/>
<path d="M17.2923 9.5528C17.2346 9.86466 17.1789 10.1685 17.1208 10.4822C16.8661 10.4225 16.62 10.3654 16.3747 10.3075C14.2873 9.81655 12.1998 9.32648 10.1124 8.8373C10.0814 8.83461 10.0521 8.82129 10.0285 8.79927C10.005 8.77725 9.98847 8.74767 9.98137 8.71478C9.85525 8.26213 9.5543 8.01265 9.14893 7.89013C9.19279 7.85266 9.24348 7.82577 9.29763 7.81125C9.35177 7.79673 9.40814 7.79492 9.46298 7.80592L16.1532 9.29574L17.2923 9.5528Z" fill="white"/>
<path d="M8.40523 7.98271C8.28239 8.18854 8.28239 8.19879 8.32743 8.51198L6.76123 8.08652C7.10641 7.81297 7.23457 7.45032 7.20345 7.00391L7.65918 7.1135C7.6727 7.59333 7.82625 7.77064 8.40523 7.98271Z" fill="white"/>
<path d="M6.5396 7.96621L5.81689 7.05423C6.00279 7.03374 6.17067 7.01458 6.33855 6.99676C6.51667 6.9776 6.6956 6.96156 6.87331 6.93973C6.95807 6.92949 7.00311 6.95221 7.01253 7.05557C7.04774 7.45832 6.85366 7.84191 6.5396 7.96621Z" fill="white"/>
<path d="M1.83963 7.03929C1.76333 7.0392 1.68875 7.01456 1.62528 6.96848C1.56182 6.9224 1.51229 6.85692 1.48292 6.7803C1.45356 6.70367 1.44568 6.61931 1.46026 6.53782C1.47484 6.45633 1.51124 6.38135 1.56488 6.3223C1.61852 6.26326 1.68701 6.22279 1.76173 6.20598C1.83645 6.18918 1.91407 6.19678 1.98484 6.22784C2.0556 6.2589 2.11634 6.31203 2.15942 6.38055C2.20251 6.44907 2.22601 6.52992 2.22698 6.61293C2.22763 6.66871 2.21809 6.72407 2.19891 6.77579C2.17973 6.82752 2.1513 6.87459 2.11526 6.91426C2.07922 6.95393 2.03629 6.98541 1.98897 7.00687C1.94166 7.02834 1.89089 7.03936 1.83963 7.03929Z" fill="white"/>
<path d="M1.66843 2.79807C1.59753 2.79674 1.52859 2.77258 1.47031 2.72864C1.41204 2.6847 1.36703 2.62295 1.34099 2.5512C1.31495 2.47944 1.30903 2.4009 1.324 2.32549C1.33896 2.25008 1.37413 2.18119 1.42506 2.12752C1.47599 2.07384 1.54039 2.0378 1.61014 2.02393C1.67989 2.01007 1.75185 2.01901 1.81694 2.04962C1.88202 2.08023 1.9373 2.13114 1.97581 2.19592C2.01431 2.2607 2.0343 2.33645 2.03326 2.41359C2.03257 2.46491 2.02257 2.51559 2.00385 2.56271C1.98513 2.60983 1.95805 2.65247 1.92416 2.68819C1.89027 2.7239 1.85024 2.75199 1.80635 2.77085C1.76247 2.7897 1.7156 2.79895 1.66843 2.79807Z" fill="white"/>
<path d="M10.3331 9.34961L12.2387 9.78844C12.0974 9.90428 11.9554 9.96264 11.8059 9.95685C11.636 9.95061 11.4575 9.93769 11.2994 9.87666C11.0267 9.77196 10.7671 9.63073 10.5022 9.4993C10.4396 9.46176 10.3798 9.41901 10.3232 9.37144L10.3331 9.34961Z" fill="white"/>
<path d="M11.5579 7.82071L10.1284 7.49726V7.47855C10.3061 7.40771 10.483 7.33554 10.6607 7.26737C10.6857 7.26294 10.7113 7.26698 10.734 7.27896C10.9654 7.36806 11.1959 7.46162 11.4272 7.55028C11.5411 7.59483 11.5173 7.72136 11.5755 7.79799L11.5579 7.82071Z" fill="white"/>
<path d="M7.60205 1.91809V1.54297C7.67453 1.57371 7.75888 1.58084 7.78221 1.62584C7.79647 1.65871 7.80387 1.69462 7.80387 1.73098C7.80387 1.76733 7.79647 1.80324 7.78221 1.83612C7.75765 1.88112 7.6733 1.88825 7.60205 1.91809Z" fill="white"/>
</g>
<defs>
<clipPath id="clip0_4106_7192">
<rect width="17.2925" height="13.3633" fill="white"/>
</clipPath>
</defs>
</svg>
