<svg width="18" height="18" viewBox="0 0 18 18" fill="none" xmlns="http://www.w3.org/2000/svg">
<g clip-path="url(#clip0_4106_7158)">
<path d="M7.16058 9.37128C6.90747 8.91709 6.6647 8.52051 6.46251 8.10398C6.30755 7.7842 6.20203 7.45703 6.4389 7.09442C6.53188 6.95262 6.48096 6.7126 6.48539 6.5169C6.50457 5.50881 7.06096 4.966 8.08814 4.95714C9.09909 4.94827 9.67245 5.50364 9.71156 6.50803C9.72263 6.76725 9.84512 7.025 9.84143 7.28053C9.84591 7.58306 9.79334 7.88372 9.68647 8.16675C9.51675 8.56925 9.26881 8.93851 9.02234 9.37571C9.48354 9.5921 9.92113 9.84689 10.3904 10.0079C11.3128 10.3232 11.7069 11.0182 11.8707 11.9052C11.9652 12.4147 11.9105 12.5159 11.4029 12.6252C10.0683 12.9227 8.69829 13.0284 7.33399 12.9391C6.47801 12.8778 5.62424 12.7596 4.77637 12.6215C4.26352 12.5381 4.22072 12.411 4.30853 11.9074C4.47456 10.9724 4.91584 10.2907 5.8589 9.97539C6.30681 9.82326 6.72226 9.57733 7.16058 9.37128Z" fill="white"/>
<path d="M0 9.75348L1.80052 9.59766C2.10749 12.051 3.25864 13.9631 5.39048 15.1971C7.52232 16.4312 9.75231 16.4659 12.048 15.5169L12.8102 17.1483C10.0209 18.341 7.29431 18.3159 4.66142 16.861C1.8994 15.3338 0.396261 12.9291 0 9.75348Z" fill="white"/>
<path d="M9.61816 1.78112C9.67203 1.16667 9.72221 0.594315 9.77239 0.0234375C14.9378 0.318846 18.8783 5.45527 17.8304 10.5282L16.0993 10.2261C16.3945 8.15235 15.9901 6.25066 14.7054 4.58677C13.431 2.93469 11.7308 2.01892 9.61816 1.78112Z" fill="white"/>
<path d="M1.76961 8.33865L0.0546875 8.18652C0.207436 4.45994 3.41221 0.39954 8.2035 0C8.25663 0.580478 8.30951 1.16022 8.36215 1.73922C4.60468 2.37361 2.42266 4.54782 1.76961 8.33865Z" fill="white"/>
<path d="M9.4873 9.23504C9.67843 8.88719 9.84741 8.59031 10.0038 8.28825C10.2186 7.88059 10.299 7.46776 10.1167 7.01356C10.043 6.8282 10.0474 6.60516 10.043 6.39837C10.04 5.95138 9.87839 5.51999 9.58692 5.18129C9.55206 5.13182 9.52855 5.07525 9.51809 5.01562C9.50763 4.956 9.51047 4.8948 9.52641 4.8364C9.72122 4.29433 10.3116 4.00113 11.017 4.06538C11.704 4.13037 12.1482 4.48634 12.2567 5.07716C12.3411 5.46684 12.4005 5.86153 12.4345 6.25879C12.4363 6.49077 12.3838 6.71993 12.2811 6.9279C12.118 7.28165 11.9077 7.61398 11.6907 8.00835C12.1209 8.21071 12.5246 8.44261 12.9563 8.59917C13.8196 8.90714 14.1229 9.58584 14.2579 10.4071C14.3059 10.7025 14.1841 10.8561 13.9074 10.9019C13.3503 10.9949 12.7924 11.085 12.2331 11.1574C12.1838 11.1576 12.1352 11.1455 12.0917 11.1223C12.0482 11.0991 12.0111 11.0655 11.9837 11.0245C11.6848 10.2719 11.0687 9.89749 10.3603 9.61686C10.0902 9.50903 9.82232 9.38274 9.4873 9.23504Z" fill="white"/>
<path d="M14.16 16.3554L13.127 14.8783C14.3339 14.0212 15.255 12.8202 15.7702 11.4316L17.463 12.0498C16.8055 13.8222 15.7148 15.2291 14.16 16.3554Z" fill="white"/>
</g>
<defs>
<clipPath id="clip0_4106_7158">
<rect width="18" height="18" fill="white"/>
</clipPath>
</defs>
</svg>
