<svg width="24" height="17" viewBox="0 0 24 17" fill="none" xmlns="http://www.w3.org/2000/svg">
<g clip-path="url(#clip0_4106_7339)">
<path d="M22.0852 13.1476C21.826 13.1767 21.5637 13.2475 21.3083 13.2285C20.3422 13.1657 19.4293 12.7625 18.7309 12.0901C18.1898 11.5714 17.6443 11.4209 16.902 11.4298C14.7484 11.457 12.866 10.7037 11.3613 9.12189C9.64978 7.32505 9.35212 4.77303 10.6096 2.844C11.5978 1.32608 13.0407 0.463392 14.7869 0.155379C17.6102 -0.343639 20.1151 0.336897 22.0524 2.52271C24.2514 5.00389 23.7551 8.43693 20.9967 10.2724C20.7552 10.4336 20.6865 10.5981 20.7199 10.8688C20.822 11.6853 21.2767 12.2842 21.8695 12.8035C21.9458 12.8699 22.0215 12.9376 22.0978 13.0046L22.0852 13.1476ZM15.2933 3.12419H13.6177C13.6398 3.46129 13.6587 3.74211 13.6808 4.05455H15.2807C15.2807 4.20445 15.263 4.32272 15.2807 4.43403C15.3702 4.91787 15.2031 5.18857 14.739 5.42511C13.9311 5.83748 13.3699 6.50031 13.2696 7.4604C13.1813 8.33257 13.6909 8.90622 14.5592 8.84297C14.9679 8.81198 15.3671 8.66335 15.7997 8.56089L16.0696 9.03271L16.9216 8.4812C16.5287 8.08591 16.6864 7.78549 17.0477 7.51669C17.0801 7.48965 17.108 7.45763 17.1303 7.42182C17.4955 6.8994 17.8606 6.37571 18.2339 5.84064C18.8545 6.00825 19.2114 6.51169 19.1313 7.15555C19.0727 7.62863 18.7914 7.94107 18.3878 8.14726C18.1387 8.27375 17.8713 8.36672 17.5919 8.48247L17.9874 9.34136C18.4212 9.14087 18.8482 8.98844 19.2284 8.75886C19.9997 8.29273 20.3005 7.57487 20.1958 6.68562C20.0962 5.83052 19.5885 5.29862 18.8166 4.99819C18.6274 4.92356 18.4729 4.86031 18.5442 4.61049L17.5957 4.38027C17.5535 4.52131 17.5245 4.61871 17.4986 4.70599L16.3042 4.80909V4.02988L19.3615 3.76108C19.323 3.37148 19.294 3.07232 19.2644 2.77443L16.3464 3.09889C16.3666 2.71119 16.3824 2.40317 16.3988 2.07872L15.3482 2.00029C15.3255 2.3842 15.3116 2.72763 15.2933 3.12419Z" fill="white"/>
<path d="M13.0869 11.3503C12.5016 12.4255 11.6995 13.285 10.6545 13.9029C9.14102 14.7985 7.50138 15.1495 5.75264 14.9851C5.66584 14.9737 5.57759 14.9843 5.49588 15.0157C5.41417 15.0472 5.34159 15.0986 5.28471 15.1654C4.46489 15.992 3.51894 16.5941 2.35354 16.7788C2.00795 16.8332 1.64912 16.8774 1.29597 16.6099C1.47317 16.4486 1.62768 16.3139 1.77525 16.171C2.31191 15.6498 2.7048 15.0502 2.70669 14.2736C2.69997 14.2014 2.67826 14.1314 2.64296 14.0681C2.60767 14.0048 2.55956 13.9496 2.50173 13.9061C1.32876 13.1073 0.462903 12.0776 0.137498 10.671C-0.250971 8.9893 0.20056 7.48971 1.27894 6.18619C3.2339 3.82898 6.57624 3.06939 9.3403 3.88907C9.34912 3.88907 9.35669 3.90108 9.3466 3.89349C8.61381 7.36638 10.1872 9.66477 13.0869 11.3503ZM9.28354 12.8271C8.61759 10.4383 7.96615 8.09878 7.31029 5.74347C6.81714 5.74347 6.3448 5.75295 5.87309 5.73904C5.66876 5.73271 5.58867 5.79786 5.53191 6.00088C4.95741 8.05894 4.36903 10.1119 3.7857 12.1687C3.72705 12.3762 3.67471 12.5855 3.61164 12.8252C3.99948 12.8252 4.3457 12.8119 4.69065 12.8303C4.90822 12.8417 5.00597 12.7753 5.05516 12.5552C5.15417 12.1029 5.29354 11.6602 5.39885 11.2093C5.44173 11.0246 5.513 10.9443 5.71417 10.9506C6.17579 10.9645 6.63867 10.9626 7.10156 10.9506C7.29074 10.9462 7.38219 11.0043 7.42885 11.1953C7.54615 11.676 7.67732 12.1529 7.82237 12.626C7.84696 12.707 7.96111 12.8113 8.03741 12.8157C8.43408 12.8366 8.83012 12.8271 9.28354 12.8271Z" fill="white"/>
<path d="M15.3306 6.11719C15.3937 6.57889 15.4536 7.0134 15.5122 7.44537C15.5189 7.47601 15.5189 7.50771 15.5122 7.53834C15.4599 7.71796 14.8185 7.95071 14.5518 7.87925C14.2623 7.80082 14.2409 7.5687 14.2661 7.3271C14.3166 6.84263 14.758 6.34108 15.3306 6.11719Z" fill="white"/>
<path d="M16.2715 5.73782L17.1191 5.61133L17.1928 5.68533L16.4796 6.81998L16.3692 6.79341C16.3377 6.45441 16.3062 6.1192 16.2715 5.73782Z" fill="white"/>
<path d="M7.14108 9.91186H5.67676C5.91955 8.91635 6.15793 7.94108 6.41018 6.91016C6.65802 7.93412 6.8964 8.91002 7.14108 9.91186Z" fill="white"/>
</g>
<defs>
<clipPath id="clip0_4106_7339">
<rect width="23.4286" height="16.8205" fill="white"/>
</clipPath>
</defs>
</svg>
