<svg width="10" height="14" viewBox="0 0 10 14" fill="none" xmlns="http://www.w3.org/2000/svg">
<path d="M5.03276 11.7447C4.98949 11.7088 4.94914 11.671 4.91194 11.6316C3.77746 10.2509 2.68406 8.8536 1.72537 7.40243C1.16297 6.55031 0.624722 5.69047 0.227533 4.78817C-0.655948 2.77229 1.12581 0.578805 3.97289 0.160224C6.47684 -0.207521 8.88353 0.782814 9.72925 2.53307C9.89175 2.86978 9.96213 3.2186 9.99233 3.57732C10.0527 4.29586 9.74677 4.95102 9.40305 5.602C8.72042 6.89824 7.85507 8.13088 6.93685 9.34327C6.36629 10.0975 5.76552 10.8398 5.17714 11.5861C5.13817 11.6375 5.08985 11.6831 5.03276 11.7447ZM8.66304 3.77803C8.66304 2.31277 7.01055 1.1017 5.0083 1.10214C2.96466 1.10214 1.31248 2.30045 1.31157 3.78265C1.31157 5.27629 2.95258 6.47152 5.0086 6.47372C7.02807 6.47636 8.66183 5.27101 8.66304 3.77847V3.77803Z" fill="#3679AE"/>
<path d="M5.08187 13.241C4.49197 13.2359 3.90601 13.204 3.34028 13.0713C3.20123 13.0396 3.06904 12.9937 2.94762 12.9351C2.75189 12.8384 2.74646 12.6881 2.95577 12.6098C3.20255 12.5171 3.46925 12.4337 3.74109 12.3994C4.75566 12.2674 5.77174 12.2599 6.77422 12.4637C6.93307 12.4971 7.08408 12.5479 7.22216 12.6142C7.41939 12.7082 7.42845 12.8448 7.22397 12.9304C7.00619 13.0216 6.76214 13.0981 6.51688 13.1314C6.04418 13.1954 5.56302 13.2242 5.08519 13.2676L5.08187 13.241Z" fill="#3679AE"/>
<path d="M4.89774 5.17746C3.78531 5.17482 2.92751 4.53924 2.93264 3.72299C2.93808 2.92236 3.80676 2.30901 4.93399 2.31055C6.00021 2.31209 6.87402 2.95999 6.86707 3.74433C6.86719 3.93271 6.81632 4.11925 6.71736 4.29328C6.61841 4.46731 6.47331 4.62541 6.29039 4.75852C6.10747 4.89164 5.8903 4.99717 5.65133 5.06905C5.41236 5.14094 5.15628 5.17778 4.89774 5.17746Z" fill="#3679AE"/>
</svg>
