<svg width="6" height="8" viewBox="0 0 6 8" fill="none" xmlns="http://www.w3.org/2000/svg">
<g clip-path="url(#clip0_4058_14391)">
<path d="M3.35834 7.6184C3.54379 7.33079 3.72676 7.05541 3.90123 6.77506C4.47491 5.85285 5.04694 4.9294 5.61731 4.0047C6.54664 2.49561 5.71843 0.416705 3.83533 0.0470474C2.43565 -0.227295 1.02788 0.728137 0.764109 2.13197C0.643722 2.77182 0.716451 3.38785 1.06083 3.94669C1.80947 5.16237 2.57158 6.36976 3.3283 7.58048C3.33763 7.59364 3.34766 7.6063 3.35834 7.6184ZM3.35047 1.48817C3.65887 1.48768 3.95485 1.60972 4.17327 1.82744C4.28143 1.93525 4.36729 2.06331 4.42595 2.20429C4.48461 2.34528 4.51494 2.49645 4.51518 2.64915C4.51542 2.80186 4.48559 2.95312 4.42738 3.0943C4.36916 3.23548 4.28372 3.3638 4.17591 3.47196C3.95818 3.69038 3.6626 3.81337 3.3542 3.81387C2.71911 3.81594 2.19384 3.29274 2.19384 2.65661C2.19197 2.0064 2.7044 1.489 3.35047 1.48817Z" fill="#3679AE"/>
</g>
<defs>
<clipPath id="clip0_4058_14391">
<rect width="5.28979" height="7.61797" fill="white" transform="matrix(-1 0 0 1 6 0)"/>
</clipPath>
</defs>
</svg>
