<svg width="12" height="12" viewBox="0 0 12 12" fill="none" xmlns="http://www.w3.org/2000/svg">
<g clip-path="url(#clip0_4106_7289)">
<path d="M6.03155 9.8939H7.91839C7.91839 9.85431 7.91839 9.81955 7.91839 9.78238C7.91839 9.01098 7.91691 8.23959 7.91969 7.46838C7.91969 7.2483 8.02453 7.08157 8.22305 6.9851C8.42157 6.88863 8.61544 6.90963 8.79072 7.04291C8.9357 7.15295 8.99927 7.30407 8.99909 7.48716C8.99748 8.46301 8.9971 9.43887 8.99797 10.4147C8.99797 10.7504 8.76897 10.9804 8.43253 10.9809C7.67353 10.982 6.91453 10.982 6.15553 10.9809H6.03155C6.03155 11.1281 6.03415 11.2698 6.03155 11.411C6.02393 11.754 5.76147 12.0008 5.43823 11.9655C5.33097 11.9538 5.2254 11.9267 5.11926 11.9055C3.98231 11.6797 2.84554 11.4529 1.70896 11.225C1.2846 11.14 0.860242 11.0551 0.436627 10.9675C0.173052 10.9131 0.000557633 10.701 0.000557633 10.4311C-0.000185878 7.14725 -0.000185878 3.86341 0.000557633 0.579567C0.000557633 0.229373 0.233277 0 0.585887 0C3.20676 0 5.82764 0 8.44852 0C8.766 0 8.99779 0.232905 8.99797 0.552243C8.99909 1.5343 8.99909 2.51635 8.99797 3.49841C8.99797 3.8144 8.76377 4.05158 8.45781 4.05083C8.15539 4.0499 7.91877 3.80826 7.91877 3.49432C7.91765 2.72924 7.91765 1.96411 7.91877 1.19891V1.08515H4.26459C4.30363 1.10058 4.32389 1.11025 4.34508 1.11657C4.77086 1.24532 5.19677 1.37388 5.6228 1.50226C5.88062 1.58052 6.02244 1.76677 6.03173 2.03518C6.03285 2.06919 6.03173 2.10339 6.03173 2.13741V9.8939H6.03155Z" fill="white"/>
<path d="M10.1051 6.03097H9.99355C9.16342 6.03097 8.33311 6.02558 7.50279 6.03302C7.11654 6.03655 6.84367 5.69323 6.95464 5.32668C7.0249 5.09433 7.23698 4.94879 7.50242 4.9486C8.33577 4.94786 9.16912 4.94786 10.0025 4.9486H10.1112C10.0848 4.91775 10.0694 4.89693 10.0512 4.8789C9.89169 4.71867 9.73072 4.55975 9.57179 4.39878C9.35023 4.17442 9.3467 3.83891 9.56213 3.62497C9.77756 3.41102 10.1144 3.41381 10.3367 3.63519C10.8238 4.1207 11.3101 4.60696 11.7956 5.09396C12.0295 5.32854 12.031 5.65327 11.7973 5.88822C11.3124 6.37596 10.8262 6.86228 10.3385 7.34717C10.1123 7.57227 9.77254 7.5732 9.55785 7.35423C9.34595 7.1388 9.35339 6.80627 9.57644 6.58043C9.74856 6.40644 9.92217 6.23395 10.0949 6.05997C10.0984 6.05569 10.0988 6.04863 10.1051 6.03097Z" fill="white"/>
</g>
<defs>
<clipPath id="clip0_4106_7289">
<rect width="11.9716" height="11.97" fill="white"/>
</clipPath>
</defs>
</svg>
