<svg width="16" height="16" viewBox="0 0 16 16" fill="none" xmlns="http://www.w3.org/2000/svg">
<g clip-path="url(#clip0_4106_7221)">
<path d="M0 7.2693C0.402552 7.18612 0.804765 7.10012 1.20749 7.01762C1.4179 6.97453 1.41333 6.97553 1.46192 6.77059C1.5105 6.56566 1.56839 6.36288 1.62781 6.16077C1.64474 6.10621 1.6356 6.0776 1.58803 6.04433C1.26216 5.81561 0.938158 5.58489 0.613307 5.35433C0.602134 5.34635 0.591808 5.3377 0.576065 5.32422C0.674248 5.13359 0.772263 4.94352 0.870107 4.75399C1.03126 4.44276 1.19445 4.13269 1.35239 3.81997C1.38337 3.75875 1.41198 3.75143 1.47546 3.77256C1.87344 3.90464 2.27311 4.03156 2.67194 4.16131C2.71409 4.17511 2.74338 4.18276 2.78197 4.14184C2.9604 3.95254 3.14136 3.7669 3.32841 3.58658C3.38462 3.53236 3.40104 3.49509 3.36566 3.42107C3.21043 3.09487 3.0623 2.76534 2.91181 2.43681C2.89945 2.40953 2.88862 2.38158 2.87474 2.34831C3.04538 2.23869 3.2133 2.13107 3.38004 2.02411C3.6922 1.82449 4.00639 1.62737 4.316 1.42526C4.37102 1.3895 4.39929 1.39765 4.44042 1.44339C4.71128 1.74481 4.98517 2.04224 5.25619 2.34415C5.29005 2.38225 5.319 2.39273 5.37147 2.37825C5.63442 2.30551 5.89845 2.23658 6.16354 2.17149C6.22482 2.15652 6.25309 2.13506 6.25919 2.07085C6.29304 1.70938 6.33232 1.34841 6.36549 0.986777C6.37142 0.922069 6.39072 0.896452 6.45995 0.893291C7.00662 0.867785 7.55306 0.839673 8.09928 0.808954C8.16834 0.805128 8.18476 0.831744 8.19661 0.888966C8.27838 1.28237 8.3642 1.67511 8.44563 2.06885C8.45663 2.12275 8.47864 2.1467 8.53416 2.16018C8.80196 2.2256 9.06892 2.29447 9.33503 2.36678C9.38802 2.38125 9.4151 2.3731 9.44625 2.32985C9.66191 2.03159 9.88147 1.73616 10.0966 1.43741C10.1342 1.38517 10.1625 1.37087 10.2248 1.40314C10.7033 1.64617 11.1827 1.88754 11.6647 2.12358C11.7446 2.16284 11.7493 2.20076 11.7243 2.27595C11.5941 2.65372 11.4703 3.03365 11.3414 3.41176C11.3219 3.46881 11.3265 3.50524 11.3752 3.54799C11.5892 3.73679 11.7984 3.93059 12.0259 4.13602L13.1733 3.62917C13.1903 3.64963 13.2046 3.66576 13.2165 3.68373C13.5178 4.13935 13.8178 4.59563 14.1208 5.05009C14.1546 5.09999 14.1516 5.12561 14.1054 5.1657C13.7809 5.44616 13.4606 5.73044 13.1371 6.01123C13.0949 6.04783 13.0875 6.07777 13.1032 6.13183C13.1723 6.37458 13.237 6.61856 13.2972 6.86375C13.3125 6.92596 13.3375 6.94809 13.4022 6.95374C13.7926 6.98851 14.1824 7.02959 14.5728 7.06419C14.6405 7.07002 14.6554 7.09746 14.6574 7.15652C14.6843 7.69082 14.7133 8.22501 14.7444 8.75908C14.7487 8.83111 14.7253 8.85324 14.6569 8.86671C14.2423 8.94822 13.8289 9.03538 13.4144 9.11756C13.3501 9.13037 13.3255 9.15765 13.3094 9.22152C13.2417 9.49283 13.1644 9.76198 13.0894 10.0318C13.0821 10.0581 13.0704 10.083 13.0567 10.1191C13.0303 10.0968 13.0091 10.0807 12.99 10.0626C12.5325 9.62663 12.0745 9.19092 11.6159 8.75542C11.5706 8.71251 11.558 8.67225 11.5651 8.6102C11.7322 7.00015 11.1927 5.66873 9.88926 4.67465C8.13009 3.33507 5.58443 3.63233 4.15197 5.32456C3.39173 6.22232 3.07009 7.25998 3.16455 8.42273C3.29811 10.0592 4.41249 11.488 5.9858 12.0377C6.65581 12.272 7.34377 12.3265 8.04528 12.2157C8.09352 12.2081 8.12873 12.2106 8.1658 12.249C8.61192 12.7043 9.05905 13.1587 9.50719 13.612C9.5204 13.6255 9.53191 13.6408 9.55662 13.6698C9.3545 13.7336 9.16406 13.7982 8.97091 13.8527C8.83853 13.8907 8.7026 13.9171 8.56768 13.9459C8.52096 13.9559 8.4981 13.9717 8.49303 14.0249C8.45917 14.3919 8.41888 14.7583 8.38181 15.1251C8.3769 15.174 8.37554 15.2139 8.30512 15.2173C7.74158 15.2444 7.17839 15.2752 6.61502 15.3046C6.60401 15.3046 6.59284 15.3029 6.57253 15.3014C6.55001 15.1978 6.52665 15.0933 6.50481 14.9887C6.43879 14.674 6.37108 14.3596 6.30675 14.0444C6.29507 13.9865 6.26883 13.9662 6.21026 13.9517C5.95363 13.8882 5.6983 13.8195 5.44426 13.7456C5.37841 13.7266 5.34117 13.7301 5.29834 13.7902C5.08606 14.0873 4.8682 14.3805 4.65203 14.6751C4.6373 14.6953 4.62156 14.7147 4.59955 14.7432L2.9951 13.9411C3.00492 13.9115 3.01406 13.8838 3.02337 13.8561C3.15439 13.4639 3.2857 13.0719 3.41729 12.6798C3.43201 12.6364 3.43201 12.6075 3.3941 12.571C3.19621 12.3817 3.00052 12.19 2.80923 11.9943C2.76691 11.9511 2.73796 11.9684 2.69936 11.9855C2.34455 12.1429 1.98979 12.3001 1.63509 12.4571C1.60022 12.4726 1.5728 12.4882 1.54317 12.4433C1.22763 11.9641 0.910058 11.486 0.5891 11.0014C0.613815 10.9783 0.635314 10.9573 0.657659 10.9375C0.972974 10.6603 1.28863 10.3834 1.60462 10.1068C1.64813 10.0691 1.65913 10.0383 1.64237 9.98022C1.57229 9.73503 1.50864 9.48801 1.44702 9.24065C1.43449 9.19075 1.41858 9.16779 1.36153 9.16247C0.965582 9.12587 0.57014 9.08329 0.17436 9.04686C0.112572 9.04104 0.0944592 9.02008 0.0915814 8.96119C0.0680513 8.48777 0.0407969 8.01452 0.0154047 7.54127C0.013204 7.50035 0.00524773 7.45976 0 7.41901V7.2693Z" fill="white"/>
<path d="M4.65401 6.8708C4.68177 6.89626 4.70242 6.91405 4.72172 6.93302C5.22957 7.43305 5.73775 7.93325 6.24627 8.43362C6.42317 8.60761 6.62478 8.60844 6.8027 8.43362C7.1583 8.0854 7.51301 7.7363 7.8668 7.38631C8.04523 7.20982 8.0437 7.01436 7.86596 6.8397C7.35743 6.33989 6.84891 5.83996 6.34039 5.33993C6.32126 5.32113 6.30332 5.30067 6.26455 5.25942C6.47548 5.20536 6.66541 5.14298 6.86042 5.10971C8.52937 4.82227 10.0676 5.93445 10.2891 7.58343C10.3307 7.90341 10.3167 8.22801 10.2477 8.5434C10.2367 8.5958 10.2449 8.62957 10.2847 8.66733C11.6143 9.93155 12.9431 11.1968 14.2711 12.463C14.4979 12.6792 14.7281 12.8918 14.9502 13.1126C15.1723 13.3333 15.2719 13.603 15.1933 13.911C14.9543 14.8446 14.3567 15.4293 13.3989 15.6425C13.1022 15.7091 12.8372 15.6092 12.6278 15.3982C11.7109 14.4726 10.7962 13.5451 9.88362 12.6155C9.29283 12.0167 8.70215 11.4174 8.11158 10.8177C8.07011 10.7754 8.03388 10.7621 7.97227 10.7748C6.33277 11.1123 4.73476 10.0284 4.47423 8.40218C4.39526 7.91792 4.44411 7.42186 4.61609 6.96146C4.62625 6.93385 4.63877 6.90707 4.65401 6.8708Z" fill="white"/>
</g>
<defs>
<clipPath id="clip0_4106_7221">
<rect width="15.2199" height="14.8538" fill="white" transform="translate(0 0.808594)"/>
</clipPath>
</defs>
</svg>
