<svg width="5" height="17" viewBox="0 0 5 17" fill="none" xmlns="http://www.w3.org/2000/svg">
<g clip-path="url(#clip0_4058_11396)">
<path d="M4.76769 6.48621C4.70519 7.72549 4.64837 8.96874 4.57792 10.21C4.55348 10.6343 4.55576 11.0701 4.44212 11.4785C4.14496 12.5438 2.86769 13.1243 1.76655 12.7109C0.950077 12.4045 0.512577 11.825 0.467123 11.0626C0.338145 8.90182 0.239849 6.74002 0.129054 4.5787C0.0853038 3.71418 0.0347357 2.84966 0.00121293 1.98464C-0.0232189 1.35855 0.323371 0.886134 0.866553 0.509888C2.10008 -0.344227 3.84951 -0.102318 4.69098 1.03733C4.90055 1.30479 5.00812 1.62309 4.99837 1.94696C4.92508 3.45988 4.84439 4.97081 4.76598 6.48571L4.76769 6.48621ZM3.3978 6.43664C3.41882 6.04007 3.44042 5.64647 3.45974 5.25089C3.51428 4.14545 3.56731 3.04001 3.61883 1.93457C3.62531 1.85467 3.60371 1.77495 3.5569 1.70604C3.30235 1.39325 2.95576 1.18901 2.51087 1.18406C2.05633 1.1791 1.70349 1.38879 1.44269 1.70456C1.39244 1.77941 1.36982 1.86595 1.37792 1.95241C1.42526 3.03307 1.4764 4.11389 1.53133 5.19488C1.61125 6.81421 1.69288 8.43205 1.77621 10.0484C1.79553 10.4182 1.80519 10.792 1.86599 11.1558C1.88502 11.2927 1.96086 11.4187 2.07917 11.51C2.19748 11.6013 2.35005 11.6517 2.50803 11.6515C2.80008 11.6486 3.05405 11.4533 3.13814 11.1558C3.15867 11.091 3.1718 11.0246 3.17735 10.9575C3.25197 9.44859 3.32545 7.94162 3.3978 6.43664Z" fill="#3679AE"/>
<path d="M2.50415 17C2.09992 17.0022 1.70404 16.8997 1.36647 16.7057C1.02891 16.5117 0.764802 16.2348 0.607505 15.9099C0.450208 15.585 0.406769 15.2268 0.482678 14.8804C0.558587 14.534 0.750438 14.2149 1.03401 13.9636C1.31757 13.7123 1.68014 13.5399 2.07593 13.4682C2.47173 13.3965 2.883 13.4287 3.25781 13.5608C3.63262 13.6929 3.95417 13.9189 4.18186 14.2103C4.40955 14.5017 4.53317 14.8454 4.5371 15.1981C4.54079 15.4332 4.49095 15.6667 4.3905 15.8849C4.29004 16.1031 4.14095 16.3018 3.95186 16.4694C3.76278 16.637 3.53746 16.7702 3.28895 16.8613C3.04044 16.9524 2.77369 16.9995 2.50415 17ZM2.49733 15.8058C2.63011 15.8049 2.75959 15.7696 2.86946 15.7046C2.97932 15.6395 3.06467 15.5475 3.11473 15.4402C3.16479 15.3329 3.17734 15.2151 3.15079 15.1016C3.12424 14.9881 3.05978 14.884 2.96554 14.8023C2.87129 14.7207 2.75146 14.6653 2.62116 14.643C2.49086 14.6207 2.35591 14.6325 2.2333 14.677C2.1107 14.7215 2.00593 14.7967 1.93219 14.893C1.85845 14.9893 1.81904 15.1026 1.81892 15.2184C1.82115 15.3744 1.89351 15.5233 2.0204 15.6332C2.14729 15.7431 2.31856 15.8051 2.49733 15.8058Z" fill="#3679AE"/>
</g>
<defs>
<clipPath id="clip0_4058_11396">
<rect width="5" height="17" fill="white"/>
</clipPath>
</defs>
</svg>
