<svg width="19" height="18" viewBox="0 0 19 18" fill="none" xmlns="http://www.w3.org/2000/svg">
<g clip-path="url(#clip0_4106_7051)">
<path d="M0.00636702 14.5022H2.89999V13.8571C2.89999 9.99469 2.89999 6.13228 2.89999 2.26987C2.89999 0.815489 3.66377 0.00727189 5.08062 0.00519421C8.65304 -0.0017314 12.2251 -0.0017314 15.7969 0.00519421C17.3549 0.00519421 18.0638 0.747964 18.0669 2.32492C18.0669 2.68748 18.0669 3.05212 18.0669 3.46246H15.223V5.03942C16.521 5.30432 17.6169 5.95048 18.3462 7.15554C18.828 7.93949 19.0529 8.86018 18.9881 9.78381C18.852 11.9249 17.6494 13.2722 15.1763 14.0264C15.1763 14.63 15.1763 15.2512 15.1763 15.8714C15.1661 17.1284 14.3871 17.9792 13.1551 17.9855C9.43104 18.0042 5.70694 18.0042 1.98285 17.9855C0.824992 17.9792 0.0530879 17.17 0.00839878 15.9857C-0.00480483 15.5068 0.00636702 15.0248 0.00636702 14.5022ZM14.1647 14.0358C11.4041 13.5455 10.3631 11.5093 10.227 9.95833C10.1308 8.9835 10.3544 8.00364 10.8628 7.1732C11.6235 5.92139 12.7621 5.25238 14.2338 5.0041V1.06585C14.1718 1.06585 14.0408 1.04404 13.9108 1.04404C10.9816 1.04404 8.05278 1.04404 5.12429 1.04404C4.23254 1.04404 3.91768 1.38062 3.91768 2.30934C3.91768 6.17175 3.91768 10.0338 3.91768 13.8955V14.5085H12.2776C12.2776 15.0445 12.2553 15.5265 12.2837 16.0054C12.3182 16.5706 12.7336 16.9601 13.2394 16.9528C13.4796 16.948 13.709 16.8497 13.8807 16.6779C14.0524 16.5061 14.1536 16.2738 14.1637 16.0283C14.187 15.3728 14.1647 14.7162 14.1647 14.0358ZM14.5446 12.9793C14.9901 12.9895 15.4331 12.9094 15.8482 12.7437C16.2633 12.578 16.6423 12.33 16.9633 12.0138C17.2843 11.6977 17.5409 11.3197 17.7185 10.9017C17.896 10.4837 17.991 10.0338 17.9978 9.57812C18.0435 7.7082 16.5322 6.10423 14.6959 6.0741C12.7997 6.04398 11.2538 7.54822 11.2274 9.45034C11.2165 9.90526 11.2939 10.3579 11.4551 10.782C11.6163 11.2061 11.8582 11.5933 12.1667 11.9212C12.4752 12.2491 12.8442 12.5112 13.2523 12.6923C13.6605 12.8734 14.0997 12.9698 14.5446 12.9762V12.9793ZM11.204 15.5764H1.05961C0.945854 16.5321 1.28813 16.9601 2.17684 16.9622C5.11752 16.9684 8.0582 16.9684 10.9989 16.9622C11.1349 16.9547 11.2705 16.9402 11.4051 16.9186C11.3341 16.4428 11.269 16.021 11.204 15.5702V15.5764ZM17.0258 2.43193C17.0949 1.92185 17.0644 1.47308 16.6033 1.18532C16.4467 1.07929 16.2613 1.0268 16.0737 1.03539C15.886 1.04397 15.7059 1.1132 15.5592 1.23311C15.1621 1.53541 15.1113 1.96029 15.2281 2.42777L17.0258 2.43193Z" fill="white"/>
<path d="M5.05518 4.28955V3.32031H13.019V4.28955H5.05518Z" fill="white"/>
<path d="M5.05176 13.568V12.6133H10.6958V13.568H5.05176Z" fill="white"/>
<path d="M10.6962 5.66602V6.62383H5.05518V5.66602H10.6962Z" fill="white"/>
<path d="M9.30449 7.98633V8.95453H5.07324V7.98633H9.30449Z" fill="white"/>
<path d="M5.04883 11.2636V10.2871H9.28922V11.2636H5.04883Z" fill="white"/>
<path d="M14.2761 11.6081L12.9629 10.9848C13.0929 10.7043 13.1914 10.4913 13.2808 10.3012C13.7185 10.4674 14.1248 10.6856 14.5544 10.7604C14.7769 10.7998 15.1902 10.6471 15.2563 10.4757C15.3944 10.1184 15.0287 10.0114 14.7545 9.91474C14.4356 9.80255 14.1004 9.72464 13.7998 9.57504C13.6316 9.49221 13.4884 9.36443 13.3854 9.20521C13.2823 9.046 13.2233 8.86127 13.2144 8.67055C13.2056 8.47983 13.2473 8.29021 13.3351 8.12173C13.423 7.95326 13.5537 7.81219 13.7135 7.71344C14.2548 7.35712 14.2548 7.35712 14.3472 6.71511C14.4245 6.70069 14.5025 6.69029 14.5808 6.68395C14.7312 6.67875 14.8855 6.68395 14.9414 6.68395C15.1029 7.00599 15.1781 7.33115 15.3781 7.50775C15.5782 7.68435 15.9205 7.73941 16.2222 7.85472L15.9012 8.54451C15.4817 8.42712 15.1019 8.27753 14.7098 8.23286C14.5443 8.21208 14.3533 8.40115 14.1736 8.49569C14.2954 8.65671 14.3848 8.87798 14.5443 8.96732C14.8063 9.11484 15.1171 9.16782 15.4005 9.27897C16.0099 9.51791 16.2282 9.81398 16.2211 10.3781C16.215 10.911 15.9571 11.2455 15.3751 11.4709C15.2979 11.5 15.2187 11.5218 15.1273 11.552C15.11 11.821 15.0938 12.0714 15.0755 12.3539H14.3239C14.3066 12.087 14.2904 11.8366 14.2761 11.6081Z" fill="white"/>
</g>
<defs>
<clipPath id="clip0_4106_7051">
<rect width="19" height="18" fill="white"/>
</clipPath>
</defs>
</svg>
