<svg width="12" height="12" viewBox="0 0 12 12" fill="none" xmlns="http://www.w3.org/2000/svg">
<g clip-path="url(#clip0_4058_14038)">
<path d="M2.30946 0.410445C2.34526 0.134996 2.47476 -0.00115331 2.69278 0.000107331C2.9108 0.00136797 3.03835 0.139408 3.06894 0.406032H4.85928C4.85452 0.345468 4.86459 0.284672 4.88868 0.228592C4.91277 0.172512 4.95019 0.122734 4.99789 0.0833098C5.06574 0.0275914 5.15237 -0.00202189 5.24129 0.000107331C5.29437 0.000364296 5.34676 0.0117676 5.39485 0.0335314C5.44293 0.0552953 5.48558 0.0869017 5.51983 0.126171C5.55394 0.164575 5.57988 0.209118 5.59619 0.257249C5.61249 0.305381 5.61883 0.356155 5.61485 0.406663H7.41169C7.40584 0.345992 7.41521 0.284848 7.439 0.228438C7.4628 0.172028 7.50031 0.122023 7.54836 0.0826789C7.61494 0.028343 7.69949 -0.000967081 7.78655 0.000107331C7.83958 -0.000329444 7.89209 0.0103108 7.94049 0.0313039C7.9889 0.052297 8.03206 0.0831492 8.06704 0.121758C8.13734 0.202559 8.17174 0.307037 8.16271 0.412336C8.2805 0.412336 8.39309 0.408554 8.50503 0.412336C9.03323 0.429987 9.5337 0.64566 9.90086 1.01385C10.268 1.38205 10.4732 1.87398 10.473 2.38586C10.4756 3.21704 10.4756 4.04843 10.473 4.88003C10.475 4.92895 10.4668 4.97775 10.4489 5.02352C10.431 5.06929 10.4037 5.11108 10.3687 5.1464C10.3337 5.18171 10.2917 5.20982 10.2452 5.22903C10.1987 5.24825 10.1487 5.25818 10.0982 5.25822C10.0492 5.25856 10.0007 5.24951 9.95532 5.23161C9.90997 5.21371 9.86873 5.18731 9.83395 5.15392C9.79918 5.12054 9.77156 5.08082 9.75269 5.03707C9.73381 4.99331 9.72405 4.94637 9.72396 4.89894C9.72396 4.63673 9.72396 4.37389 9.72396 4.11167V4.04864H0.749508V4.10663C0.749508 6.07827 0.749508 8.0499 0.749508 10.0215C0.749113 10.3253 0.863319 10.6188 1.07065 10.8468C1.27799 11.0748 1.56417 11.2215 1.87538 11.2595C1.93842 11.2669 2.00191 11.2703 2.06541 11.2696H4.91524C4.96565 11.2675 5.01597 11.2754 5.06317 11.2927C5.11036 11.3099 5.15346 11.3363 5.18988 11.3701C5.22629 11.4039 5.25526 11.4446 5.27506 11.4895C5.29485 11.5345 5.30505 11.5828 5.30505 11.6317C5.30505 11.6806 5.29485 11.7289 5.27506 11.7739C5.25526 11.8188 5.22629 11.8594 5.18988 11.8933C5.15346 11.9271 5.11036 11.9534 5.06317 11.9707C5.01597 11.988 4.96565 11.9958 4.91524 11.9938H2.89453C2.56913 11.9938 2.23918 12.0083 1.91313 11.9862C1.1517 11.9352 0.589412 11.5696 0.225618 10.9223C0.0719222 10.6425 -0.00578923 10.3295 -0.000207466 10.0127C-0.000207466 7.47211 -0.000207466 4.93151 -0.000207466 2.3909C-0.00333783 1.93476 0.157194 1.49172 0.45395 1.1375C0.750707 0.783284 1.16527 0.539881 1.62678 0.448894C1.81728 0.414788 2.01108 0.401049 2.20468 0.407923L2.30946 0.410445ZM0.747556 3.31495H9.72461V2.39154C9.72645 2.18433 9.67406 1.98006 9.57233 1.79778C9.44121 1.55982 9.23447 1.36909 8.98271 1.25381C8.72239 1.12775 8.4445 1.12775 8.16466 1.14035C8.12041 1.41265 8.01042 1.53745 7.80542 1.5488C7.72026 1.55457 7.63571 1.53114 7.56658 1.48262C7.51174 1.44406 7.4682 1.39235 7.44024 1.33256C7.41229 1.27277 7.40088 1.20697 7.40714 1.14161H5.61485C5.5797 1.41139 5.45605 1.54565 5.24389 1.54943C5.15501 1.55218 5.06817 1.52325 4.99985 1.46812C4.95093 1.42857 4.91256 1.3782 4.88798 1.32126C4.8634 1.26432 4.85333 1.20249 4.85862 1.14098H3.07089C3.02794 1.41265 2.91665 1.53808 2.711 1.5488C2.6259 1.554 2.54162 1.53013 2.47281 1.48136C2.41853 1.44285 2.37533 1.39153 2.3473 1.33229C2.31928 1.27304 2.30737 1.20784 2.31272 1.14287C2.17397 1.13593 2.03495 1.13593 1.89621 1.14287C1.57988 1.17582 1.28744 1.32134 1.07558 1.55123C0.863721 1.78111 0.747523 2.07899 0.749508 2.38712V3.31306L0.747556 3.31495Z" fill="#3679AE"/>
<path d="M10.5853 5.89845C10.9114 5.89708 11.2278 6.00584 11.4801 6.20601C11.7324 6.40618 11.9048 6.68525 11.9676 6.99521C12.0204 7.21427 12.0138 7.44284 11.9483 7.65868C11.8828 7.87451 11.7608 8.07025 11.594 8.22685C10.5092 9.28641 9.41647 10.3384 8.32704 11.3942C8.19456 11.5156 8.02477 11.5917 7.8435 11.611C7.49641 11.6648 7.14824 11.7215 6.79898 11.7812C6.6778 11.803 6.55295 11.7955 6.43546 11.7595C6.31796 11.7234 6.21143 11.6599 6.12526 11.5746C6.03908 11.4893 5.97591 11.3847 5.94132 11.2702C5.90673 11.1556 5.90178 11.0345 5.92691 10.9177C5.99199 10.5666 6.05251 10.2136 6.11304 9.86126C6.13942 9.70207 6.21763 9.55521 6.33626 9.4421C6.89681 8.8975 7.4578 8.35438 8.01922 7.81273L9.56811 6.31257C9.70041 6.18113 9.85862 6.07675 10.0333 6.00561C10.2081 5.93448 10.3958 5.89804 10.5853 5.89845ZM6.66361 11.0633C6.66934 11.0651 6.67522 11.0663 6.68118 11.0671C7.03782 11.0072 7.39706 10.9486 7.75044 10.8868C7.78225 10.8805 7.81159 10.8657 7.83504 10.8439C8.54007 10.1628 9.24423 9.48118 9.94752 8.79918C9.98787 8.75947 10.0321 8.72354 10.0699 8.69013L9.12231 7.77239L9.10734 7.78562C8.36587 8.50335 7.62505 9.2217 6.88488 9.94068C6.86336 9.96444 6.84955 9.99382 6.84518 10.0251C6.80939 10.2174 6.7801 10.4109 6.74301 10.6038C6.71698 10.7557 6.69029 10.9082 6.66361 11.0633ZM10.6081 8.15436C10.6125 8.15186 10.6167 8.14891 10.6204 8.14554C10.7701 8.00119 10.9218 7.85937 11.0669 7.71125C11.1437 7.63195 11.1986 7.5351 11.2264 7.42972C11.2542 7.32434 11.254 7.21386 11.2258 7.10858C11.1976 7.0033 11.1423 6.90665 11.0652 6.82764C10.988 6.74863 10.8914 6.68983 10.7844 6.65672C10.6663 6.61717 10.5387 6.61184 10.4175 6.6414C10.2962 6.67095 10.1865 6.73411 10.1018 6.82313C9.98982 6.92902 9.88049 7.03807 9.7692 7.14396C9.73341 7.17863 9.69436 7.21014 9.66247 7.23788L10.6081 8.15436Z" fill="#3679AE"/>
<path d="M5.23479 6.03331C4.45904 6.03331 3.68329 6.03331 2.90755 6.03331C2.81011 6.03798 2.71464 6.00568 2.64141 5.94327C2.56817 5.88086 2.52293 5.79326 2.51531 5.69907C2.50768 5.60488 2.53827 5.51152 2.60057 5.43882C2.66287 5.36612 2.75198 5.3198 2.84897 5.30971C2.86785 5.30971 2.88737 5.30971 2.90689 5.30971H7.57114C7.66995 5.30218 7.76781 5.33299 7.84317 5.39534C7.91853 5.4577 7.96524 5.54649 7.973 5.6422C7.98077 5.73791 7.94897 5.83268 7.88459 5.90567C7.82021 5.97867 7.72852 6.0239 7.62971 6.03142C7.60173 6.03142 7.57374 6.03142 7.54576 6.03142L5.23479 6.03331Z" fill="#3679AE"/>
<path d="M4.76519 7.2952C5.39515 7.2952 6.02426 7.2952 6.65249 7.2952C6.72447 7.29239 6.7956 7.31117 6.85616 7.34896C6.91672 7.38675 6.96378 7.44171 6.9909 7.50635C7.02261 7.56796 7.03448 7.63738 7.02496 7.7056C7.01545 7.77382 6.98499 7.8377 6.93754 7.88895C6.90025 7.9324 6.853 7.96682 6.79956 7.98947C6.74612 8.01212 6.68796 8.02238 6.62971 8.01943H2.8948C2.79582 8.02304 2.69935 7.98875 2.62627 7.92398C2.5532 7.85922 2.50939 7.7692 2.50432 7.67339C2.5019 7.6239 2.51002 7.57446 2.52816 7.52814C2.54631 7.48182 2.5741 7.43962 2.60981 7.40414C2.64552 7.36867 2.68838 7.3407 2.73573 7.32195C2.78308 7.30321 2.8339 7.2941 2.88504 7.2952H4.76519Z" fill="#3679AE"/>
<path d="M3.96542 10.0075C3.60097 10.0075 3.23718 10.0075 2.87273 10.0075C2.78323 10.0058 2.69732 9.97305 2.63065 9.9152C2.56397 9.85735 2.52096 9.77823 2.50945 9.69224C2.49794 9.60626 2.51869 9.51913 2.56793 9.44672C2.61716 9.37431 2.69161 9.32144 2.77772 9.29772C2.81161 9.28845 2.84663 9.28357 2.88184 9.28322C3.60509 9.28322 4.32791 9.28322 5.05029 9.28322C5.13941 9.28233 5.22592 9.31232 5.2942 9.36779C5.36249 9.42325 5.40805 9.50053 5.42267 9.58568C5.43728 9.67083 5.41998 9.75823 5.37389 9.83211C5.3278 9.90599 5.25596 9.96147 5.17134 9.98855C5.12765 10.0012 5.08223 10.0074 5.03662 10.0068C4.67934 10.0081 4.32205 10.0075 3.96542 10.0075Z" fill="#3679AE"/>
</g>
<defs>
<clipPath id="clip0_4058_14038">
<rect width="12" height="12" fill="white"/>
</clipPath>
</defs>
</svg>
