<svg width="24" height="20" viewBox="0 0 24 20" fill="none" xmlns="http://www.w3.org/2000/svg">
<g clip-path="url(#clip0_4058_14452)">
<path d="M15.4081 16.4573C14.9272 18.6281 13.6227 19.8675 11.7455 19.9925C9.88904 20.1162 8.58576 18.9819 7.71935 16.4585C6.90434 16.4585 6.07464 16.4474 5.24373 16.4585C4.59637 16.4697 4.09096 16.226 3.79115 15.6385C3.49133 15.0509 3.5464 14.4436 3.97471 13.9649C5.08342 12.7366 5.37589 11.3042 5.27554 9.68509C5.22204 8.74039 5.29116 7.79267 5.48113 6.86611C5.84825 5.08122 6.88721 3.74285 8.4438 2.83742C8.73016 2.67043 8.87334 2.50839 8.91494 2.14226C9.0312 1.13292 9.9233 0.379629 10.9341 0.357364C11.3392 0.348705 11.7455 0.357364 12.1517 0.357364C13.2298 0.374681 14.0571 1.13416 14.2456 2.22266C14.2924 2.44484 14.4204 2.64098 14.6041 2.77186C16.7836 4.11393 17.8801 6.06582 17.8862 8.65349C17.9009 8.92087 17.9009 9.18887 17.8862 9.45626C17.7014 11.1744 18.0477 12.7143 19.2323 14.023C19.6508 14.4832 19.6863 15.0645 19.3853 15.631C19.0842 16.1976 18.6229 16.4573 17.9963 16.4524C17.1458 16.4524 16.2953 16.4573 15.4081 16.4573ZM17.5961 14.7058C17.4199 14.4312 17.3147 14.237 17.1813 14.0638C16.4646 13.1517 16.1095 12.0026 16.1852 10.8404C16.2231 10.0178 16.2256 9.19032 16.1852 8.36652C16.0836 6.40845 15.178 4.9501 13.4048 4.1461C12.7661 3.85665 12.4662 3.48805 12.5482 2.78547C12.6057 2.29069 12.3806 2.05073 11.8813 2.08536C11.6992 2.09959 11.5163 2.09959 11.3343 2.08536C10.7934 2.03712 10.5193 2.25235 10.5841 2.82752C10.6624 3.50536 10.3467 3.86284 9.73485 4.13002C8.23454 4.78559 7.2629 5.95078 7.05119 7.60828C6.90924 8.72152 6.93493 9.86816 6.94839 10.9987C6.97219 12.0555 6.64855 13.0904 6.02814 13.9414C5.86906 14.1653 5.71976 14.3966 5.5154 14.6996L17.5961 14.7058ZM9.56352 16.4746C9.73362 17.5755 10.6355 18.3238 11.6549 18.257C12.6743 18.1903 13.4966 17.4271 13.5566 16.4746H9.56352Z" fill="#3679AE"/>
<path d="M3.79845 0.0253906H4.02239C4.51923 0.0513663 6.23491 1.7571 6.19086 2.26424C6.16516 2.5475 5.98894 2.92971 5.76744 3.05093C5.62611 3.10858 5.47331 3.13168 5.32148 3.11835C5.16965 3.10502 5.02308 3.05565 4.89369 2.97424C4.32535 2.51156 3.80688 1.98957 3.34689 1.41694C3.1829 1.21285 3.16088 0.772499 3.25633 0.507794C3.33709 0.27154 3.6724 0.128056 3.79845 0.0253906Z" fill="#3679AE"/>
<path d="M17.6452 3.24328C17.4567 3.10722 17.1055 2.98353 17.0211 2.75717C16.9158 2.47762 16.9109 2.01501 17.0761 1.80102C17.5399 1.23391 18.0499 0.707182 18.6009 0.226401C18.6686 0.155628 18.7495 0.0991679 18.839 0.0603051C18.9284 0.0214423 19.0246 0.000953371 19.122 3.24867e-05C19.2194 -0.000888398 19.3159 0.0177772 19.4061 0.0549411C19.4963 0.092105 19.5782 0.147023 19.6472 0.216504C19.9727 0.499762 20.1306 0.926507 19.8601 1.25553C19.3217 1.90987 18.6939 2.49247 18.0906 3.08743C18.0135 3.16412 17.8691 3.16783 17.6452 3.24328Z" fill="#3679AE"/>
<path d="M19.5198 6.19592C19.2494 5.90525 18.8761 5.68136 18.8284 5.40181C18.7807 5.12226 18.9642 4.61883 19.1955 4.48029C19.8422 4.09976 20.5343 3.80422 21.2551 3.60083C21.517 3.52785 22.0175 3.73442 22.1557 3.97191C22.294 4.20941 22.2414 4.83777 22.0664 4.94662C21.2991 5.41171 20.4535 5.7531 19.5198 6.19592Z" fill="#3679AE"/>
<path d="M1.56998 3.43164C2.50003 3.87199 3.33829 4.2171 4.10924 4.67723C4.27812 4.77743 4.31116 5.32044 4.23162 5.6037C4.10924 6.02673 3.67971 6.16898 3.28322 6.02426C2.57613 5.78859 1.89236 5.48671 1.2408 5.12253C1.01196 4.98647 0.838188 4.49046 0.890809 4.20596C0.94343 3.92147 1.30566 3.71119 1.56998 3.43164Z" fill="#3679AE"/>
<path d="M1.76326 9.40201C1.44019 9.40201 1.11712 9.41438 0.794056 9.40201C0.322916 9.37974 0.0414563 9.12246 0.00474412 8.64129C-0.0319681 8.16013 0.200542 7.79647 0.661892 7.76431C1.44566 7.70617 2.2326 7.70617 3.01637 7.76431C3.47527 7.80018 3.70166 8.16631 3.65638 8.64995C3.61477 9.10143 3.35901 9.3649 2.9148 9.39211C2.53177 9.41562 2.14751 9.39211 1.76326 9.39211V9.40201Z" fill="#3679AE"/>
<path d="M21.2833 9.4028C20.9394 9.4028 20.5955 9.41517 20.2529 9.4028C19.7805 9.38178 19.5015 9.12326 19.4672 8.63962C19.433 8.15598 19.6606 7.79479 20.1232 7.76263C20.9071 7.70696 21.694 7.70944 22.4776 7.77005C22.9365 7.80716 23.1629 8.18442 23.1201 8.6594C23.0809 9.10717 22.8178 9.37064 22.3736 9.40157C22.0065 9.42383 21.6467 9.40157 21.2833 9.40157V9.4028Z" fill="#3679AE"/>
</g>
<defs>
<clipPath id="clip0_4058_14452">
<rect width="23.125" height="20" fill="white"/>
</clipPath>
</defs>
</svg>
