<svg width="19" height="20" viewBox="0 0 19 20" fill="none" xmlns="http://www.w3.org/2000/svg">
<g clip-path="url(#clip0_4106_7184)">
<path d="M1.75431 3.54641C1.70116 3.695 1.66908 3.76416 1.65166 3.83799C1.52244 4.37348 1.22732 4.61272 0.649927 4.58561C0.0725312 4.55851 0.00837626 4.69589 0.00287725 5.28558C0.00287725 5.69024 0.0276228 6.09582 0.00287725 6.50048C-0.0246178 6.94532 0.186178 7.11166 0.585773 7.15465C1.43079 7.24811 1.43079 7.25839 1.73507 8.0976C1.5371 8.32563 1.28598 8.53122 1.15034 8.7985C1.06327 8.97139 1.05869 9.30128 1.16867 9.44239C1.47661 9.84425 1.86063 10.1844 2.2144 10.5498C2.44535 10.79 2.68273 10.818 2.93202 10.5797C2.99892 10.5162 3.07224 10.4592 3.14006 10.3928C3.56532 9.99658 3.94383 9.96387 4.38742 10.2994C4.44799 10.3593 4.48596 10.439 4.49465 10.5246C4.51482 10.6779 4.50657 10.8349 4.51298 10.9919C4.54048 11.6358 4.61655 11.7171 5.23702 11.7273C5.63295 11.7339 6.03071 11.7105 6.42847 11.7227C6.78408 11.7329 6.97837 11.5815 6.99762 11.2161C7.00404 11.1077 7.02328 10.9993 7.03062 10.8909C7.06269 10.3751 7.34222 10.0433 7.8298 10.0227C7.9627 10.0171 8.12217 10.1536 8.2349 10.262C8.91036 10.9087 8.91861 10.9162 9.58582 10.247C9.81495 10.0181 10.0441 9.79004 10.2567 9.54613C10.605 9.14708 10.5931 8.99849 10.2228 8.60131C10.1771 8.56015 10.1342 8.51581 10.0945 8.46861C9.968 8.28731 9.65731 8.19572 9.85344 7.86303C10.0322 7.55837 10.0175 7.1369 10.5866 7.17988C11.3785 7.23969 11.5086 7.06026 11.5242 6.25189C11.5316 5.8949 11.5178 5.53604 11.5325 5.17904C11.5481 4.79028 11.3593 4.60617 10.9991 4.56972C10.8781 4.55664 10.7562 4.54076 10.6325 4.53702C10.1797 4.5202 9.79662 4.14638 9.81861 3.68005C9.82594 3.53987 9.96984 3.39127 10.0789 3.27352C10.6865 2.61935 10.693 2.5857 10.0661 1.92499C9.82228 1.66799 9.55283 1.43716 9.30629 1.18297C9.03134 0.902606 8.77105 0.946531 8.51077 1.19699C8.43378 1.27175 8.35771 1.34932 8.28164 1.42595C8.09834 1.61286 7.95995 1.82219 7.63275 1.62687C7.34222 1.45398 7.00678 1.43997 7.03978 0.921298C7.0911 0.102644 6.94813 0.000778198 6.12969 -0.00295925C5.74843 -0.00295925 5.36716 0.0026474 4.9859 -0.00295925C4.65871 -0.00295925 4.51482 0.172737 4.5029 0.485806C4.4887 0.687718 4.4887 0.890408 4.5029 1.09232C4.53406 1.39417 4.32968 1.44183 4.12439 1.5166C3.94108 1.58388 3.7642 1.67453 3.56624 1.76332L2.93568 1.15867C2.69189 0.924099 2.44535 0.929707 2.21073 1.16428C1.87346 1.50164 1.5481 1.85209 1.20808 2.18759C0.920295 2.46795 0.914796 2.74831 1.19983 3.02868C1.37213 3.2053 1.56001 3.36885 1.75431 3.54641ZM1.60492 9.09942C2.19423 8.63683 2.44261 8.21442 2.12366 7.38081C1.79097 6.51076 1.25574 6.51262 0.598604 6.56122V5.15288C1.31531 5.24633 1.79006 5.14633 2.11633 4.32114C2.44261 3.49594 2.18598 3.06419 1.65258 2.63898L2.62591 1.68201C3.03283 2.20348 3.4251 2.47917 4.23437 2.13432C5.04364 1.78948 5.16553 1.311 5.09588 0.597946H6.47063C6.32949 1.35772 6.51646 1.7792 7.2854 2.13339C8.11942 2.51842 8.5016 2.14647 8.89386 1.6736L9.90201 2.67355C9.32553 3.06699 9.08724 3.47912 9.40436 4.30338C9.72146 5.12764 10.2173 5.24353 10.9074 5.16316V6.4659C10.484 6.55935 9.99091 6.5173 9.74346 6.74626C9.45934 7.01074 9.37686 7.50978 9.2293 7.9163C8.99743 8.56019 9.7013 8.69944 9.84794 9.07138L8.93144 10.0751C8.50068 9.52837 8.12858 9.22745 7.30373 9.55174C6.44497 9.89004 6.42756 10.4134 6.45963 11.1105H5.10596C5.13529 10.4162 5.08855 9.90406 4.26644 9.5723C3.44434 9.24054 3.02917 9.50781 2.559 10.0648L1.60492 9.09942Z" fill="white"/>
<path d="M13.1445 17.9862C12.995 17.8012 12.8555 17.6081 12.7266 17.4077C12.6542 17.2778 12.557 17.0843 12.6038 16.9825C12.6421 16.8993 12.6967 16.825 12.7644 16.7642C12.832 16.7034 12.9112 16.6575 12.9969 16.6292C13.7512 16.4778 13.754 16.4928 13.7576 15.6947C13.7576 15.5704 13.7576 15.4461 13.7576 15.3209C13.7521 14.6144 13.6953 14.5676 13.0244 14.4938C12.945 14.4789 12.87 14.4459 12.8048 14.3974C12.7395 14.3489 12.6859 14.286 12.6478 14.2134C12.627 14.1342 12.6236 14.0513 12.6377 13.9706C12.6518 13.8898 12.683 13.8132 12.7293 13.7462C13.1518 13.2135 13.1592 13.0976 12.6908 12.6154C12.6047 12.5275 12.5167 12.4406 12.4296 12.3537C11.8385 11.7631 11.8458 11.7734 11.2006 12.2874C11.0961 12.3715 10.867 12.3705 10.7313 12.3154C10.6649 12.2807 10.607 12.2312 10.5619 12.1705C10.5168 12.1098 10.4858 12.0396 10.4711 11.9649C10.3941 11.1678 10.3858 11.1482 9.60038 11.1444C9.43175 11.1444 9.26403 11.1388 9.09631 11.1444C8.5849 11.1687 8.45476 11.3014 8.44559 11.8294C8.44559 12.05 8.45201 12.2341 8.18805 12.3434C7.9241 12.4528 7.78021 12.3827 7.59783 12.1986C7.1909 11.7893 7.08275 11.7977 6.64833 12.1939C6.51177 12.3182 6.38163 12.45 6.25332 12.5836C5.75749 13.0967 5.76482 13.1864 6.20016 13.7415C6.25509 13.8043 6.29178 13.8815 6.30611 13.9644C6.32045 14.0473 6.31186 14.1326 6.28132 14.2108C6.25078 14.289 6.19949 14.357 6.13319 14.4071C6.06689 14.4573 5.98821 14.4876 5.90596 14.4947C5.19934 14.5826 5.14527 14.6265 5.1416 15.3536C5.1416 15.447 5.1416 15.5405 5.1416 15.6339C5.1416 16.475 5.1416 16.4591 5.94262 16.6143C6.08102 16.6404 6.23866 16.8133 6.29365 16.9554C6.31054 17.0289 6.31108 17.1053 6.29522 17.179C6.27936 17.2528 6.24751 17.322 6.202 17.3815C5.75474 17.9189 5.74833 18.0404 6.23224 18.5441C6.31747 18.6375 6.40454 18.7207 6.49161 18.8076C7.04151 19.3496 7.06259 19.3356 7.65007 18.874C7.77838 18.773 8.03775 18.7805 8.21005 18.8291C8.31362 18.86 8.42176 19.0693 8.43184 19.2029C8.48317 19.8954 8.47217 19.8964 9.17146 19.9702C9.32357 19.9888 9.47653 19.9994 9.62971 20.002C10.3583 20.002 10.395 19.9496 10.4949 19.2113C10.5186 19.1239 10.5604 19.0426 10.6175 18.973C10.6746 18.9034 10.7456 18.847 10.8257 18.8076C10.9034 18.7857 10.9848 18.7819 11.0641 18.7963C11.1434 18.8106 11.2185 18.8429 11.284 18.8908C11.8412 19.3627 11.8706 19.3758 12.4012 18.831C12.6441 18.5721 12.8714 18.2936 13.1445 17.9862ZM11.7413 18.5132C11.4471 18.0348 11.0879 17.9824 10.5288 18.2086C9.96973 18.4347 9.75436 18.7693 9.82493 19.33H8.98999C9.26494 18.3955 8.54182 18.3301 8.013 18.0721C7.53459 17.8394 7.39436 18.3282 7.07359 18.502L6.49436 17.8759C7.08275 17.5609 6.99568 17.174 6.82247 16.646C6.6245 16.0405 6.26248 15.919 5.73733 15.9844V15.1097C6.34039 15.2321 6.59976 14.9676 6.83713 14.4228C7.09375 13.8406 6.91228 13.5032 6.5191 13.1527L7.124 12.5771C7.4631 13.0144 7.78938 13.1705 8.36769 12.9116C8.946 12.6528 9.10089 12.3089 9.05507 11.7668H9.8845C9.77727 12.3556 9.97615 12.6556 10.5261 12.906C11.0998 13.1696 11.4334 13.0322 11.7725 12.5752L12.3664 13.1976C11.5654 13.6219 12.0044 14.1536 12.1611 14.7097C12.3178 15.2657 12.7733 15.0321 13.1042 15.1695V16.0171C12.502 15.8685 12.2702 16.1414 12.0374 16.6713C11.7862 17.2423 11.9127 17.5899 12.3682 17.9497L11.7413 18.5132Z" fill="white"/>
<path d="M17.1908 6.6076C16.838 6.46648 16.695 6.25902 16.8462 5.85062C16.947 5.57867 16.8251 5.33009 16.5099 5.24224C16.1946 5.15439 15.8976 5.05533 15.5879 4.98057C15.2011 4.88712 15.1058 5.17402 14.9729 5.44784C14.9005 5.5983 14.7465 5.78708 14.6063 5.80483C14.4661 5.82259 14.2773 5.67213 14.1819 5.54036C13.9556 5.22916 13.7182 5.1058 13.3699 5.32822C13.215 5.42634 13.0501 5.50671 12.8933 5.60297C12.3233 5.95529 12.3196 6.00202 12.568 6.63096C12.5906 6.70414 12.597 6.78156 12.5865 6.85756C12.576 6.93355 12.549 7.0062 12.5075 7.07019C12.4526 7.11964 12.388 7.15649 12.3179 7.17825C12.2479 7.20002 12.1741 7.20619 12.1015 7.19636C11.4718 7.1029 11.4388 7.11318 11.2455 7.76923C11.1923 7.94679 11.1392 8.12528 11.0961 8.30565C11.0044 8.69628 11.1016 8.95982 11.525 9.07851C11.6689 9.11776 11.8733 9.2757 11.8824 9.39251C11.8791 9.48254 11.8562 9.57069 11.8153 9.65054C11.7744 9.7304 11.7165 9.79996 11.646 9.85418C11.2647 10.1121 11.1694 10.3943 11.4379 10.784C11.481 10.8476 11.5103 10.9205 11.5488 10.9878C12.0199 11.8288 12.0502 11.8391 12.8897 11.4139C13.1417 11.5672 13.3369 11.6989 13.2279 12.1008C13.1463 12.4027 13.2554 12.755 13.6742 12.8307C13.8373 12.8606 13.9931 12.9335 14.1544 12.9765C14.7877 13.1484 14.8382 13.1101 15.0994 12.4802C15.1316 12.4112 15.1784 12.3503 15.2364 12.3018C15.2943 12.2534 15.3621 12.2186 15.4348 12.1999C15.5115 12.2013 15.5872 12.219 15.6568 12.252C15.7264 12.285 15.7885 12.3325 15.839 12.3914C16.2532 12.9026 16.2716 12.9166 16.8471 12.6026C16.9809 12.5307 17.112 12.4503 17.2403 12.3681C17.7526 12.041 17.7526 11.9943 17.5217 11.4335C17.4648 11.2971 17.4694 11.0597 17.5519 10.9579C17.6118 10.9015 17.6837 10.86 17.7619 10.8366C17.8401 10.8133 17.9226 10.8087 18.0028 10.8233C18.4382 10.9326 18.6765 10.7794 18.7782 10.3513C18.8213 10.17 18.8753 9.99249 18.9203 9.81212C19.066 9.22617 19.0119 9.14673 18.4574 8.9131C18.3319 8.86076 18.1687 8.70563 18.166 8.59349C18.17 8.50907 18.1913 8.42645 18.2286 8.35096C18.2658 8.27547 18.3182 8.20878 18.3823 8.15519C18.8515 7.7982 18.8772 7.74119 18.5931 7.20944C18.5564 7.14028 18.5207 7.07206 18.4831 7.00384C18.0523 6.21322 17.9863 6.19453 17.1908 6.6076ZM11.843 7.83091C12.9373 7.95146 13.4771 7.25149 13.0766 6.22724L13.6339 5.86184C13.8309 6.35153 14.1141 6.5534 14.6613 6.45247C15.169 6.35901 15.5228 6.22724 15.5209 5.60484L16.2477 5.81511C15.8142 6.5562 16.4228 6.77021 16.7903 7.13561C17.1578 7.50101 17.4245 7.10571 17.7673 7.03655L18.1146 7.65895C17.5015 7.82904 17.5153 8.19444 17.5483 8.71311C17.5849 9.3028 17.8654 9.4841 18.3603 9.56447C18.2906 9.80745 18.2365 9.99622 18.1678 10.2383C17.6949 10.0644 17.3677 10.1336 17.0378 10.5803C16.7078 11.027 16.6244 11.3625 17.0011 11.7868L16.377 12.1756C16.1891 11.656 15.894 11.4971 15.3523 11.5803C14.8107 11.6634 14.532 11.8877 14.4752 12.4092C14.0435 12.3419 13.6834 12.2802 13.9162 11.7186C13.9556 11.6251 13.852 11.4261 13.7603 11.3289C13.6146 11.1737 13.4066 11.0812 13.2563 10.9298C13.0482 10.7186 12.8457 10.6962 12.6028 10.8504C12.4939 10.9091 12.3812 10.9603 12.2655 11.0037C12.1473 10.7962 12.0456 10.6149 11.9191 10.3925C12.447 10.2168 12.5707 9.91399 12.4992 9.36448C12.4278 8.81497 12.2573 8.53648 11.6936 8.49816C11.7541 8.23275 11.8009 8.02903 11.8467 7.83091H11.843Z" fill="white"/>
<path d="M5.79145 2.78957C4.12067 2.77088 2.767 4.07549 2.756 5.72308C2.74042 7.5258 4.04735 8.96124 5.7108 8.96872C7.37425 8.9762 8.75908 7.59682 8.81041 5.94176C8.86173 4.28669 7.50623 2.71013 5.79145 2.78957ZM8.19452 5.86699C8.18352 7.29403 7.12863 8.34071 5.70897 8.33324C4.4112 8.32669 3.30773 7.16974 3.32606 5.83429C3.34191 5.18403 3.60744 4.5661 4.06554 4.11345C4.52364 3.66079 5.13769 3.40958 5.77558 3.41387C6.41347 3.41815 7.02422 3.67759 7.47643 4.13636C7.92864 4.59514 8.18616 5.21658 8.1936 5.86699H8.19452Z" fill="white"/>
<path d="M11.1106 15.5797C11.1161 15.3538 11.0771 15.129 10.996 14.9186C10.9149 14.7083 10.7932 14.5167 10.6383 14.3551C10.4833 14.1934 10.2981 14.0652 10.0937 13.9778C9.88926 13.8903 9.66972 13.8456 9.44806 13.8462C9.22681 13.8443 9.00737 13.887 8.80229 13.9717C8.59721 14.0563 8.41052 14.1814 8.25288 14.3397C8.09524 14.498 7.96974 14.6865 7.88358 14.8943C7.79741 15.1021 7.75225 15.3252 7.7507 15.5508C7.73603 16.4788 8.5004 17.2759 9.42698 17.2984C10.3536 17.3208 11.1078 16.5367 11.1106 15.5797ZM8.34917 15.5704C8.34917 14.8723 8.8175 14.4032 9.49847 14.4125C10.1125 14.42 10.5754 14.9059 10.5836 15.5517C10.5847 15.8574 10.4691 16.1516 10.2613 16.3719C10.0535 16.5922 9.76967 16.7213 9.47005 16.732C8.88166 16.7432 8.34642 16.1881 8.34917 15.5704Z" fill="white"/>
<path d="M15.007 7.48932C14.6075 7.49777 14.2265 7.66241 13.9426 7.94922C13.6588 8.23604 13.4939 8.62308 13.482 9.03037C13.4756 9.85089 14.1813 10.5686 15.0015 10.5742C15.3935 10.561 15.7652 10.3932 16.0382 10.106C16.3112 9.81888 16.4641 9.43487 16.4648 9.03494C16.4656 8.63502 16.314 8.25044 16.042 7.96228C15.77 7.67411 15.399 7.50488 15.007 7.49025V7.48932ZM14.107 9.03317C14.107 8.5388 14.557 8.06032 15.0235 8.0678C15.4735 8.07434 15.94 8.53506 15.9501 8.99018C15.9611 9.48175 15.4644 10.0004 14.9951 9.9864C14.5515 9.97331 14.1098 9.4995 14.107 9.03317Z" fill="white"/>
</g>
<defs>
<clipPath id="clip0_4106_7184">
<rect width="19" height="20" fill="white" transform="matrix(1 0 0 -1 0 20)"/>
</clipPath>
</defs>
</svg>
