<svg width="16" height="11" viewBox="0 0 16 11" fill="none" xmlns="http://www.w3.org/2000/svg">
<g clip-path="url(#clip0_4106_7172)">
<path d="M12.6486 8.10063C12.7485 8.73232 12.8405 9.36583 12.9614 9.99479C12.9764 10.0713 13.1474 10.1331 13.2553 10.1841C13.5712 10.3352 13.7691 10.5482 13.7431 10.9432C13.1714 10.9432 12.6096 10.9578 12.0518 10.9305C11.9519 10.925 11.803 10.7667 11.77 10.6574C11.659 10.2842 11.59 9.90104 11.5001 9.49963C11.1852 9.67075 10.9203 9.84643 10.6265 9.96111C10.4885 10.0148 10.2946 9.95202 10.1267 9.94109C10.1289 9.81636 10.1473 9.69231 10.1817 9.57154C10.3196 9.24933 10.4955 8.93985 10.6325 8.61672C10.751 8.35757 10.7781 8.07127 10.7101 7.79745C10.642 7.52364 10.4822 7.27587 10.2526 7.08847C10.1367 6.99744 9.97175 6.95193 9.82981 6.88549L9.73785 7.00108C9.83781 7.10303 9.94276 7.2077 10.0507 7.30601C10.4895 7.70286 10.5765 8.0624 10.3376 8.58031C10.1197 9.04999 9.88879 9.51511 9.64889 10.0112C10.0807 10.2014 10.5055 10.3862 10.4995 10.946C9.89178 10.946 9.30004 10.9569 8.7073 10.9351C8.60735 10.9351 8.4874 10.7994 8.41643 10.702C8.29148 10.53 8.2475 10.2651 8.07958 10.1677C7.26194 9.6926 7.41087 8.96534 7.42286 8.27084C7.43486 7.59819 7.44985 6.92554 7.48684 6.25379C7.49365 6.10351 7.56006 5.96058 7.67376 5.85148C7.96471 5.62733 8.2723 5.42174 8.59435 5.23617C9.03091 4.98695 9.40622 4.65828 9.69673 4.27077C9.98725 3.88327 10.1867 3.44528 10.2826 2.98428C10.2976 2.91511 10.3296 2.84866 10.3666 2.74217C10.7934 3.09715 11.2032 3.39752 11.797 3.2346C12.3237 3.09078 12.5286 2.79041 12.3747 2.31528C12.2288 1.86017 12.0568 1.4178 11.8959 0.969972L11.737 1.01275C11.8489 1.42417 11.9849 1.83195 12.0618 2.24974C12.0978 2.44817 12.0948 2.78404 11.9779 2.84411C11.726 2.96757 11.4323 3.00007 11.1552 2.93513C10.5295 2.75309 10.2966 2.08499 10.5305 1.36136C10.9653 0.0187916 12.8105 -0.459074 13.929 0.522143C14.3968 0.933562 14.8086 1.30584 15.5283 1.26306C15.8862 1.24122 16.0121 1.54341 16.0011 1.84287C15.9841 2.31528 15.7752 2.68482 15.2794 2.89144C14.9196 3.04254 14.5677 3.21275 14.2069 3.36294C13.7991 3.53406 13.6192 3.79893 13.6381 4.22128C13.6841 5.26075 13.6721 6.30295 13.7311 7.34151C13.7759 7.94215 13.8587 8.53994 13.979 9.13191C14.047 9.50601 14.1349 9.85098 14.6197 10.054C14.8836 10.1641 15.0055 10.5555 15.1925 10.8204L15.0865 10.9414C14.8276 10.9527 14.5683 10.9493 14.3099 10.9314C14.2545 10.9154 14.204 10.8878 14.1626 10.8508C14.1211 10.8138 14.0897 10.7685 14.071 10.7184C13.96 10.3543 13.7771 10.0694 13.3653 9.89922C13.2223 9.84097 13.1254 9.60249 13.0884 9.43137C12.9884 8.98081 12.9335 8.52115 12.8615 8.06604L12.6486 8.10063Z" fill="white"/>
<path d="M5.99015 8.59707C6.06912 9.10861 6.14009 9.62288 6.23905 10.1317C6.25204 10.2009 6.41597 10.2391 6.49294 10.3074C6.67785 10.4721 6.85278 10.6469 7.05769 10.8426C5.94018 11.1639 5.17751 10.9127 4.72971 9.95511C4.90963 9.70025 5.15852 9.38167 5.36843 9.04489C5.71328 8.48966 5.29746 7.70687 4.64175 7.6468C4.64175 7.67501 4.62075 7.71597 4.63475 7.72963C5.4344 8.4842 5.4344 8.52152 4.82167 9.41535C4.65674 9.65474 4.50081 9.89959 4.37186 10.0944L5.14453 10.8062L5.03857 11.001C4.43883 10.9327 3.84709 10.8617 3.25035 10.798C3.112 10.7816 2.97189 10.7816 2.83354 10.798C2.55566 10.8344 2.28278 10.9145 2.0049 10.93C1.10529 10.9828 0.557532 10.4266 0.723459 9.62106C0.83641 9.07493 0.998339 8.53608 1.12928 7.99268C1.22924 7.58308 1.10729 7.45565 0.659489 7.53757C0.351624 7.59218 0.0697451 7.62859 0.00777222 7.26906C-0.0542007 6.90952 0.266659 6.84216 0.535541 6.77754C0.72806 6.73105 0.930496 6.73059 1.12327 6.77619C1.31604 6.8218 1.49263 6.91193 1.63596 7.03787C1.77928 7.16381 1.8845 7.32129 1.94143 7.4951C1.99835 7.6689 2.00507 7.85314 1.96092 8.03C1.82598 8.57613 1.66105 9.11043 1.5451 9.65656C1.51311 9.80766 1.5571 10.0352 1.66805 10.129C1.75901 10.2063 2.06087 10.1981 2.15783 10.1171C2.21652 10.0531 2.25881 9.97798 2.28163 9.89721C2.30445 9.81644 2.30724 9.73206 2.28978 9.65019C2.06188 8.78912 2.44571 8.10282 3.04245 7.50662C3.41828 7.12979 3.86908 6.81122 4.30989 6.49355C5.08255 5.9365 5.44839 5.28751 5.13753 4.36182C4.94361 3.78747 5.18351 3.26955 5.67729 2.85267C5.83522 2.71796 5.92618 2.51862 6.04713 2.34841C6.16808 2.1782 6.28203 2.01618 6.39898 1.84961L6.85378 2.25284L7.22462 2.07079C7.274 2.20535 7.33551 2.33595 7.40853 2.46128C7.7204 2.9091 7.99628 3.38788 8.37811 3.78109C8.75994 4.17431 8.79993 4.6094 8.30814 4.89429C8.02333 5.04399 7.71051 5.14429 7.38554 5.19012C7.05669 5.24746 6.88076 5.37853 6.98572 5.67253C7.31358 6.58821 7.28559 7.50207 7.10067 8.43778C7.0347 8.76637 7.13565 9.12499 7.17064 9.46815C7.20462 9.78945 7.28759 10.048 7.68541 10.2054C7.90332 10.2919 8.01427 10.6023 8.19219 10.8353C7.4775 11.051 7.36855 11.0119 7.12066 10.5358C7.07868 10.4557 7.0357 10.3401 6.96173 10.3128C6.16708 10.0261 6.33501 9.34891 6.20406 8.79367C6.18807 8.72632 6.17907 8.65714 6.16708 8.58979L5.99015 8.59707Z" fill="white"/>
</g>
<defs>
<clipPath id="clip0_4106_7172">
<rect width="16" height="11" fill="white"/>
</clipPath>
</defs>
</svg>
