<svg width="10" height="10" viewBox="0 0 5 5" fill="none" xmlns="http://www.w3.org/2000/svg">
<g clip-path="url(#clip0_465_9836)">
<path d="M2.78426 0.0289341C2.60143 0.20977 2.421 0.393017 2.23335 0.56879C2.19098 0.602441 2.13839 0.620643 2.08428 0.620389C1.646 0.624488 1.20773 0.6228 0.769453 0.6228H0.630277V4.36273H4.37455V4.2335C4.37455 3.79539 4.37165 3.35704 4.37768 2.91894C4.38127 2.85357 4.40676 2.79132 4.45005 2.7422C4.61889 2.56064 4.79642 2.38752 4.98987 2.19198C4.99276 2.25467 4.9959 2.28842 4.9959 2.32242C4.9959 3.0501 4.98939 3.77803 4.99976 4.50547C5.00143 4.571 4.98971 4.63618 4.96533 4.69703C4.94095 4.75788 4.90441 4.81313 4.85795 4.85939C4.8115 4.90565 4.75609 4.94196 4.69512 4.96609C4.63415 4.99023 4.5689 5.00168 4.50335 4.99976C3.16441 4.99108 1.82594 4.99614 0.486516 4.9959C0.180424 4.9959 0.000241208 4.81675 0 4.51198C0 3.1693 0 1.82645 0 0.483436C0 0.187347 0.184283 0.00120557 0.476627 0C1.21231 0 1.94816 0 2.68416 0H2.77582L2.78426 0.0289341Z" fill="#3679AE"/>
<path d="M3.51803 0.574219C3.91072 0.762771 4.20499 1.0456 4.39554 1.43283C4.40857 1.45887 4.3818 1.52035 4.35526 1.54784C4.08029 1.83477 3.80048 2.11856 3.52334 2.40259C3.13547 2.7985 2.74721 3.19401 2.35854 3.58912C2.33442 3.61323 2.30765 3.63734 2.27774 3.66652C2.04092 3.28067 1.71451 2.9576 1.32617 2.72472C2.05993 2.00548 2.78645 1.29226 3.51803 0.574219Z" fill="#3679AE"/>
<path d="M1.99634 3.93905C1.94328 4.0326 1.86826 4.05961 1.76478 4.05744C1.49632 4.05044 1.22761 4.05502 0.942264 4.05502V3.70372C0.942264 3.52674 0.940334 3.35 0.942264 3.17327C0.944194 3.03535 1.03489 2.98158 1.15284 3.04765C1.52114 3.24826 1.81643 3.56031 1.99634 3.93905Z" fill="#3679AE"/>
<path d="M4.69386 1.21531C4.46335 0.842579 4.14712 0.530271 3.77148 0.304377C3.87424 0.207931 3.96445 0.117513 4.06093 0.0338457C4.08841 0.0125478 4.12272 0.00200315 4.15742 0.004189C4.73149 0.054582 4.94279 0.271344 4.99417 0.83917C4.99688 0.873763 4.98665 0.90813 4.96546 0.935616C4.88032 1.03062 4.78866 1.1191 4.69386 1.21531Z" fill="#3679AE"/>
</g>
<defs>
<clipPath id="clip0_465_9836">
<rect width="5" height="5" fill="white"/>
</clipPath>
</defs>
</svg>
