<svg width="21" height="23" viewBox="0 0 21 23" fill="none" xmlns="http://www.w3.org/2000/svg">
<g clip-path="url(#clip0_4106_7243)">
<path d="M8.29075 8.43634C9.95523 8.43634 11.6208 8.42317 13.2853 8.45062C13.5686 8.46143 13.8398 8.56874 14.0538 8.75475C17.7462 12.2352 17.2565 18.5264 13.08 21.3987C12.4328 21.856 11.659 22.1001 10.8665 22.0969C9.18337 22.0969 7.50023 22.086 5.81598 22.0969C4.85767 22.1075 3.92572 21.7833 3.18092 21.1802C-0.715675 18.1487 -1.08349 12.3242 2.3948 8.82392C2.51562 8.6903 2.66451 8.58508 2.8308 8.51579C2.99708 8.44651 3.17664 8.41488 3.35659 8.42317C4.99692 8.44952 6.64383 8.43634 8.29075 8.43634ZM8.2611 9.28835C6.68665 9.28835 5.1122 9.27737 3.53995 9.30152C3.29474 9.31099 3.06104 9.40798 2.88118 9.57491C-0.193056 12.7458 0.286745 18.0357 3.86933 20.6323C4.41392 21.0417 5.07869 21.2595 5.75999 21.2515C7.44423 21.2383 9.13067 21.2998 10.8105 21.2208C11.4618 21.1912 12.0933 20.988 12.6397 20.6323C16.2508 18.1257 16.746 12.7688 13.6904 9.60126C13.4995 9.42085 13.2502 9.3149 12.9877 9.30262C11.41 9.27627 9.83555 9.28835 8.2611 9.28835Z" fill="white"/>
<path d="M13.609 2.35848C13.2269 2.35848 12.8404 2.31786 12.465 2.36837C11.9566 2.43754 11.726 2.23771 11.6678 1.75132C11.6279 1.52886 11.5751 1.3089 11.5097 1.09255C12.9008 0.487587 14.2403 -0.0185619 15.7379 0.847715C16.5811 1.33191 17.5363 1.62945 18.5245 2.04447C18.5245 3.00297 18.5311 4.0581 18.5146 5.11212C18.5066 5.1769 18.483 5.23879 18.4459 5.2925C18.4089 5.34622 18.3593 5.39018 18.3016 5.42064C17.7284 5.6049 17.1438 5.7516 16.5515 5.85982C15.8807 5.96193 15.2175 5.83237 14.7048 5.35696C13.8001 4.51594 12.7559 4.18985 11.5405 4.35125C11.3212 4.36778 11.101 4.36778 10.8817 4.35125C10.2625 4.33917 9.8771 4.00759 9.89357 3.50034C9.90455 3.01176 10.2757 2.69226 10.8642 2.68677C11.613 2.68018 12.3628 2.68677 13.1127 2.68128C13.2877 2.66452 13.461 2.63367 13.631 2.58905L13.609 2.35848Z" fill="white"/>
<path d="M12.129 4.67528L12.5846 6.38917L8.49807 7.48052C7.92274 5.33624 7.3606 3.24466 6.78418 1.09599L10.8696 -0.00195312L11.5108 2.35862C11.2155 2.35862 10.9618 2.34874 10.7181 2.35862C10.4207 2.36811 10.1384 2.49213 9.93024 2.70479C9.72208 2.91746 9.60413 3.20232 9.60101 3.49989C9.59789 3.79745 9.70985 4.08472 9.91351 4.3017C10.1172 4.51868 10.3968 4.64859 10.694 4.6643C10.9311 4.68077 11.1694 4.6643 11.4076 4.6643L12.129 4.67528Z" fill="white"/>
<path d="M20.3802 1.4375V5.82927H18.876V1.4375H20.3802Z" fill="white"/>
<path d="M5.9322 20.5365C5.70603 19.0949 5.49303 17.7477 5.27344 16.3556L11.8062 15.3301C12.0258 16.7058 12.2388 18.065 12.465 19.511L5.9322 20.5365Z" fill="white"/>
<path d="M11.2066 13.7058C10.8915 14.1757 10.6148 14.6259 10.2942 15.0431C10.1649 15.186 9.99124 15.2811 9.80124 15.3132C8.95692 15.468 8.11041 15.6217 7.25841 15.7139C6.94297 15.7463 6.62532 15.6787 6.35041 15.5207C5.34689 14.8894 4.37411 14.2032 3.34863 13.5115L5.72019 9.99805L11.2066 13.7058Z" fill="white"/>
<path d="M12.5068 11.1426C13.3423 12.2954 14.1537 13.4131 14.9948 14.5747L12.3388 16.495C12.2433 15.9625 12.1599 15.5069 12.0676 14.992L10.6041 15.1797L11.6329 13.6294L10.334 12.7247L12.5068 11.1426Z" fill="white"/>
<path d="M2.18506 14.7338C2.77136 14.6152 3.283 14.5043 3.80562 14.411C3.926 14.3848 4.05168 14.3999 4.16245 14.4538C4.8322 14.893 5.49096 15.3431 6.24854 15.8559L4.93101 16.1073C5.04081 16.8693 5.1506 17.6159 5.27138 18.413L3.04365 18.8785C2.75709 17.4885 2.47711 16.1424 2.18506 14.7338Z" fill="white"/>
</g>
<defs>
<clipPath id="clip0_4106_7243">
<rect width="20.38" height="22.1027" fill="white"/>
</clipPath>
</defs>
</svg>
