<svg width="14" height="14" viewBox="0 0 14 14" fill="none" xmlns="http://www.w3.org/2000/svg">
<g clip-path="url(#clip0_4106_7101)">
<path d="M4.41349 11.0001C4.41349 11.5554 4.4302 12.1106 4.41349 12.6644C4.38917 13.2419 4.58674 13.524 5.23719 13.5166C7.71743 13.4928 10.1972 13.4928 12.6764 13.5166C13.3056 13.5166 13.5168 13.2909 13.5138 12.6852C13.4955 9.22104 13.4955 5.76088 13.5138 2.30467C13.5138 1.71083 13.3253 1.42875 12.6825 1.46883C12.1278 1.50298 11.57 1.48813 11.0108 1.46883C10.7943 1.44248 10.5807 1.39727 10.3725 1.33373L10.3876 1.02642C10.8117 1.01305 11.2342 0.987813 11.6582 0.986328C14.0031 0.986328 14.0047 0.986331 14.0031 3.24444C14.0031 6.35918 14.0031 9.47343 14.0031 12.5872C14.0031 13.7957 13.7949 13.9946 12.532 13.9961C10.1551 13.9961 7.77721 13.9961 5.39829 13.9961C4.11561 13.9961 3.92564 13.8016 3.92412 12.5115C3.92412 12.1418 3.90893 11.7692 3.93324 11.401C3.9625 11.2411 4.01362 11.0858 4.08522 10.9392L4.41349 11.0001Z" fill="white"/>
<path d="M8.4804 4.20354C8.25396 5.10323 8.05943 5.91828 7.84211 6.7274C7.37098 8.48965 6.23572 9.71892 4.57919 10.4924C4.44831 10.5434 4.30836 10.5685 4.16748 10.5662C4.0266 10.5639 3.88759 10.5343 3.75852 10.479C2.15974 9.72634 1.02296 8.56388 0.567031 6.8432C0.349706 6.00885 -0.192849 5.03196 0.0715887 4.37131C0.293473 3.81309 1.49256 3.65869 2.21445 3.24893C3.52904 2.50662 4.78891 2.4888 6.12022 3.23408C6.83298 3.63345 7.64301 3.86653 8.4804 4.20354ZM0.217484 4.43366C0.418092 5.1923 0.614141 5.95243 0.825387 6.71256C1.01385 7.45827 1.37242 8.15273 1.87428 8.74402C2.37614 9.33532 3.00832 9.80815 3.72356 10.1272C4.02259 10.2467 4.35767 10.2467 4.65669 10.1272C7.15213 8.97364 7.69621 6.71256 8.10046 4.37131C4.18861 2.58976 4.18861 2.58976 0.386179 4.30598C0.327659 4.34557 0.271345 4.38819 0.217484 4.43366Z" fill="white"/>
<path d="M6.97412 11.1204L7.0106 10.3781C8.76744 10.3781 10.4802 10.3706 12.1914 10.3944C12.313 10.3944 12.4316 10.6186 12.5516 10.7388C12.4118 10.8665 12.2735 11.104 12.1307 11.1055C10.4437 11.1308 8.7568 11.1204 6.97412 11.1204Z" fill="white"/>
<path d="M7.33447 8.89507C7.48645 8.31013 7.81319 8.15276 8.35271 8.1691C9.56851 8.20918 10.7737 8.19879 11.9834 8.1691C12.5381 8.1587 12.6263 8.39772 12.4895 8.88913L7.33447 8.89507Z" fill="white"/>
<path d="M8.36017 6.80017C8.30698 6.23898 8.48327 6.01926 8.98935 6.02965C9.99695 6.05192 11.0061 6.01925 12.0137 6.05192C12.196 6.05192 12.3708 6.26273 12.5501 6.37705C12.3723 6.51809 12.1991 6.77641 12.0182 6.78087C10.8115 6.81798 9.60333 6.80017 8.36017 6.80017Z" fill="white"/>
<path d="M8.81592 4.60931C8.89343 4.29605 8.94205 4.10602 9.00285 3.86699C10.0317 3.86699 11.0652 3.85214 12.0986 3.88184C12.2506 3.88184 12.4025 4.10008 12.5545 4.21736C12.4208 4.3495 12.2901 4.59149 12.1533 4.59594C11.0667 4.62266 9.98157 4.60931 8.81592 4.60931Z" fill="white"/>
<path d="M8.29199 1.23637C8.34518 0.862242 8.31175 0.440607 8.48956 0.134774C8.57467 -0.0136881 9.24944 -0.0493209 9.32847 0.0679644C9.53819 0.396066 9.57467 0.831062 9.67953 1.22449C9.2236 1.50211 8.76312 1.70254 8.29199 1.23637Z" fill="white"/>
<path d="M4.31784 2.57457C3.79808 1.75802 3.95006 1.13003 4.55189 1.07064C5.53213 0.974142 6.52757 1.04392 7.51997 1.04392L7.57772 1.25028C7.43334 1.32452 7.29352 1.45368 7.14611 1.46407C6.69018 1.49228 6.23425 1.47298 5.77833 1.47743C5.12027 1.48486 4.34064 1.26513 4.31784 2.57457Z" fill="white"/>
<path d="M8.29172 1.23605C8.75828 1.70222 9.21877 1.50179 9.67926 1.22417L10.0941 0.597656V1.88334H7.79932V0.600628L8.29172 1.23605Z" fill="white"/>
<path d="M0.712891 4.66264C1.75544 4.23953 2.70073 3.82383 3.67337 3.47495C4.00382 3.37033 4.35965 3.37033 4.69009 3.47495C5.54875 3.77187 6.38766 4.11482 7.21897 4.47707C7.37095 4.54536 7.57915 4.80072 7.55483 4.93433C7.21137 6.87474 6.70377 8.74387 4.63842 9.6584C4.33492 9.77264 3.99806 9.76839 3.69769 9.64653C2.04723 8.90421 1.32839 7.50421 0.989487 5.85331C0.90894 5.48216 0.814714 5.10209 0.712891 4.66264ZM4.74328 5.53857H4.68705C4.68705 5.26689 4.74785 4.97739 4.67034 4.72945C4.59283 4.48152 4.37399 4.28407 4.21441 4.05543C4.03052 4.27516 3.69161 4.50082 3.69009 4.71758C3.69009 5.59944 3.7752 6.48428 3.86031 7.36466C3.87246 7.48788 4.05939 7.59478 4.16426 7.70761C4.28128 7.57251 4.46821 7.45225 4.50164 7.30082C4.61259 6.71736 4.6673 6.12648 4.74328 5.53857ZM5.07611 8.539C4.63234 8.28661 4.37398 8.02235 4.1293 8.03571C3.93629 8.0461 3.58219 8.43359 3.61867 8.58205C3.6749 8.8181 3.98492 9.14176 4.20529 9.15512C4.42565 9.16848 4.6673 8.8478 5.07611 8.539Z" fill="white"/>
</g>
<defs>
<clipPath id="clip0_4106_7101">
<rect width="14" height="14" fill="white"/>
</clipPath>
</defs>
</svg>
