<svg width="16" height="16" viewBox="0 0 14 14" fill="none" xmlns="http://www.w3.org/2000/svg">
	<g clip-path="url(#clip0_4106_7237)">
		<path d="M6.9918 14C3.13663 14 -0.00163985 10.853 6.42871e-07 6.9918C0.00164114 3.13062 3.14702 -0.00163985 7.0082 6.44105e-07C10.8694 0.00164114 14.0077 3.15358 14 7.03555C13.9929 10.8694 10.841 14.0016 6.9918 14ZM5.75596 4.20514C6.59261 3.84095 7.42325 3.859 8.24733 4.19967C8.66128 3.57902 9.05882 2.98188 9.45747 2.38364C7.94876 1.49559 5.80134 1.58746 4.55293 2.40005C4.9461 2.99008 5.33982 3.58066 5.75596 4.20514ZM2.38419 9.45747L4.2035 8.24459C3.84314 7.40466 3.85736 6.57402 4.19967 5.75213L2.3831 4.54254C1.55191 5.88939 1.55246 8.11937 2.38419 9.45747ZM11.6142 9.45747C12.4935 7.98102 12.424 5.83361 11.6016 4.55238L9.79705 5.75541C10.1596 6.58933 10.1437 7.41997 9.80142 8.24623L11.6142 9.45747ZM8.24404 9.7965C7.40028 10.1563 6.57785 10.1432 5.75268 9.80033L4.52996 11.6371C6.19616 12.4574 7.8208 12.4574 9.4695 11.6344L8.24404 9.7965ZM7.00328 5.68815C6.74339 5.68718 6.48906 5.76339 6.27253 5.90712C6.05601 6.05086 5.88703 6.25565 5.78702 6.49553C5.68701 6.73541 5.66048 6.99958 5.71078 7.25456C5.76109 7.50954 5.88597 7.74384 6.06958 7.92777C6.2532 8.1117 6.48729 8.23696 6.74219 8.28769C6.99708 8.33842 7.2613 8.31233 7.50135 8.21273C7.7414 8.11312 7.94647 7.94448 8.09056 7.7282C8.23466 7.51191 8.3113 7.25771 8.31076 6.99781C8.30528 6.65256 8.16584 6.32294 7.92187 6.07857C7.67791 5.8342 7.34853 5.69421 7.00328 5.68815Z" fill="white" />
	</g>
	<defs>
		<clipPath id="clip0_4106_7237">
			<rect width="14" height="14" fill="white" />
		</clipPath>
	</defs>
</svg>
