<svg width="8" height="9" viewBox="0 0 8 9" fill="none" xmlns="http://www.w3.org/2000/svg">
<g clip-path="url(#clip0_4058_14435)">
<path d="M6.31545 5.38762C6.79299 5.85874 7.26593 6.31937 7.73151 6.78729C7.86525 6.91374 7.9548 7.07926 7.98712 7.25973C8.01945 7.4402 7.99285 7.6262 7.91122 7.79063C7.75174 8.12767 7.39508 8.36208 7.02371 8.29869C6.80258 8.25716 6.597 8.15674 6.42897 8.00818C5.96339 7.58404 5.52446 7.13071 5.08369 6.68103C4.9789 6.57431 4.9026 6.55424 4.75507 6.61307C2.61558 7.46318 0.250874 6.04026 0.0178505 3.77042C-0.189894 1.74184 1.44265 -0.0336282 3.50722 0.00148883C4.82677 0.0242921 5.83791 0.621738 6.48045 1.75461C7.12299 2.88747 7.08254 4.05044 6.43955 5.18741C6.40599 5.24579 6.36831 5.30234 6.31545 5.38762ZM5.54284 3.42016C5.53641 2.30097 4.59742 1.37106 3.47137 1.36786C2.33567 1.36558 1.3852 2.31146 1.39485 3.43475C1.40001 3.97717 1.61968 4.49588 2.00653 4.87915C2.39338 5.26241 2.91646 5.47957 3.4631 5.48386C4.59834 5.48978 5.54882 4.54527 5.54284 3.42016Z" fill="black"/>
<path d="M3.75748 3.76895C3.75748 3.95137 3.76162 4.10279 3.75748 4.25283C3.75059 4.46718 3.6196 4.61221 3.43024 4.61769C3.24088 4.62316 3.08829 4.47038 3.08002 4.24918C3.0745 4.09959 3.08002 3.94955 3.08002 3.76758C2.90904 3.76758 2.75232 3.77214 2.59559 3.76758C2.37038 3.76028 2.21917 3.6148 2.2279 3.42051C2.23525 3.23398 2.38003 3.10492 2.59559 3.09579C2.67188 3.0926 2.74772 3.09579 2.82539 3.09579H3.08186C3.08186 2.93435 3.07956 2.78613 3.08186 2.63973C3.08691 2.39938 3.22893 2.24022 3.42932 2.24523C3.62971 2.25025 3.75519 2.40212 3.76024 2.63061C3.763 2.77381 3.76024 2.91702 3.76024 3.09716C3.92386 3.09716 4.08197 3.09443 4.23548 3.09716C4.46299 3.10264 4.6188 3.23991 4.62064 3.43055C4.62247 3.62118 4.46667 3.76074 4.241 3.76986C4.1647 3.7726 4.08841 3.76986 4.01119 3.76986L3.75748 3.76895Z" fill="black"/>
</g>
<defs>
<clipPath id="clip0_4058_14435">
<rect width="8" height="8.30769" fill="white"/>
</clipPath>
</defs>
</svg>
