<svg width="19" height="16" viewBox="0 0 19 16" fill="none" xmlns="http://www.w3.org/2000/svg">
<g clip-path="url(#clip0_4106_7166)">
<path d="M9.06322 15.8622C7.42951 15.5412 6.02818 14.6496 4.49285 14.0949C4.44099 14.0683 4.39634 14.0302 4.36255 13.9837C4.32876 13.9372 4.30678 13.8836 4.29842 13.8273C4.28835 12.187 4.29299 10.5467 4.29842 8.90648C4.30543 8.86708 4.31821 8.82886 4.33637 8.79297C6.17227 8.6945 8.00739 8.59377 9.61709 9.70481C10.0606 10.0291 10.6138 10.1794 11.1664 10.1258C11.5275 10.1014 11.8899 10.1027 12.2509 10.1295C12.7265 10.1528 13.0379 10.3708 13.1254 10.7354C13.2254 11.1489 12.9821 11.43 12.6475 11.5834C12.2682 11.7593 11.8645 11.8806 11.4491 11.9434C11.0463 12.0006 10.6264 11.9434 10.2097 11.9434C9.95483 11.9434 9.7449 12.069 9.78674 12.3148C9.8123 12.4614 10.0331 12.6906 10.1578 12.6906C10.8999 12.6606 11.6513 12.6275 12.3771 12.4884C13.0131 12.3667 13.4701 11.9367 13.694 11.33C13.7368 11.2073 13.806 11.0948 13.8971 11C13.9882 10.9053 14.0991 10.8304 14.2223 10.7805C14.9675 10.4422 15.7003 10.0769 16.4393 9.72811C17.3689 9.28836 18.0955 9.5462 18.5107 10.4565V10.9076C18.3511 11.336 18.0459 11.6412 17.654 11.878C17.3147 12.0818 17.0009 12.3246 16.6617 12.5283C14.4656 13.846 12.2849 15.1961 9.7573 15.8689L9.06322 15.8622Z" fill="white"/>
<path d="M0 8.57024C0.122393 8.3342 0.309856 8.24174 0.591824 8.24625C1.42843 8.25903 2.26582 8.24625 3.10243 8.25227C3.53158 8.25227 3.65785 8.3748 3.65862 8.78975C3.66224 10.5262 3.66224 12.2627 3.65862 13.9992C3.65862 14.4029 3.51841 14.5389 3.09778 14.5427C2.26117 14.5509 1.42379 14.5427 0.587177 14.5479C0.309081 14.5479 0.122393 14.4449 0 14.2082V8.57024ZM2.99863 13.046C2.99591 12.9069 2.93905 12.7739 2.83947 12.6738C2.7399 12.5737 2.60498 12.5138 2.4618 12.5063C2.32495 12.5059 2.19301 12.5557 2.09244 12.6458C1.99187 12.7358 1.93011 12.8595 1.91956 12.9919C1.91232 13.0605 1.91995 13.1298 1.94196 13.1954C1.96397 13.261 1.99987 13.3214 2.04736 13.3727C2.09485 13.424 2.15288 13.4652 2.21772 13.4934C2.28255 13.5217 2.35277 13.5365 2.42385 13.5369C2.56709 13.5455 2.70803 13.4987 2.81577 13.4067C2.92351 13.3147 2.98927 13.185 2.99863 13.046Z" fill="white"/>
<path d="M7.51411 0.000303095C7.83326 0.150647 8.01918 0.380674 7.98897 0.738493C7.97038 0.96401 8.09974 1.07451 8.29882 1.08128C8.43588 1.08948 8.5711 1.04735 8.67762 0.963258C9.06494 0.576873 9.3562 0.542294 9.78071 0.8723C9.89148 0.957996 10.0023 1.04369 10.1107 1.13164C10.5856 1.51803 10.6227 1.77211 10.2238 2.23442C10.0689 2.41634 10.1068 2.54638 10.1897 2.73206C10.285 2.9463 10.4275 2.9042 10.5995 2.8824C11.0271 2.82828 11.2905 3.01997 11.3563 3.43717C11.3997 3.69656 11.4284 3.95805 11.4423 4.22047C11.457 4.55649 11.2184 4.76396 10.8412 4.82786C10.668 4.85387 10.5074 4.93104 10.3811 5.04887C10.2354 5.20598 10.2865 5.3691 10.4818 5.51794C10.8753 5.81863 10.8923 6.13059 10.5786 6.51773C10.5011 6.61621 10.4128 6.70942 10.3299 6.80564C9.86127 7.35289 9.69162 7.36567 9.07424 6.96125C9.01586 6.92543 8.9489 6.90493 8.87991 6.90176C8.81091 6.8986 8.74226 6.91286 8.68065 6.94317C8.61905 6.97348 8.56661 7.01879 8.52847 7.07466C8.49032 7.13054 8.46778 7.19507 8.46305 7.26193C8.44678 7.89413 8.37241 7.9896 7.73179 8.07003C7.60397 8.08657 7.47615 8.10762 7.34834 8.11814C6.67285 8.17152 6.53187 8.0317 6.41335 7.37394C6.38469 7.21458 6.14532 7.09054 5.9904 6.93794C5.84322 7.10031 5.75801 7.19578 5.67357 7.28524C5.39625 7.56864 5.09646 7.60246 4.78041 7.37469C4.58443 7.23262 4.39309 7.08002 4.21415 6.92366C3.86944 6.62297 3.85394 6.37039 4.13669 6.00957C4.25443 5.85922 4.42175 5.75699 4.29161 5.49539C4.15605 5.22101 3.96472 5.27964 3.74937 5.28566C3.35507 5.29618 3.12965 5.09472 3.08705 4.71285C3.06381 4.50161 3.0305 4.29038 3.01501 4.07914C2.97937 3.59353 3.11958 3.41838 3.61458 3.3387C3.83845 3.30262 4.03986 3.30863 4.12429 3.00794C4.20175 2.7283 3.98021 2.70124 3.87486 2.57044C3.81418 2.50671 3.75924 2.43805 3.71063 2.36522C3.53944 2.04423 3.81134 1.506 4.36985 1.07752C4.65337 0.860272 4.93844 0.897107 5.21421 1.1136C5.36449 1.23162 5.48688 1.41429 5.74174 1.25643C5.89667 1.15871 5.9811 1.08504 5.96948 0.884327C5.93617 0.293474 6.13216 0.107798 6.74954 0.073219C6.90114 0.0562949 7.05166 0.0311988 7.20038 -0.00195312L7.51411 0.000303095ZM10.0704 1.68942C9.9031 1.5511 9.735 1.43384 9.59479 1.29176C9.32832 1.02189 9.13001 1.07151 8.91931 1.36242C8.831 1.4842 8.65283 1.65184 8.54593 1.63379C8.2433 1.58688 7.9535 1.48129 7.69383 1.32333C7.57918 1.24816 7.56679 0.988065 7.55672 0.809155C7.54045 0.515984 7.41496 0.402473 7.1175 0.467873C7.01806 0.495838 6.91504 0.510011 6.81151 0.50997C6.47765 0.489674 6.39398 0.642273 6.4242 0.94221C6.44666 1.14518 6.56905 1.41655 6.23363 1.50901C5.87652 1.60824 5.55273 2.06528 5.13752 1.60523C4.87337 1.31356 4.62781 1.32033 4.42485 1.67664C4.40431 1.70932 4.3781 1.73832 4.34739 1.76234C4.05922 2.0074 4.03753 2.22615 4.39851 2.42912C4.68358 2.58998 4.73471 2.814 4.56196 3.09138C4.51693 3.16788 4.48871 3.2526 4.47908 3.3402C4.43957 3.65367 4.22654 3.7747 3.94148 3.74839C3.49296 3.70704 3.40388 3.91602 3.48289 4.28286C3.49336 4.34472 3.49803 4.40737 3.49683 4.47004C3.50303 4.76321 3.60838 4.90754 3.95155 4.83387C4.10647 4.79929 4.37218 4.80681 4.44809 4.90153C4.64477 5.13295 4.78487 5.40461 4.85787 5.6961C4.88731 5.83592 4.69597 6.04565 4.56196 6.18472C4.35668 6.39896 4.39387 6.5478 4.62393 6.69664C4.70056 6.74331 4.77105 6.79884 4.83386 6.86202C5.08407 7.13038 5.29864 7.13038 5.50237 6.80789C5.6666 6.54479 5.88505 6.45985 6.18096 6.63049C6.28104 6.68794 6.3919 6.7255 6.50708 6.74099C6.76271 6.77181 6.83553 6.9214 6.86651 7.14617C6.94398 7.70094 6.95095 7.70019 7.54897 7.66636C7.57453 7.66636 7.6001 7.66636 7.62644 7.66636C7.94636 7.6814 8.07728 7.55886 7.99516 7.23487C7.9177 6.92516 8.02073 6.75753 8.3484 6.57035C8.83642 6.29221 9.16564 6.35912 9.51036 6.72596C9.56679 6.76915 9.62844 6.8055 9.69395 6.8342C9.82099 6.69138 9.93951 6.56283 10.0534 6.43053C10.3958 6.03437 10.4058 6.02009 9.98986 5.71489C9.74817 5.53673 9.6924 5.36083 9.84345 5.11351C9.88372 5.04891 9.91007 4.97705 9.92092 4.90228C9.96817 4.55949 10.1533 4.40314 10.5189 4.41967C10.6622 4.42644 10.9326 4.35578 10.9365 4.30692C10.9584 4.01206 10.937 3.71566 10.8729 3.42665C10.859 3.36501 10.5871 3.36726 10.4376 3.32667C10.2579 3.27856 9.99606 3.26954 9.91937 3.15152C9.48479 2.487 9.50029 2.47497 9.98909 1.84352C10.01 1.8097 10.0247 1.77437 10.0727 1.68942H10.0704Z" fill="white"/>
<path d="M15.8879 7.41826C16.3008 7.79412 16.2962 7.84749 15.9437 8.24515C15.7702 8.4406 15.6339 8.44586 15.4247 8.28725C15.3333 8.21734 15.1342 8.18652 15.0374 8.23688C14.9751 8.27485 14.9223 8.32577 14.8828 8.38596C14.8433 8.44615 14.818 8.51411 14.8089 8.58493C14.8143 8.95553 14.5587 8.92922 14.3139 8.95327C14.0575 8.97808 13.853 8.96831 13.8429 8.63003C13.8429 8.53231 13.7228 8.39625 13.6237 8.35265C13.5245 8.30905 13.3084 8.30604 13.2611 8.36918C12.9575 8.7676 12.7514 8.48871 12.5051 8.30905C12.1952 8.08353 12.3819 7.91063 12.5423 7.72496C12.5648 7.69579 12.5853 7.66515 12.6035 7.63325C12.5198 7.37015 12.4276 7.18222 12.0612 7.20402C11.7304 7.22732 11.7955 6.90333 11.7715 6.69435C11.7483 6.4974 11.7467 6.3012 12.0388 6.30646C12.244 6.31022 12.4129 6.24632 12.4098 6.02607C12.4112 5.88319 12.3638 5.74388 12.275 5.62991C12.0101 5.3435 12.2952 5.20669 12.4199 5.02853C12.5446 4.85038 12.6848 4.74664 12.894 4.9278C12.9714 4.99395 13.0574 5.04733 13.1364 5.10446C13.3851 5.00072 13.6361 4.95411 13.5756 4.57299C13.5292 4.27982 13.8537 4.30763 14.0613 4.29109C14.2449 4.27606 14.4487 4.22269 14.5029 4.51135C14.5974 4.99621 14.8577 5.08115 15.2233 4.76693C15.5332 4.50007 15.6734 4.82933 15.8693 4.94284C16.0653 5.05635 16.1017 5.21646 15.9468 5.37883C15.7919 5.54121 15.764 5.65848 15.8693 5.8667C15.9747 6.07493 16.1265 5.99675 16.2729 6.03659C16.3449 6.06518 16.4091 6.10949 16.4606 6.16607C16.512 6.22265 16.5493 6.28999 16.5696 6.36284C16.6022 6.55077 16.7718 6.87476 16.4085 6.90934C16.0452 6.94392 15.9522 7.12358 15.8879 7.41826ZM14.207 5.69907C14.0814 5.69205 13.9558 5.70981 13.8375 5.75128C13.7193 5.79275 13.6109 5.85706 13.519 5.94033C13.4271 6.02361 13.3536 6.1241 13.3029 6.23575C13.2522 6.34739 13.2253 6.46786 13.224 6.58986C13.216 6.83718 13.3097 7.07741 13.4843 7.25772C13.6589 7.43803 13.9002 7.54364 14.1551 7.55131C14.4099 7.55899 14.6575 7.4681 14.8433 7.29865C15.0291 7.1292 15.1379 6.89506 15.1458 6.64774C15.1683 6.1501 14.7368 5.7141 14.207 5.69907Z" fill="white"/>
<path d="M7.18151 5.79461C6.72674 5.77201 6.29828 5.58078 5.98463 5.26043C5.67098 4.94007 5.49609 4.51506 5.49609 4.07316C5.49609 3.63127 5.67098 3.20625 5.98463 2.8859C6.29828 2.56554 6.72674 2.37432 7.18151 2.35172C7.4175 2.34863 7.65176 2.39107 7.8707 2.47658C8.08964 2.56208 8.2889 2.68895 8.45689 2.84981C8.62489 3.01066 8.75828 3.20231 8.84931 3.41361C8.94035 3.62491 8.98722 3.85166 8.98719 4.08068C8.98952 5.04363 8.19784 5.79912 7.18151 5.79461ZM8.52938 4.07316C8.5279 3.90061 8.49099 3.73008 8.42081 3.57154C8.35062 3.41299 8.24857 3.26962 8.12062 3.14979C7.99267 3.02997 7.84139 2.9361 7.67562 2.87367C7.50985 2.81124 7.33292 2.78151 7.15517 2.78621C6.89198 2.79333 6.63681 2.87569 6.42167 3.02298C6.20652 3.17026 6.04098 3.37591 5.94579 3.61414C5.85061 3.85236 5.83003 4.11255 5.88662 4.36208C5.94322 4.61162 6.07448 4.83938 6.26394 5.0168C6.45339 5.19423 6.69262 5.31343 6.95161 5.35944C7.21059 5.40546 7.47782 5.37624 7.71977 5.27546C7.96171 5.17468 8.16761 5.00682 8.31164 4.79294C8.45567 4.57905 8.53142 4.32866 8.52938 4.07316Z" fill="white"/>
</g>
<defs>
<clipPath id="clip0_4106_7166">
<rect width="18.5139" height="15.8613" fill="white"/>
</clipPath>
</defs>
</svg>
