<svg width="6" height="6" viewBox="0 0 6 6" fill="none" xmlns="http://www.w3.org/2000/svg">
<g clip-path="url(#clip0_4058_14423)">
<path d="M1.2386 5.22877C1.07599 5.09626 1.07649 5.09651 1.165 4.91898C1.29752 4.65294 1.42953 4.38791 1.55193 4.14032C1.30308 3.99162 1.05221 3.86973 0.833209 3.70509C0.41012 3.38746 0.113476 2.976 0.0262282 2.44063C-0.0716413 1.83874 0.107407 1.31652 0.512794 0.872694C0.978623 0.361598 1.57317 0.100107 2.25194 0.0242391C3.01542 -0.0625032 3.72605 0.0899914 4.35778 0.538117C4.80944 0.858533 5.1205 1.28415 5.21761 1.84026C5.31472 2.39637 5.16501 2.89154 4.81298 3.32424C4.37093 3.86619 3.78295 4.15474 3.10166 4.24502C2.83233 4.28093 2.59587 4.35528 2.3708 4.50879C2.00183 4.75814 1.61945 4.98751 1.2386 5.22877Z" fill="#3679AE"/>
</g>
<defs>
<clipPath id="clip0_4058_14423">
<rect width="5.24601" height="5.22906" fill="white"/>
</clipPath>
</defs>
</svg>
