<svg width="20" height="19" viewBox="0 0 20 19" fill="none" xmlns="http://www.w3.org/2000/svg">
<path d="M8.16367 11.0001C7.03185 11.0001 5.90004 11.0001 4.76822 11.0001C4.68714 11.0001 4.58106 11.0087 4.53057 10.967C4.45051 10.9004 4.36177 10.7945 4.3633 10.707C4.3633 10.629 4.47346 10.5401 4.55556 10.4805C4.60197 10.4474 4.6902 10.4583 4.75956 10.4583C7.03542 10.4583 9.31163 10.4583 11.5882 10.4583C11.6264 10.4583 11.6647 10.4583 11.7024 10.4583C11.8896 10.4729 12.0171 10.5864 12.0135 10.7325C12.0099 10.8786 11.8804 10.9959 11.6927 10.9983C11.3046 11.0039 10.917 11.0006 10.529 11.0006L8.16367 11.0001Z" fill="#3679AE"/>
<path d="M8.17028 12.7991C7.03813 12.7991 5.90631 12.7991 4.77484 12.7991C4.69936 12.7991 4.60195 12.8114 4.553 12.7745C4.46885 12.7112 4.36379 12.6133 4.36328 12.5296C4.36277 12.4459 4.46528 12.3471 4.54994 12.2823C4.59838 12.2449 4.69579 12.2549 4.77076 12.2549C7.04051 12.2549 9.31059 12.2549 11.581 12.2549H11.6188C11.8646 12.2586 12.0114 12.3598 12.0125 12.5272C12.0135 12.6946 11.8681 12.8001 11.6228 12.8005C10.472 12.8002 9.32113 12.7997 8.17028 12.7991Z" fill="#3679AE"/>
<path d="M7.26695 9.19678C6.42804 9.19678 5.58912 9.19678 4.7502 9.19678C4.66963 9.19678 4.561 9.20199 4.51459 9.15943C4.4381 9.08897 4.35599 8.97785 4.3616 8.8899C4.36772 8.81235 4.48145 8.72771 4.56865 8.67522C4.62373 8.64212 4.71655 8.65773 4.79253 8.65773H9.7684C10.0683 8.65773 10.2177 8.74946 10.2146 8.92962C10.2116 9.10978 10.0616 9.1982 9.76279 9.19867L7.26695 9.19678Z" fill="#3679AE"/>
<path d="M2.59137 18.1228C2.38738 18.014 2.32363 17.8481 2.32567 17.6348C2.33213 16.998 2.3289 16.3609 2.31598 15.7235C2.31079 15.6281 2.26838 15.5377 2.19665 15.4691C0.959945 14.3853 0.229654 13.0623 0.0470816 11.4971C-0.338973 8.18147 1.69584 5.655 4.43596 4.68801C5.22286 4.41092 6.04087 4.29317 6.8803 4.28986C7.10265 4.28986 7.32551 4.28561 7.54837 4.28986C7.7442 4.29459 7.86405 4.3972 7.86966 4.55088C7.87527 4.71496 7.75899 4.82466 7.55041 4.83034C7.20719 4.83885 6.86347 4.8327 6.52025 4.84169C3.81022 4.91262 1.33376 6.79789 0.762583 9.25438C0.373978 10.9273 0.570831 12.5308 1.61221 13.9829C1.90137 14.3863 2.27263 14.7442 2.63778 15.0942C2.81576 15.2649 2.90654 15.4228 2.90042 15.6616C2.88665 16.204 2.90042 16.7468 2.90705 17.2896C2.90705 17.352 2.91368 17.4149 2.91827 17.5034C3.06259 17.4523 3.18601 17.4121 3.30687 17.3662C3.94129 17.1265 4.57417 16.8825 5.21113 16.648C5.31261 16.6149 5.41983 16.5997 5.52732 16.603C6.86296 16.6002 8.1991 16.603 9.53525 16.6007C10.9134 16.6005 12.2522 16.175 13.3408 15.3914C14.4293 14.6078 15.2057 13.5105 15.5474 12.2726C15.5647 12.2121 15.5749 12.1502 15.5933 12.0688C15.1777 12.0906 14.7967 12.0759 14.4979 11.7799C14.199 11.4839 14.2215 11.1373 14.2373 10.7737C14.1608 10.7585 14.0945 10.7477 14.0297 10.7321C13.7977 10.6758 13.638 10.5117 13.6304 10.2918C13.6202 9.99724 13.6222 9.70218 13.6304 9.40711C13.6355 9.19811 13.7737 9.06335 13.9614 8.96878C13.8594 8.52098 13.5942 8.16492 13.2984 7.82068C13.0531 7.5346 12.8012 7.25325 12.5793 6.9511C12.2488 6.50555 12.0693 5.97868 12.0637 5.43796C12.0637 5.32873 12.0005 5.30083 11.9158 5.2682C11.1331 4.96684 10.2919 4.8178 9.44447 4.83034C9.25986 4.83034 9.07525 4.83459 8.89115 4.83034C8.68715 4.82419 8.55558 4.7126 8.55609 4.56034C8.5566 4.40808 8.69123 4.29365 8.89115 4.28845C9.9621 4.26007 11.0111 4.3485 12.0137 4.72773C12.0381 4.73504 12.063 4.74088 12.0882 4.74522C12.1163 4.64403 12.1428 4.54426 12.1708 4.44496C12.4595 3.41839 13.1607 2.74268 14.223 2.37622C14.4112 2.31096 14.5733 2.37101 14.635 2.51807C14.6968 2.66513 14.6213 2.8103 14.427 2.8765C13.8553 3.07179 13.3779 3.38009 13.0531 3.86571C12.5043 4.68706 12.3988 5.96756 13.2948 6.96954C13.6056 7.30452 13.8933 7.65734 14.1562 8.0259C14.3433 8.29921 14.4504 8.61934 14.6029 8.93899H15.2623C15.2664 8.87137 15.273 8.80942 15.273 8.74701C15.273 8.3342 15.27 7.9214 15.2761 7.50812C15.2761 7.39038 15.2501 7.32655 15.117 7.27595C14.8684 7.17984 14.6639 7.0062 14.5388 6.78506C14.4138 6.56392 14.376 6.3092 14.4321 6.06497C14.5341 5.59495 15.0022 5.23132 15.5346 5.21383C16.0671 5.19633 16.548 5.52969 16.6903 6.01768C16.7618 6.26515 16.7343 6.52824 16.6129 6.75839C16.4915 6.98853 16.2844 7.17018 16.0298 7.2698C15.8916 7.32324 15.857 7.3866 15.8595 7.51522C15.8677 7.92802 15.8595 8.34082 15.8631 8.75363C15.8631 8.81132 15.8687 8.86853 15.8717 8.9352H16.5883C16.7295 8.13702 17.3124 7.57243 17.8336 6.97474C18.5476 6.15434 18.6924 5.23936 18.3003 4.26811C17.9392 3.37489 17.1722 2.92189 16.1874 2.75497C16.0252 2.72802 15.8585 2.72944 15.6948 2.71005C15.5041 2.68688 15.4015 2.57292 15.4163 2.41262C15.4296 2.26509 15.551 2.16154 15.7341 2.17241C17.085 2.24949 18.1932 2.73464 18.7669 3.92435C19.3279 5.08379 19.1887 6.21155 18.3426 7.23765C18.1386 7.48543 17.9188 7.72375 17.7112 7.9701C17.4629 8.26517 17.264 8.58482 17.1747 8.96783C17.4537 9.08888 17.5317 9.30971 17.5134 9.57876C17.5027 9.76128 17.5134 9.94428 17.5134 10.1273C17.5134 10.5476 17.3731 10.6975 16.9055 10.7633C16.9055 10.889 16.9055 11.0181 16.9055 11.1468C16.8988 11.525 16.7071 11.7998 16.3516 11.9705C16.3018 11.9919 16.2583 12.0242 16.2249 12.0647C16.1915 12.1051 16.1692 12.1524 16.1599 12.2026C15.4087 14.8473 13.5901 16.4673 10.7031 17.0371C10.3033 17.1161 9.88204 17.1232 9.46997 17.1265C8.2042 17.1374 6.93792 17.1265 5.67216 17.1341C5.52783 17.1371 5.38529 17.1643 5.25142 17.2144C4.46656 17.4982 3.68528 17.7951 2.90246 18.0878C2.88608 18.096 2.87084 18.106 2.85707 18.1176L2.59137 18.1228ZM16.9269 9.4927H14.2169V10.1977H16.9269V9.4927ZM16.3149 10.7694H14.8054C14.8054 10.9051 14.7993 11.0281 14.8054 11.1505C14.8066 11.255 14.8524 11.3547 14.9328 11.4278C15.0132 11.5009 15.1216 11.5415 15.2343 11.5406C15.3485 11.5449 15.4627 11.5406 15.577 11.5406C16.2598 11.5406 16.3725 11.4286 16.3272 10.7959C16.3246 10.7859 16.3208 10.7763 16.3159 10.767L16.3149 10.7694ZM14.989 6.29856C14.9909 6.44052 15.0535 6.57597 15.1631 6.67511C15.2174 6.7242 15.2815 6.7629 15.3519 6.789C15.4223 6.8151 15.4976 6.82808 15.5734 6.82721C15.6492 6.82634 15.7241 6.81164 15.7938 6.78393C15.8635 6.75623 15.9266 6.71607 15.9795 6.66575C16.0325 6.61543 16.0742 6.55594 16.1024 6.49066C16.1305 6.42539 16.1445 6.35561 16.1436 6.28532C16.1417 6.14335 16.079 6.0079 15.9694 5.90876C15.8598 5.80962 15.7122 5.75491 15.5591 5.75666C15.406 5.75842 15.2599 5.8165 15.153 5.91812C15.0461 6.01975 14.9871 6.15659 14.989 6.29856Z" fill="#3679AE"/>
<path d="M15.8646 0.658218C15.8646 0.78778 15.8727 0.918289 15.8646 1.04691C15.8513 1.21572 15.7361 1.31596 15.5734 1.31596C15.4107 1.31596 15.2908 1.21761 15.2842 1.04691C15.274 0.78778 15.2735 0.526763 15.2842 0.269056C15.2913 0.0993009 15.4117 -0.000471183 15.5734 1.67325e-06C15.735 0.00047453 15.8452 0.101666 15.8661 0.26953C15.8669 0.281182 15.8669 0.292868 15.8661 0.304521V0.658218H15.8646Z" fill="#3679AE"/>
<path d="M13.1239 1.78314C13.0678 1.84792 13.0188 1.95432 12.9372 1.98505C12.8556 2.01579 12.7052 2.00869 12.6409 1.95763C12.4123 1.77063 12.1957 1.57138 11.9923 1.36088C11.8846 1.25165 11.8989 1.11783 12.0127 1.01097C12.1264 0.904102 12.2595 0.885661 12.3727 0.981651C12.6068 1.17978 12.8271 1.39256 13.0469 1.60487C13.0826 1.63892 13.0892 1.69992 13.1239 1.78314Z" fill="#3679AE"/>
<path d="M19.2531 1.17231C19.2021 1.2631 19.175 1.34017 19.122 1.39219C18.9348 1.57708 18.741 1.75582 18.5437 1.93124C18.4106 2.04946 18.2316 2.04709 18.1194 1.93645C18.0072 1.8258 18.0174 1.67354 18.1377 1.5558C18.3268 1.36476 18.5263 1.18279 18.7354 1.01059C18.7798 0.982862 18.8301 0.96429 18.8829 0.956132C18.9357 0.947974 18.9897 0.950421 19.0414 0.963308C19.1261 0.987424 19.1806 1.09571 19.2531 1.17231Z" fill="#3679AE"/>
</svg>
