<svg width="13" height="15" viewBox="0 0 13 15" fill="none" xmlns="http://www.w3.org/2000/svg">
<g clip-path="url(#clip0_4106_7115)">
<path d="M4.54709 15.0006C3.63083 14.8531 3.12806 14.2111 2.69597 13.456C2.27566 12.7255 1.81442 12.0194 1.37179 11.3046C1.31724 11.2167 1.24161 11.1307 1.22301 11.0341C1.20441 10.9374 1.19945 10.783 1.25835 10.7165C1.30025 10.6823 1.34992 10.6592 1.40285 10.6494C1.45578 10.6395 1.51031 10.6432 1.56149 10.66C1.8381 10.8145 2.10293 10.9897 2.35377 11.1841C2.51495 11.3096 2.64203 11.4772 2.85963 11.6008V11.277C2.85963 10.4924 2.85963 9.70793 2.85963 8.92341C2.85963 8.5845 2.98362 8.43576 3.24709 8.43952C3.49506 8.43952 3.62959 8.60835 3.63083 8.93847C3.63455 9.69161 3.63083 10.4447 3.63827 11.1979C3.63827 11.2864 3.70894 11.4395 3.76659 11.4489C3.96993 11.486 3.9191 11.3083 3.92096 11.1979C3.9253 10.8734 3.92964 10.5489 3.92096 10.2251C3.91352 9.96839 4.0344 9.82843 4.2737 9.79894C4.50307 9.77007 4.69897 9.95396 4.70765 10.2238C4.72315 10.5891 4.71323 10.9556 4.71509 11.3222C4.71509 11.363 4.72315 11.4037 4.72997 11.4653H5.01948C5.01948 11.186 5.01948 10.9161 5.01948 10.6494C5.01948 10.2289 5.10875 10.1027 5.3964 10.1008C5.68405 10.0989 5.79502 10.2477 5.79749 10.6657C5.79749 10.9048 5.79749 11.1439 5.79749 11.4094L6.09568 11.4282C6.09568 11.1835 6.09134 10.9657 6.09568 10.7479C6.10064 10.5188 6.20603 10.3713 6.44533 10.3531C6.68462 10.3349 6.88672 10.4479 6.88424 10.6883C6.87432 11.6159 6.88424 12.5491 6.78319 13.468C6.68958 14.3121 6.08762 14.7514 5.30093 14.9435C5.25343 14.9606 5.2074 14.9816 5.1633 15.0063L4.54709 15.0006Z" fill="white"/>
<path d="M8.23397 4.30922C8.96611 4.30922 9.69763 4.30922 10.4298 4.30922C10.8017 4.30922 10.9877 4.45609 10.9927 4.73914C10.9976 5.0222 10.7862 5.19855 10.4149 5.19918C8.96136 5.20169 7.50803 5.20169 6.0549 5.19918C6.00335 5.20097 5.95174 5.19866 5.90054 5.19228C5.62467 5.14897 5.45109 4.95441 5.48085 4.70588C5.51308 4.43475 5.67984 4.30859 5.9458 4.30859L8.23397 4.30922Z" fill="white"/>
<path d="M8.23089 8.35571C7.48697 8.35571 6.74305 8.35571 5.99913 8.35571C5.66499 8.35571 5.47839 8.19065 5.47901 7.91638C5.47901 7.65467 5.68792 7.47328 6.00595 7.47266C7.49379 7.47266 8.98163 7.47266 10.4695 7.47266C10.7875 7.47266 10.9952 7.66094 10.9933 7.92266C10.9915 8.18437 10.7956 8.35571 10.4633 8.35696C9.71873 8.35822 8.97481 8.35571 8.23089 8.35571Z" fill="white"/>
<path d="M3.93673 7.29386H2.44889C2.37573 7.92148 2.30382 8.53591 2.23253 9.15223C1.94984 9.18801 1.81408 9.07441 1.81594 8.7901C1.81594 8.20453 1.82152 7.61897 1.81594 7.03277C1.81594 6.79177 1.93992 6.67755 2.15318 6.67504C2.85495 6.665 3.55733 6.66625 4.26095 6.67504C4.49095 6.67504 4.6168 6.80056 4.6137 7.05161C4.60688 7.63717 4.6137 8.22211 4.6137 8.80893C4.6137 9.0355 4.51203 9.15537 4.28637 9.15663C4.16858 8.54282 4.05699 7.94031 3.93673 7.29386Z" fill="white"/>
<path d="M3.00338 4.69398C3.2154 4.42662 3.40448 4.18185 3.60038 3.94085C3.81984 3.67285 4.06099 3.61951 4.26061 3.78708C4.47511 3.96658 4.47325 4.19566 4.25069 4.47055C3.95126 4.84022 3.6537 5.21302 3.34497 5.57516C3.0877 5.87704 2.82547 5.86386 2.57501 5.55194C2.42623 5.36365 2.2824 5.17537 2.133 4.99085C1.96128 4.77934 1.95694 4.57035 2.16028 4.38583C2.36362 4.20131 2.57315 4.24524 2.75975 4.43164C2.83352 4.50696 2.90048 4.58415 3.00338 4.69398Z" fill="white"/>
<path d="M13.001 1.20126C13.001 0.601884 12.794 0.20272 12.2354 0H0.76663C0.20869 0.20272 -0.00208946 0.601881 0.0010102 1.20251C0.0177484 4.21506 0.00844971 7.22761 0.00906964 10.2402C0.00532229 10.3761 0.0102916 10.5122 0.0239474 10.6475C0.0704424 11.0153 0.359952 11.3128 0.683557 11.3379C0.580028 10.9958 0.522995 3.07657 0.621564 2.40439H12.4183C12.4232 2.48284 12.4307 2.54372 12.4307 2.6046C12.4307 5.21925 12.4307 7.83431 12.4307 10.4498C12.4307 10.7874 12.3588 10.8515 11.9918 10.8521C10.618 10.8521 9.24401 10.8521 7.86982 10.8521H7.53878V11.41C7.57336 11.4208 7.60884 11.4284 7.64479 11.4326C9.13263 11.4326 10.6205 11.437 12.1083 11.4257C12.2721 11.418 12.4312 11.3676 12.5702 11.2795C12.926 11.0592 12.9992 10.7046 12.9985 10.3036C12.9899 7.26715 12.9843 4.2364 13.001 1.20126ZM7.87664 1.82511C7.81282 1.82497 7.74967 1.81186 7.69094 1.78656C7.63221 1.76125 7.5791 1.72426 7.53475 1.67779C7.49041 1.63132 7.45573 1.5763 7.43279 1.51601C7.40984 1.45571 7.39908 1.39136 7.40115 1.32678C7.40748 1.20179 7.46003 1.08379 7.54836 0.996228C7.63668 0.908667 7.75432 0.85796 7.87788 0.854183C8.00729 0.854142 8.1316 0.905317 8.22426 0.996779C8.31692 1.08824 8.37059 1.21275 8.37383 1.34372C8.37304 1.40863 8.35946 1.47272 8.33388 1.53225C8.30831 1.59177 8.27125 1.64553 8.22488 1.69036C8.17852 1.7352 8.12378 1.77021 8.06387 1.79335C8.00397 1.81648 7.94011 1.82728 7.87602 1.82511H7.87664ZM9.53001 1.82511C9.46619 1.8291 9.40222 1.82028 9.34177 1.79917C9.28133 1.77806 9.2256 1.74506 9.17779 1.70208C9.12997 1.6591 9.09102 1.60698 9.06316 1.54871C9.03531 1.49045 9.0191 1.42718 9.01546 1.36255C9.01258 1.23106 9.06142 1.10378 9.15123 1.00874C9.24104 0.913695 9.36447 0.858667 9.49436 0.855754C9.62425 0.852841 9.74996 0.902285 9.84384 0.993209C9.93772 1.08413 9.99208 1.20909 9.99496 1.34058C9.99271 1.46606 9.94331 1.58596 9.85681 1.67586C9.77032 1.76576 9.65323 1.81891 9.52939 1.82448L9.53001 1.82511ZM11.1505 1.82511C11.0215 1.83407 10.8942 1.79077 10.7966 1.70474C10.6991 1.6187 10.6393 1.49698 10.6304 1.36632C10.6161 1.11088 10.8467 0.864227 11.1071 0.856696C11.2359 0.85679 11.3598 0.906668 11.4535 0.99614C11.5471 1.08561 11.6035 1.20792 11.6111 1.33808C11.6103 1.46344 11.562 1.5837 11.4762 1.67408C11.3904 1.76446 11.2736 1.81807 11.1499 1.82385L11.1505 1.82511Z" fill="white"/>
</g>
<defs>
<clipPath id="clip0_4106_7115">
<rect width="13" height="15" fill="white"/>
</clipPath>
</defs>
</svg>
