<svg width="27" height="18" viewBox="0 0 27 18" fill="none" xmlns="http://www.w3.org/2000/svg">
<g clip-path="url(#clip0_4058_1988)">
<path d="M0.285156 12.2305C0.37838 11.8684 0.441639 11.4955 0.568989 11.1485C0.929206 10.1404 1.65948 9.30717 2.61158 8.81787C2.68394 8.7884 2.7464 8.73893 2.79165 8.67525C2.83691 8.61157 2.86308 8.53631 2.86712 8.45829C2.99673 7.28548 3.51676 6.19027 4.34368 5.34855C5.1706 4.50684 6.25642 3.96747 7.42675 3.81709C8.59462 3.65166 9.78395 3.89012 10.7978 4.49296L10.9951 4.60533C11.1091 4.39058 11.2123 4.1775 11.328 3.9744C12.4808 2.02253 14.1788 0.849747 16.4162 0.505985C19.9071 -0.0308834 23.3014 2.24893 24.1754 5.68239C24.4243 6.62655 24.4641 7.61369 24.2919 8.57482C24.2711 8.6471 24.2764 8.72439 24.3068 8.79317C24.3372 8.86195 24.3909 8.91784 24.4584 8.95105C25.9375 9.90492 26.6225 11.2816 26.5309 13.0246C26.4277 14.9998 24.7605 16.7585 22.8012 16.9957C22.5388 17.0282 22.2748 17.0449 22.0104 17.0457C20.0128 17.0496 18.0135 17.0496 16.0125 17.0457C15.6088 17.0457 15.5131 16.9533 15.5131 16.5463C15.5131 15.7 15.5131 14.8541 15.5131 14.0084C15.5131 13.5997 15.6596 13.4557 16.0666 13.4532C16.3995 13.4532 16.7325 13.4616 17.0654 13.4466C17.118 13.446 17.1699 13.4349 17.2181 13.4138C17.2662 13.3928 17.3097 13.3624 17.3459 13.3242C17.3817 13.2726 17.3284 13.1261 17.2735 13.0521C16.0943 11.4578 14.911 9.86081 13.7235 8.26102C13.4971 7.95721 13.3073 7.97802 13.0576 8.31596C12.1232 9.57892 11.1895 10.8416 10.2568 12.104C10.0229 12.4195 9.78231 12.7308 9.55924 13.0537C9.52835 13.096 9.50644 13.1442 9.49484 13.1953C9.48325 13.2464 9.48222 13.2994 9.49182 13.3509C9.51346 13.4108 9.65829 13.4507 9.75484 13.4541C10.0969 13.4657 10.439 13.4541 10.7803 13.4599C11.159 13.4599 11.3138 13.6114 11.3155 13.9818C11.3188 14.8624 11.3188 15.7425 11.3155 16.622C11.3155 16.9458 11.2056 17.0482 10.881 17.049C8.80013 17.049 6.71176 17.0582 4.62671 17.049C3.58347 17.044 2.57668 16.6647 1.78951 15.98C1.00235 15.2954 0.487132 14.3509 0.337595 13.3184C0.32634 13.2793 0.30952 13.242 0.287653 13.2077L0.285156 12.2305Z" fill="#3679AE"/>
</g>
<defs>
<clipPath id="clip0_4058_1988">
<rect width="26.2516" height="16.6246" fill="white" transform="translate(0.285156 0.429688)"/>
</clipPath>
</defs>
</svg>
