<svg width="52" height="51" viewBox="0 0 52 51" fill="none" xmlns="http://www.w3.org/2000/svg">
<g clip-path="url(#clip0_4058_10792)">
<path d="M44.1527 43.6549C43.1127 35.61 38.7459 30.3154 30.9249 27.6349C34.3245 25.528 36.0954 22.5412 35.8374 18.5755C35.6539 15.7523 34.4568 13.3667 32.2097 11.5548C28.0182 8.17418 21.5812 8.88564 18.2561 13.0734C15.0119 17.1687 15.0781 23.9868 21.0455 27.6219C13.2477 30.2797 8.84726 35.6052 7.84415 43.5982C2.057 38.7152 -1.78732 29.2652 0.843357 19.3161C3.7452 8.33948 13.2113 0.547435 24.3226 0.0304498C36.3417 -0.52381 46.3717 5.96038 50.3962 16.95C54.2075 27.3318 50.8592 37.6861 44.1527 43.6549Z" fill="#3679AE"/>
<path d="M25.8781 50.9999C20.1108 50.9384 14.8963 49.2005 10.2346 45.7863C9.78322 45.4541 9.65425 45.1203 9.69724 44.5709C9.97999 40.9601 10.9605 37.5778 13.3564 34.766C17.7199 29.6431 23.3979 27.9593 29.906 29.4422C36.4603 30.9364 40.3642 35.21 41.8523 41.6083C42.0788 42.5807 42.1251 43.5855 42.302 44.5676C42.4012 45.1186 42.2194 45.4541 41.7663 45.7847C37.0638 49.2286 31.7893 50.974 25.8781 50.9999Z" fill="#3679AE"/>
<path d="M18.0244 19.1577C18.0244 14.6588 21.5132 11.2392 26.09 11.2668C30.4469 11.2943 34.0647 14.8986 34.035 19.1804C34.0052 23.4621 30.4288 27.0032 26.0983 27.0162C21.4884 27.034 18.0327 23.6728 18.0244 19.1577Z" fill="#3679AE"/>
</g>
<defs>
<clipPath id="clip0_4058_10792">
<rect width="52" height="51" fill="white"/>
</clipPath>
</defs>
</svg>
