<svg width="17" height="13" viewBox="0 0 17 13" fill="none" xmlns="http://www.w3.org/2000/svg">
<g clip-path="url(#clip0_4106_7240)">
<path d="M2.84273 10.4378C2.84273 10.7223 2.84273 10.9919 2.84273 11.2614C2.83899 11.7278 2.55653 12.0077 2.08812 12.0102C1.79692 12.0102 1.50573 12.014 1.21453 12.0102C0.81185 12.0044 0.523983 11.7165 0.517743 11.3122C0.513167 11.0143 0.517743 10.7169 0.517743 10.4082C0.125461 10.3321 0.00690175 10.065 0.00731774 9.70894C0.00731774 8.5504 -0.0114014 7.39144 0.0131423 6.23373C0.0339419 5.24616 0.611342 4.61635 1.44957 4.18663C1.50448 4.15834 1.56022 4.13171 1.61597 4.10343C1.62013 4.10135 1.62096 4.09261 1.63219 4.06724C1.35389 4.04893 1.08225 4.02189 0.810601 4.0144C0.23653 3.99901 0.195348 3.62379 0.301842 3.16702C0.343441 2.98898 0.50776 2.91452 0.687469 2.90162C1.02026 2.87791 1.35306 2.83132 1.68252 2.84546C1.89052 2.8542 2.09852 2.95653 2.33771 3.02683C2.54571 2.63705 2.78241 2.20109 3.01079 1.76055C3.30199 1.20104 3.72422 0.785046 4.32533 0.587449C4.59013 0.507467 4.8639 0.46093 5.14026 0.448923C7.09878 0.323852 9.06306 0.316906 11.0224 0.428123C11.2159 0.439355 11.4089 0.463899 11.6023 0.473882C12.4139 0.515482 12.9992 0.927316 13.4069 1.60247C13.6498 2.00516 13.8562 2.42988 14.0791 2.84463L14.2135 3.09714C14.5122 2.76975 14.8857 2.8413 15.2485 2.86002C15.4353 2.86959 15.6229 2.88581 15.808 2.90162C16.0967 2.9245 16.2452 3.08299 16.2506 3.37128C16.2598 3.87588 16.1475 3.99277 15.6399 4.01773C15.3903 4.0298 15.1407 4.0506 14.84 4.07098C14.9365 4.12215 14.991 4.15418 15.048 4.17997C15.776 4.53689 16.296 5.06936 16.4707 5.88554C16.4977 6.0284 16.51 6.17365 16.5073 6.31901C16.5101 7.41501 16.5101 8.51046 16.5073 9.60536C16.5073 9.6611 16.5073 9.71643 16.5035 9.77175C16.4857 10.1461 16.3729 10.2909 15.9965 10.4099C15.9965 10.6849 15.9965 10.9677 15.9965 11.2502C15.9965 11.7352 15.7211 12.0081 15.2356 12.0098C14.9511 12.0098 14.6669 12.0123 14.3828 12.0098C13.9701 12.0056 13.6794 11.7186 13.6715 11.3026C13.6661 11.0193 13.6715 10.736 13.6715 10.4386L2.84273 10.4378ZM2.68798 3.87089C6.39633 3.6502 10.1145 3.6502 13.8229 3.87089C13.8229 3.86257 13.832 3.84593 13.8266 3.83636C13.4606 3.15288 13.1107 2.45984 12.7197 1.79092C12.6085 1.59275 12.4515 1.42407 12.2618 1.29894C12.0721 1.17382 11.8553 1.09589 11.6293 1.07167C11.272 1.03007 10.9118 1.00136 10.5519 0.988466C8.78539 0.907619 7.01584 0.919144 5.2505 1.02299C4.69973 1.05711 4.17724 1.19521 3.87772 1.67735C3.44259 2.38163 3.07693 3.12875 2.68257 3.85799C2.68216 3.86049 2.68756 3.87089 2.68798 3.87089ZM2.4725 7.34443V7.42763C2.84689 7.42763 3.22128 7.42763 3.59277 7.42763C3.84735 7.42763 4.02332 7.29659 4.02415 7.07653C4.02415 6.59939 3.80908 6.20295 3.29991 6.10727C2.64139 5.98247 1.98163 5.86641 1.32228 5.74618C1.00654 5.68836 0.787721 5.85351 0.773994 6.17133C0.765258 6.37933 0.765258 6.58732 0.773994 6.79532C0.786057 7.11605 1.00695 7.33611 1.33268 7.34443C1.71165 7.35109 2.09228 7.34443 2.4725 7.34443ZM14.0296 7.42763V7.34443C14.4098 7.34443 14.7905 7.35067 15.1707 7.34443C15.5156 7.33736 15.7323 7.11023 15.7394 6.76204C15.7431 6.57526 15.7435 6.38765 15.7394 6.20128C15.7302 5.85518 15.5172 5.6867 15.1786 5.74951C14.5546 5.86558 13.9306 5.9833 13.3037 6.09562C12.802 6.18548 12.5649 6.42467 12.4967 6.92386C12.4514 7.25666 12.6094 7.43013 12.9522 7.42805C13.3104 7.4243 13.6702 7.42597 14.0296 7.42597V7.42763Z" fill="white"/>
</g>
<defs>
<clipPath id="clip0_4106_7240">
<rect width="16.5066" height="11.6628" fill="white" transform="translate(0 0.347656)"/>
</clipPath>
</defs>
</svg>
