<svg width="14" height="14" viewBox="0 0 14 14" fill="none" xmlns="http://www.w3.org/2000/svg">
<g clip-path="url(#clip0_4106_7059)">
<path d="M6.69198 7.13124C5.74717 7.13385 4.83999 6.7609 4.16991 6.09438C3.49983 5.42786 3.1217 4.52235 3.11866 3.57693C3.11375 1.57722 4.71855 -0.013035 6.72885 8.05453e-05C8.69491 0.0131961 10.2923 1.62476 10.2788 3.58389C10.2709 4.52951 9.88916 5.43353 9.21701 6.09827C8.54486 6.76302 7.63702 7.13441 6.69198 7.13124Z" fill="white"/>
<path d="M6.60104 13.3355C4.67143 13.3355 2.9073 13.347 1.14358 13.3297C0.4743 13.3236 0.115904 12.8863 0.0331653 12.2059C-0.171633 10.514 0.59595 9.40452 2.0623 8.69833C4.16394 7.68638 6.37617 7.54785 8.58635 7.85074C8.43439 8.52332 8.29964 9.16926 8.1358 9.80782C8.09893 9.95127 7.98384 10.0968 7.86546 10.1935C6.89472 10.9931 6.19841 11.91 6.60104 13.3355Z" fill="white"/>
<path d="M7.18122 12.6864C7.02926 12.0745 7.31188 11.5892 7.81445 11.1523C8.40386 10.6396 8.85483 10.11 8.9134 9.18991C8.99327 7.94353 10.3789 7.02954 11.613 7.15864C13.0143 7.30496 14.0059 8.39191 13.9989 9.77314C13.992 11.1191 12.975 12.2733 11.6384 12.3315C11.1154 12.3536 10.7627 12.5315 10.4506 12.9016C10.3331 13.0405 10.1688 13.1451 10.0693 13.2942C9.43195 14.2525 8.46653 13.9701 7.58303 13.9357C7.44377 13.9304 7.2529 13.6598 7.19842 13.4783C7.13166 13.2545 7.18122 12.9955 7.18122 12.6864ZM11.2514 10.5433L11.541 10.5486C11.7322 10.2879 12.0407 10.0465 12.0865 9.76207C12.1508 9.36574 11.8604 9.07679 11.4226 9.06818C10.9847 9.05958 10.6853 9.34156 10.7328 9.73789C10.7689 10.0232 11.0724 10.2769 11.2526 10.5433H11.2514Z" fill="white"/>
</g>
<defs>
<clipPath id="clip0_4106_7059">
<rect width="14" height="14" fill="white"/>
</clipPath>
</defs>
</svg>
