<svg width="11" height="17" viewBox="0 0 11 17" fill="none" xmlns="http://www.w3.org/2000/svg">
<g clip-path="url(#clip0_4106_7152)">
<path d="M5.50349 16.9982C5.25534 16.6552 5.02092 16.3347 4.7903 16.0124C3.61895 14.3735 2.49981 12.7084 1.60214 10.9332C0.903063 9.54989 0.346545 8.12583 0.115552 6.61576C-0.0670319 5.42831 -0.0792298 4.24833 0.475383 3.12513C1.35209 1.3465 2.83372 0.231453 5.03998 0.0268019C6.72516 -0.129576 8.16563 0.403809 9.33584 1.48384C10.4794 2.54075 11.0096 3.82951 11.0027 5.29131C10.9959 6.85509 10.5651 8.34 9.94382 9.78786C9.12238 11.695 8.00134 13.4627 6.79949 15.1931C6.42822 15.7272 6.04361 16.2537 5.66434 16.7837C5.61784 16.849 5.56752 16.9122 5.50349 16.9982ZM9.6686 4.77934C9.6686 2.73282 7.81037 1.06842 5.52064 1.0623C4.97322 1.06252 4.43121 1.1589 3.92555 1.34594C3.41989 1.53298 2.9605 1.80701 2.57359 2.15239C1.79219 2.84992 1.35349 3.79572 1.354 4.78172C1.3545 5.76772 1.79417 6.71315 2.57628 7.41004C3.3584 8.10693 4.41888 8.49819 5.52445 8.49774C7.80808 8.49672 9.66975 6.82619 9.6686 4.77934Z" fill="white"/>
<path d="M5.48556 7.06371C4.74862 7.06371 4.01168 7.06371 3.27474 7.06371C2.98657 7.06371 2.95874 7.03278 2.97399 6.77815C2.99343 6.45792 3.13866 6.19003 3.43445 6.01326C3.66964 5.87286 3.93303 5.76985 4.18613 5.65427C4.27037 5.61585 4.36376 5.59342 4.44953 5.55704C4.79754 5.4112 4.92866 4.98626 4.71063 4.6973C4.56883 4.50965 4.47583 4.31112 4.46439 4.08233C4.46378 4.0271 4.44045 3.97399 4.39883 3.93309C4.22463 3.80051 4.20252 3.62203 4.19261 3.43948C4.18994 3.39223 4.20557 3.30928 4.2334 3.30146C4.4015 3.25522 4.35461 3.13964 4.35233 3.04105C4.34356 2.65521 4.45372 2.3088 4.85243 2.11196C5.27172 1.90391 5.72418 1.90799 6.14843 2.10857C6.50026 2.27548 6.62452 2.57566 6.65463 2.91629C6.66721 3.05771 6.57535 3.21953 6.78805 3.32763C6.87953 3.37421 6.76975 3.7519 6.67674 3.87156C6.61194 3.95383 6.57497 4.05445 6.53342 4.1493C6.45718 4.32097 6.41373 4.50829 6.31043 4.66501C6.07181 5.02672 6.19608 5.41766 6.623 5.58594C6.89516 5.69336 7.17418 5.78991 7.43071 5.92385C7.79168 6.11014 8.00972 6.39231 8.03144 6.77781C8.04593 7.03346 8.0181 7.06507 7.73336 7.06541C6.98372 7.06518 6.23445 7.06462 5.48556 7.06371Z" fill="white"/>
</g>
<defs>
<clipPath id="clip0_4106_7152">
<rect width="11" height="17" fill="white"/>
</clipPath>
</defs>
</svg>
